%TF.GenerationSoftware,KiCad,Pcbnew,9.0.2*%
%TF.CreationDate,2025-06-30T01:24:13-05:00*%
%TF.ProjectId,STEVEannouncer,53544556-4561-46e6-9e6f-756e6365722e,rev?*%
%TF.SameCoordinates,PX52f83c0PY90f5600*%
%TF.FileFunction,Legend,Bot*%
%TF.FilePolarity,Positive*%
%FSLAX46Y46*%
G04 Gerber Fmt 4.6, Leading zero omitted, Abs format (unit mm)*
G04 Created by KiCad (PCBNEW 9.0.2) date 2025-06-30 01:24:13*
%MOMM*%
%LPD*%
G01*
G04 APERTURE LIST*
%ADD10C,0.120000*%
%ADD11C,2.900000*%
%ADD12C,3.400000*%
%ADD13C,1.600000*%
%ADD14C,1.700000*%
%ADD15C,4.000000*%
%ADD16C,2.200000*%
%ADD17C,3.600000*%
%ADD18C,6.400000*%
%ADD19C,3.700000*%
%ADD20C,3.000000*%
%ADD21C,2.000000*%
G04 APERTURE END LIST*
D10*
%TO.C,SW301*%
X86985000Y35985000D02*
X73015000Y35985000D01*
X86985000Y22015000D02*
X86985000Y35985000D01*
X73015000Y35985000D02*
X73015000Y22015000D01*
X73015000Y22015000D02*
X86985000Y22015000D01*
%TO.C,SW302*%
X106985000Y35985000D02*
X93015000Y35985000D01*
X106985000Y22015000D02*
X106985000Y35985000D01*
X93015000Y35985000D02*
X93015000Y22015000D01*
X93015000Y22015000D02*
X106985000Y22015000D01*
%TD*%
%LPC*%
D11*
%TO.C,J301*%
X28250000Y6980000D03*
X20000000Y17150000D03*
D12*
X16190000Y13335000D03*
X23810000Y12700000D03*
D13*
X23810000Y3810000D03*
X16190000Y8890000D03*
%TD*%
D14*
%TO.C,SW301*%
X85080000Y29000000D03*
D15*
X80000000Y29000000D03*
D14*
X74920000Y29000000D03*
D16*
X77460000Y34080000D03*
X83810000Y31540000D03*
%TD*%
D13*
%TO.C,J401*%
X85810000Y77110000D03*
X78190000Y82190000D03*
D12*
X78190000Y73300000D03*
X85810000Y72665000D03*
D11*
X82000000Y68850000D03*
X73750000Y79020000D03*
%TD*%
D13*
%TO.C,J306*%
X46810000Y77110000D03*
X39190000Y82190000D03*
D12*
X46810000Y68220000D03*
X39190000Y68220000D03*
D11*
X43000000Y68220000D03*
X43000000Y73300000D03*
%TD*%
D17*
%TO.C,H103*%
X106000000Y42000000D03*
D18*
X106000000Y42000000D03*
%TD*%
D14*
%TO.C,SW302*%
X105080000Y29000000D03*
D15*
X100000000Y29000000D03*
D14*
X94920000Y29000000D03*
D16*
X97460000Y34080000D03*
X103810000Y31540000D03*
%TD*%
D17*
%TO.C,H101*%
X4000000Y4000000D03*
D18*
X4000000Y4000000D03*
%TD*%
D19*
%TO.C,J201*%
X102300000Y72060000D03*
X99000000Y77650000D03*
X95700000Y72060000D03*
%TD*%
D20*
%TO.C,J407*%
X62300000Y13800000D03*
D21*
X64430000Y7450000D03*
X53000000Y7450000D03*
D20*
X64430000Y10600000D03*
X53000000Y10600000D03*
X64430000Y4250000D03*
X53000000Y4250000D03*
X64430000Y16950000D03*
X53000000Y16950000D03*
%TD*%
D17*
%TO.C,H102*%
X4000000Y82000000D03*
D18*
X4000000Y82000000D03*
%TD*%
D20*
%TO.C,J406*%
X45300000Y13800000D03*
D21*
X47430000Y7450000D03*
X36000000Y7450000D03*
D20*
X47430000Y10600000D03*
X36000000Y10600000D03*
X47430000Y4250000D03*
X36000000Y4250000D03*
X47430000Y16950000D03*
X36000000Y16950000D03*
%TD*%
D13*
%TO.C,J307*%
X23810000Y77110000D03*
X16190000Y82190000D03*
D12*
X23810000Y68220000D03*
X16190000Y68220000D03*
D11*
X20000000Y68220000D03*
X20000000Y73300000D03*
%TD*%
D17*
%TO.C,H104*%
X106000000Y82000000D03*
D18*
X106000000Y82000000D03*
%TD*%
%LPD*%
M02*
