%TF.GenerationSoftware,KiCad,Pcbnew,9.0.2*%
%TF.CreationDate,2025-06-30T01:24:13-05:00*%
%TF.ProjectId,STEVEannouncer,53544556-4561-46e6-9e6f-756e6365722e,rev?*%
%TF.SameCoordinates,PX52f83c0PY90f5600*%
%TF.FileFunction,Soldermask,Top*%
%TF.FilePolarity,Negative*%
%FSLAX46Y46*%
G04 Gerber Fmt 4.6, Leading zero omitted, Abs format (unit mm)*
G04 Created by KiCad (PCBNEW 9.0.2) date 2025-06-30 01:24:13*
%MOMM*%
%LPD*%
G01*
G04 APERTURE LIST*
G04 Aperture macros list*
%AMRoundRect*
0 Rectangle with rounded corners*
0 $1 Rounding radius*
0 $2 $3 $4 $5 $6 $7 $8 $9 X,Y pos of 4 corners*
0 Add a 4 corners polygon primitive as box body*
4,1,4,$2,$3,$4,$5,$6,$7,$8,$9,$2,$3,0*
0 Add four circle primitives for the rounded corners*
1,1,$1+$1,$2,$3*
1,1,$1+$1,$4,$5*
1,1,$1+$1,$6,$7*
1,1,$1+$1,$8,$9*
0 Add four rect primitives between the rounded corners*
20,1,$1+$1,$2,$3,$4,$5,0*
20,1,$1+$1,$4,$5,$6,$7,0*
20,1,$1+$1,$6,$7,$8,$9,0*
20,1,$1+$1,$8,$9,$2,$3,0*%
%AMFreePoly0*
4,1,9,3.862500,-0.866500,0.737500,-0.866500,0.737500,-0.450000,-0.737500,-0.450000,-0.737500,0.450000,0.737500,0.450000,0.737500,0.866500,3.862500,0.866500,3.862500,-0.866500,3.862500,-0.866500,$1*%
G04 Aperture macros list end*
%ADD10RoundRect,0.150000X0.150000X0.200000X-0.150000X0.200000X-0.150000X-0.200000X0.150000X-0.200000X0*%
%ADD11RoundRect,0.150000X-0.150000X-0.200000X0.150000X-0.200000X0.150000X0.200000X-0.150000X0.200000X0*%
%ADD12C,2.900000*%
%ADD13C,3.400000*%
%ADD14C,1.600000*%
%ADD15RoundRect,0.050000X-0.075000X0.250000X-0.075000X-0.250000X0.075000X-0.250000X0.075000X0.250000X0*%
%ADD16R,1.050000X0.680000*%
%ADD17RoundRect,0.050000X-0.300000X0.075000X-0.300000X-0.075000X0.300000X-0.075000X0.300000X0.075000X0*%
%ADD18R,2.400000X1.650000*%
%ADD19RoundRect,0.062500X0.287500X0.062500X-0.287500X0.062500X-0.287500X-0.062500X0.287500X-0.062500X0*%
%ADD20R,1.200000X2.000000*%
%ADD21RoundRect,0.062500X-0.287500X-0.062500X0.287500X-0.062500X0.287500X0.062500X-0.287500X0.062500X0*%
%ADD22RoundRect,0.150000X-0.450000X-0.150000X0.450000X-0.150000X0.450000X0.150000X-0.450000X0.150000X0*%
%ADD23C,1.700000*%
%ADD24C,4.000000*%
%ADD25C,2.200000*%
%ADD26RoundRect,0.250000X-0.550000X-1.250000X0.550000X-1.250000X0.550000X1.250000X-0.550000X1.250000X0*%
%ADD27RoundRect,0.250000X-0.250000X-2.500000X0.250000X-2.500000X0.250000X2.500000X-0.250000X2.500000X0*%
%ADD28RoundRect,0.135000X-0.185000X0.135000X-0.185000X-0.135000X0.185000X-0.135000X0.185000X0.135000X0*%
%ADD29RoundRect,0.140000X0.140000X0.170000X-0.140000X0.170000X-0.140000X-0.170000X0.140000X-0.170000X0*%
%ADD30RoundRect,0.135000X0.135000X0.185000X-0.135000X0.185000X-0.135000X-0.185000X0.135000X-0.185000X0*%
%ADD31RoundRect,0.100000X0.712500X0.100000X-0.712500X0.100000X-0.712500X-0.100000X0.712500X-0.100000X0*%
%ADD32RoundRect,0.140000X-0.140000X-0.170000X0.140000X-0.170000X0.140000X0.170000X-0.140000X0.170000X0*%
%ADD33RoundRect,0.250000X-0.650000X0.325000X-0.650000X-0.325000X0.650000X-0.325000X0.650000X0.325000X0*%
%ADD34C,3.600000*%
%ADD35C,6.400000*%
%ADD36RoundRect,0.150000X0.725000X0.150000X-0.725000X0.150000X-0.725000X-0.150000X0.725000X-0.150000X0*%
%ADD37RoundRect,0.250000X0.250000X2.500000X-0.250000X2.500000X-0.250000X-2.500000X0.250000X-2.500000X0*%
%ADD38RoundRect,0.250000X0.550000X1.250000X-0.550000X1.250000X-0.550000X-1.250000X0.550000X-1.250000X0*%
%ADD39RoundRect,0.135000X0.185000X-0.135000X0.185000X0.135000X-0.185000X0.135000X-0.185000X-0.135000X0*%
%ADD40RoundRect,0.100000X0.155000X0.100000X-0.155000X0.100000X-0.155000X-0.100000X0.155000X-0.100000X0*%
%ADD41RoundRect,0.150000X-0.200000X0.150000X-0.200000X-0.150000X0.200000X-0.150000X0.200000X0.150000X0*%
%ADD42RoundRect,0.147500X0.172500X-0.147500X0.172500X0.147500X-0.172500X0.147500X-0.172500X-0.147500X0*%
%ADD43RoundRect,0.250000X0.950000X0.500000X-0.950000X0.500000X-0.950000X-0.500000X0.950000X-0.500000X0*%
%ADD44RoundRect,0.250000X0.275000X0.500000X-0.275000X0.500000X-0.275000X-0.500000X0.275000X-0.500000X0*%
%ADD45RoundRect,0.140000X0.170000X-0.140000X0.170000X0.140000X-0.170000X0.140000X-0.170000X-0.140000X0*%
%ADD46RoundRect,0.135000X-0.135000X-0.185000X0.135000X-0.185000X0.135000X0.185000X-0.135000X0.185000X0*%
%ADD47RoundRect,0.225000X-0.250000X0.225000X-0.250000X-0.225000X0.250000X-0.225000X0.250000X0.225000X0*%
%ADD48RoundRect,0.250000X0.550000X-1.500000X0.550000X1.500000X-0.550000X1.500000X-0.550000X-1.500000X0*%
%ADD49RoundRect,0.225000X0.250000X-0.225000X0.250000X0.225000X-0.250000X0.225000X-0.250000X-0.225000X0*%
%ADD50C,3.000000*%
%ADD51R,1.300000X3.500000*%
%ADD52C,3.700000*%
%ADD53RoundRect,0.250000X-0.950000X-0.500000X0.950000X-0.500000X0.950000X0.500000X-0.950000X0.500000X0*%
%ADD54RoundRect,0.250000X-0.275000X-0.500000X0.275000X-0.500000X0.275000X0.500000X-0.275000X0.500000X0*%
%ADD55RoundRect,0.147500X-0.147500X-0.172500X0.147500X-0.172500X0.147500X0.172500X-0.147500X0.172500X0*%
%ADD56RoundRect,0.140000X-0.170000X0.140000X-0.170000X-0.140000X0.170000X-0.140000X0.170000X0.140000X0*%
%ADD57RoundRect,0.250000X-0.625000X0.312500X-0.625000X-0.312500X0.625000X-0.312500X0.625000X0.312500X0*%
%ADD58RoundRect,0.218750X-0.218750X-0.256250X0.218750X-0.256250X0.218750X0.256250X-0.218750X0.256250X0*%
%ADD59RoundRect,0.175000X-0.175000X-0.325000X0.175000X-0.325000X0.175000X0.325000X-0.175000X0.325000X0*%
%ADD60RoundRect,0.150000X-0.200000X-0.150000X0.200000X-0.150000X0.200000X0.150000X-0.200000X0.150000X0*%
%ADD61RoundRect,0.147500X-0.172500X0.147500X-0.172500X-0.147500X0.172500X-0.147500X0.172500X0.147500X0*%
%ADD62C,2.000000*%
%ADD63RoundRect,0.100000X-0.637500X-0.100000X0.637500X-0.100000X0.637500X0.100000X-0.637500X0.100000X0*%
%ADD64RoundRect,0.250000X-0.325000X-0.650000X0.325000X-0.650000X0.325000X0.650000X-0.325000X0.650000X0*%
%ADD65RoundRect,0.250000X0.500000X-0.950000X0.500000X0.950000X-0.500000X0.950000X-0.500000X-0.950000X0*%
%ADD66RoundRect,0.250000X0.500000X-0.275000X0.500000X0.275000X-0.500000X0.275000X-0.500000X-0.275000X0*%
%ADD67RoundRect,0.225000X0.225000X-0.425000X0.225000X0.425000X-0.225000X0.425000X-0.225000X-0.425000X0*%
%ADD68FreePoly0,90.000000*%
%ADD69RoundRect,0.175000X0.175000X0.325000X-0.175000X0.325000X-0.175000X-0.325000X0.175000X-0.325000X0*%
%ADD70RoundRect,0.150000X0.200000X0.150000X-0.200000X0.150000X-0.200000X-0.150000X0.200000X-0.150000X0*%
%ADD71RoundRect,0.150000X-0.725000X-0.150000X0.725000X-0.150000X0.725000X0.150000X-0.725000X0.150000X0*%
%ADD72RoundRect,0.147500X0.147500X0.172500X-0.147500X0.172500X-0.147500X-0.172500X0.147500X-0.172500X0*%
%ADD73RoundRect,0.249998X-4.550002X3.650002X-4.550002X-3.650002X4.550002X-3.650002X4.550002X3.650002X0*%
G04 APERTURE END LIST*
D10*
%TO.C,D403*%
X57300000Y43800000D03*
X58700000Y43800000D03*
%TD*%
D11*
%TO.C,D401*%
X57300000Y45200000D03*
X58700000Y45200000D03*
%TD*%
D12*
%TO.C,J301*%
X28250000Y6980000D03*
X20000000Y17150000D03*
D13*
X16190000Y13335000D03*
X23810000Y12700000D03*
D14*
X23810000Y3810000D03*
X16190000Y8890000D03*
%TD*%
D15*
%TO.C,U403*%
X53000000Y36630000D03*
X52500000Y36630000D03*
X52000000Y36630000D03*
X51500000Y36630000D03*
X51000000Y36630000D03*
X51000000Y33830000D03*
X51500000Y33830000D03*
X52000000Y33830000D03*
X52500000Y33830000D03*
X53000000Y33830000D03*
D16*
X52635000Y35680000D03*
X51365000Y35680000D03*
D17*
X53350000Y35480000D03*
X50650000Y35480000D03*
D18*
X52000000Y35230000D03*
D17*
X53350000Y34980000D03*
X50650000Y34980000D03*
D16*
X52635000Y34780000D03*
X51365000Y34780000D03*
%TD*%
D19*
%TO.C,U402*%
X53630000Y48630000D03*
X53630000Y49130000D03*
X53630000Y49630000D03*
X53630000Y50130000D03*
X50930000Y50130000D03*
X50930000Y49630000D03*
X50930000Y49130000D03*
X50930000Y48630000D03*
D20*
X52280000Y49380000D03*
%TD*%
D21*
%TO.C,U302*%
X39900000Y57600000D03*
X39900000Y57100000D03*
X39900000Y56600000D03*
X39900000Y56100000D03*
X42600000Y56100000D03*
X42600000Y56600000D03*
X42600000Y57100000D03*
X42600000Y57600000D03*
D20*
X41250000Y56850000D03*
%TD*%
D22*
%TO.C,U202*%
X88450000Y42950000D03*
X88450000Y42000000D03*
X88450000Y41050000D03*
X91050000Y41050000D03*
X91050000Y42000000D03*
X91050000Y42950000D03*
%TD*%
%TO.C,U201*%
X78950000Y42950000D03*
X78950000Y42000000D03*
X78950000Y41050000D03*
X81550000Y41050000D03*
X81550000Y42000000D03*
X81550000Y42950000D03*
%TD*%
D23*
%TO.C,SW301*%
X85080000Y29000000D03*
D24*
X80000000Y29000000D03*
D23*
X74920000Y29000000D03*
D25*
X77460000Y34080000D03*
X83810000Y31540000D03*
%TD*%
D26*
%TO.C,J302*%
X83400000Y23750000D03*
X76600000Y23750000D03*
D27*
X81000000Y21500000D03*
X79000000Y21500000D03*
%TD*%
D28*
%TO.C,R402*%
X47800000Y43620000D03*
X47800000Y42600000D03*
%TD*%
D29*
%TO.C,C416*%
X85480000Y65250000D03*
X84520000Y65250000D03*
%TD*%
D27*
%TO.C,J405*%
X52400000Y60400000D03*
X54400000Y60400000D03*
X56400000Y60400000D03*
D26*
X50000000Y62650000D03*
X58800000Y62650000D03*
%TD*%
D30*
%TO.C,R203*%
X88410000Y56387500D03*
X87390000Y56387500D03*
%TD*%
D29*
%TO.C,C417*%
X83500000Y65250000D03*
X82540000Y65250000D03*
%TD*%
D25*
%TO.C,RV402*%
X95000000Y3800000D03*
X100000000Y3800000D03*
X105000000Y3800000D03*
%TD*%
D31*
%TO.C,U401*%
X54637500Y38777500D03*
X54637500Y39412500D03*
X54637500Y40047500D03*
X54637500Y40682500D03*
X54637500Y41317500D03*
X54637500Y41952500D03*
X54637500Y42587500D03*
X54637500Y43222500D03*
X49362500Y43222500D03*
X49362500Y42587500D03*
X49362500Y41952500D03*
X49362500Y41317500D03*
X49362500Y40682500D03*
X49362500Y40047500D03*
X49362500Y39412500D03*
X49362500Y38777500D03*
%TD*%
D30*
%TO.C,R411*%
X53610000Y31655000D03*
X52590000Y31655000D03*
%TD*%
D14*
%TO.C,J401*%
X85810000Y77110000D03*
X78190000Y82190000D03*
D13*
X78190000Y73300000D03*
X85810000Y72665000D03*
D12*
X82000000Y68850000D03*
X73750000Y79020000D03*
%TD*%
D27*
%TO.C,J403*%
X64200000Y60400000D03*
X66200000Y60400000D03*
X68200000Y60400000D03*
D26*
X61800000Y62650000D03*
X70600000Y62650000D03*
%TD*%
D32*
%TO.C,C322*%
X35040000Y60600000D03*
X36000000Y60600000D03*
%TD*%
%TO.C,C303*%
X15845000Y20600000D03*
X16805000Y20600000D03*
%TD*%
D14*
%TO.C,J306*%
X46810000Y77110000D03*
X39190000Y82190000D03*
D13*
X46810000Y68220000D03*
X39190000Y68220000D03*
D12*
X43000000Y68220000D03*
X43000000Y73300000D03*
%TD*%
D33*
%TO.C,C207*%
X77050000Y46215000D03*
X77050000Y43265000D03*
%TD*%
D34*
%TO.C,H103*%
X106000000Y42000000D03*
D35*
X106000000Y42000000D03*
%TD*%
D25*
%TO.C,RV401*%
X75000000Y3800000D03*
X80000000Y3800000D03*
X85000000Y3800000D03*
%TD*%
D29*
%TO.C,C301*%
X26455000Y59925000D03*
X25495000Y59925000D03*
%TD*%
D36*
%TO.C,U304*%
X21875000Y56845000D03*
X21875000Y58115000D03*
X21875000Y59385000D03*
X21875000Y60655000D03*
X16725000Y60655000D03*
X16725000Y59385000D03*
X16725000Y58115000D03*
X16725000Y56845000D03*
%TD*%
D37*
%TO.C,J304*%
X26000000Y46500000D03*
X24000000Y46500000D03*
D38*
X28400000Y44250000D03*
X21600000Y44250000D03*
%TD*%
D39*
%TO.C,R405*%
X55800000Y49600000D03*
X55800000Y50620000D03*
%TD*%
D40*
%TO.C,Q201*%
X85355000Y54187500D03*
X85355000Y53187500D03*
X86645000Y53687500D03*
%TD*%
D33*
%TO.C,C208*%
X86550000Y46235000D03*
X86550000Y43285000D03*
%TD*%
D41*
%TO.C,D203*%
X107400000Y68500000D03*
X107400000Y69900000D03*
%TD*%
D23*
%TO.C,SW302*%
X105080000Y29000000D03*
D24*
X100000000Y29000000D03*
D23*
X94920000Y29000000D03*
D25*
X97460000Y34080000D03*
X103810000Y31540000D03*
%TD*%
D42*
%TO.C,FB302*%
X20400000Y64365000D03*
X20400000Y65335000D03*
%TD*%
D29*
%TO.C,C201*%
X86480000Y52087500D03*
X85520000Y52087500D03*
%TD*%
D43*
%TO.C,D302*%
X11415000Y52580000D03*
D44*
X13790000Y52580000D03*
%TD*%
D39*
%TO.C,R320*%
X42630000Y59020000D03*
X42630000Y60040000D03*
%TD*%
D32*
%TO.C,C314*%
X14170000Y59450000D03*
X15130000Y59450000D03*
%TD*%
D45*
%TO.C,C409*%
X50741552Y28326172D03*
X50741552Y29286172D03*
%TD*%
D46*
%TO.C,R309*%
X25990000Y51500000D03*
X27010000Y51500000D03*
%TD*%
D45*
%TO.C,C406*%
X49690000Y50130000D03*
X49690000Y51090000D03*
%TD*%
D47*
%TO.C,C203*%
X83050000Y41875000D03*
X83050000Y40325000D03*
%TD*%
D29*
%TO.C,C323*%
X36480000Y52500000D03*
X35520000Y52500000D03*
%TD*%
D46*
%TO.C,R311*%
X36630000Y56270000D03*
X37650000Y56270000D03*
%TD*%
D48*
%TO.C,C306*%
X20900000Y22625000D03*
X20900000Y28025000D03*
%TD*%
D34*
%TO.C,H101*%
X4000000Y4000000D03*
D35*
X4000000Y4000000D03*
%TD*%
D49*
%TO.C,C204*%
X92530000Y42000000D03*
X92530000Y43550000D03*
%TD*%
D39*
%TO.C,R209*%
X64000000Y82490000D03*
X64000000Y83510000D03*
%TD*%
D48*
%TO.C,C305*%
X13650000Y22625000D03*
X13650000Y28025000D03*
%TD*%
D32*
%TO.C,C308*%
X40770000Y59060000D03*
X41730000Y59060000D03*
%TD*%
D29*
%TO.C,C404*%
X45000000Y42600000D03*
X44040000Y42600000D03*
%TD*%
D27*
%TO.C,J404*%
X98000000Y10500000D03*
X100000000Y10500000D03*
X102000000Y10500000D03*
D26*
X95600000Y12750000D03*
X104400000Y12750000D03*
%TD*%
D45*
%TO.C,C310*%
X18160000Y37590000D03*
X18160000Y38550000D03*
%TD*%
D46*
%TO.C,R201*%
X85490000Y56387500D03*
X86510000Y56387500D03*
%TD*%
D37*
%TO.C,J303*%
X35500000Y46500000D03*
X33500000Y46500000D03*
D38*
X37900000Y44250000D03*
X31100000Y44250000D03*
%TD*%
D32*
%TO.C,C414*%
X50460000Y37840000D03*
X51420000Y37840000D03*
%TD*%
D39*
%TO.C,R303*%
X15175000Y30990000D03*
X15175000Y32010000D03*
%TD*%
D30*
%TO.C,R319*%
X37746000Y59068500D03*
X36726000Y59068500D03*
%TD*%
D10*
%TO.C,D306*%
X29800000Y51500000D03*
X31200000Y51500000D03*
%TD*%
D50*
%TO.C,FID103*%
X106000000Y75000000D03*
%TD*%
D51*
%TO.C,L202*%
X90850000Y46620000D03*
X88650000Y46620000D03*
%TD*%
D52*
%TO.C,J201*%
X102300000Y72060000D03*
X99000000Y77650000D03*
X95700000Y72060000D03*
%TD*%
D53*
%TO.C,D303*%
X13125000Y49950000D03*
D54*
X10750000Y49950000D03*
%TD*%
D41*
%TO.C,D405*%
X51991552Y28416068D03*
X51991552Y29816068D03*
%TD*%
D39*
%TO.C,R205*%
X77730000Y41000000D03*
X77730000Y42020000D03*
%TD*%
D10*
%TO.C,D402*%
X45300000Y43800000D03*
X46700000Y43800000D03*
%TD*%
D32*
%TO.C,C413*%
X51800000Y51590000D03*
X52760000Y51590000D03*
%TD*%
D29*
%TO.C,C410*%
X57090000Y41320000D03*
X56130000Y41320000D03*
%TD*%
D55*
%TO.C,FB303*%
X38870000Y64315000D03*
X39840000Y64315000D03*
%TD*%
D32*
%TO.C,C315*%
X14170000Y60650000D03*
X15130000Y60650000D03*
%TD*%
D56*
%TO.C,C402*%
X47800000Y45460000D03*
X47800000Y44500000D03*
%TD*%
D42*
%TO.C,FB301*%
X15800000Y64415000D03*
X15800000Y65385000D03*
%TD*%
D57*
%TO.C,R301*%
X8900000Y26787500D03*
X8900000Y23862500D03*
%TD*%
D32*
%TO.C,C403*%
X59020000Y42600000D03*
X59980000Y42600000D03*
%TD*%
D28*
%TO.C,R413*%
X53241552Y29316172D03*
X53241552Y28296172D03*
%TD*%
%TO.C,R409*%
X52750000Y53490000D03*
X52750000Y52470000D03*
%TD*%
D41*
%TO.C,D304*%
X9500000Y37585000D03*
X9500000Y38985000D03*
%TD*%
D58*
%TO.C,D204*%
X62000000Y85000000D03*
X63575000Y85000000D03*
%TD*%
D59*
%TO.C,D308*%
X40250000Y62902500D03*
D60*
X40250000Y61202500D03*
X42250000Y61202500D03*
X42250000Y63102500D03*
%TD*%
D61*
%TO.C,FB402*%
X81500000Y65235000D03*
X81500000Y64265000D03*
%TD*%
D32*
%TO.C,C206*%
X89270000Y44160000D03*
X90230000Y44160000D03*
%TD*%
D45*
%TO.C,C405*%
X54870000Y49630000D03*
X54870000Y50590000D03*
%TD*%
D50*
%TO.C,J407*%
X62300000Y13800000D03*
D62*
X64430000Y7450000D03*
X53000000Y7450000D03*
D50*
X64430000Y10600000D03*
X53000000Y10600000D03*
X64430000Y4250000D03*
X53000000Y4250000D03*
X64430000Y16950000D03*
X53000000Y16950000D03*
%TD*%
D34*
%TO.C,H102*%
X4000000Y82000000D03*
D35*
X4000000Y82000000D03*
%TD*%
D28*
%TO.C,R401*%
X56200000Y43610000D03*
X56200000Y42590000D03*
%TD*%
D63*
%TO.C,U301*%
X27887500Y62525000D03*
X27887500Y61875000D03*
X27887500Y61225000D03*
X27887500Y60575000D03*
X27887500Y59925000D03*
X27887500Y59275000D03*
X27887500Y58625000D03*
X27887500Y57975000D03*
X33612500Y57975000D03*
X33612500Y58625000D03*
X33612500Y59275000D03*
X33612500Y59925000D03*
X33612500Y60575000D03*
X33612500Y61225000D03*
X33612500Y61875000D03*
X33612500Y62525000D03*
%TD*%
D50*
%TO.C,J406*%
X45300000Y13800000D03*
D62*
X47430000Y7450000D03*
X36000000Y7450000D03*
D50*
X47430000Y10600000D03*
X36000000Y10600000D03*
X47430000Y4250000D03*
X36000000Y4250000D03*
X47430000Y16950000D03*
X36000000Y16950000D03*
%TD*%
D46*
%TO.C,R307*%
X35490000Y50500000D03*
X36510000Y50500000D03*
%TD*%
D39*
%TO.C,R208*%
X86290000Y41020000D03*
X86290000Y42040000D03*
%TD*%
D30*
%TO.C,R404*%
X46910000Y42600000D03*
X45890000Y42600000D03*
%TD*%
D57*
%TO.C,R302*%
X25675000Y26787500D03*
X25675000Y23862500D03*
%TD*%
D14*
%TO.C,J307*%
X23810000Y77110000D03*
X16190000Y82190000D03*
D13*
X23810000Y68220000D03*
X16190000Y68220000D03*
D12*
X20000000Y68220000D03*
X20000000Y73300000D03*
%TD*%
D46*
%TO.C,R403*%
X57100000Y42600000D03*
X58120000Y42600000D03*
%TD*%
D29*
%TO.C,C324*%
X26980000Y52500000D03*
X26020000Y52500000D03*
%TD*%
D50*
%TO.C,FID102*%
X4000000Y75000000D03*
%TD*%
D46*
%TO.C,R308*%
X26000000Y50500000D03*
X27020000Y50500000D03*
%TD*%
D34*
%TO.C,H104*%
X106000000Y82000000D03*
D35*
X106000000Y82000000D03*
%TD*%
D41*
%TO.C,D202*%
X84300000Y50287500D03*
X84300000Y51687500D03*
%TD*%
D28*
%TO.C,R304*%
X19400000Y32010000D03*
X19400000Y30990000D03*
%TD*%
D32*
%TO.C,C304*%
X17745000Y20600000D03*
X18705000Y20600000D03*
%TD*%
D39*
%TO.C,R206*%
X87230000Y41020000D03*
X87230000Y42040000D03*
%TD*%
D30*
%TO.C,R312*%
X45760000Y56790000D03*
X44740000Y56790000D03*
%TD*%
D27*
%TO.C,J402*%
X78000000Y10500000D03*
X80000000Y10500000D03*
X82000000Y10500000D03*
D26*
X75600000Y12750000D03*
X84400000Y12750000D03*
%TD*%
D32*
%TO.C,C302*%
X16795000Y21600000D03*
X17755000Y21600000D03*
%TD*%
D46*
%TO.C,R310*%
X35490000Y51500000D03*
X36510000Y51500000D03*
%TD*%
D32*
%TO.C,C412*%
X51800000Y47170000D03*
X52760000Y47170000D03*
%TD*%
D29*
%TO.C,C312*%
X39556000Y59058500D03*
X38596000Y59058500D03*
%TD*%
D39*
%TO.C,R207*%
X76790000Y41000000D03*
X76790000Y42020000D03*
%TD*%
D32*
%TO.C,C318*%
X16700000Y65350000D03*
X17660000Y65350000D03*
%TD*%
D64*
%TO.C,C307*%
X13025000Y40950000D03*
X15975000Y40950000D03*
%TD*%
D56*
%TO.C,C401*%
X56200000Y45480000D03*
X56200000Y44520000D03*
%TD*%
D32*
%TO.C,C205*%
X79770000Y44160000D03*
X80730000Y44160000D03*
%TD*%
%TO.C,C320*%
X39840000Y65240000D03*
X40800000Y65240000D03*
%TD*%
D28*
%TO.C,R410*%
X51810000Y53490000D03*
X51810000Y52470000D03*
%TD*%
D39*
%TO.C,R408*%
X50850000Y55340000D03*
X50850000Y56360000D03*
%TD*%
D46*
%TO.C,R305*%
X18440000Y32950000D03*
X19460000Y32950000D03*
%TD*%
D39*
%TO.C,R318*%
X44790000Y54880000D03*
X44790000Y55900000D03*
%TD*%
D65*
%TO.C,D201*%
X89900000Y60225000D03*
D66*
X89900000Y57850000D03*
%TD*%
D61*
%TO.C,FB401*%
X86500000Y65235000D03*
X86500000Y64265000D03*
%TD*%
D29*
%TO.C,C309*%
X41730000Y54640000D03*
X40770000Y54640000D03*
%TD*%
D32*
%TO.C,C408*%
X50425620Y32605000D03*
X51385620Y32605000D03*
%TD*%
D67*
%TO.C,Q202*%
X84500000Y57800000D03*
D68*
X86000000Y57887500D03*
D67*
X87500000Y57800000D03*
%TD*%
D32*
%TO.C,C415*%
X52580000Y37840000D03*
X53540000Y37840000D03*
%TD*%
%TO.C,C313*%
X42870000Y54000000D03*
X43830000Y54000000D03*
%TD*%
%TO.C,C319*%
X18520000Y65350000D03*
X19480000Y65350000D03*
%TD*%
D46*
%TO.C,R412*%
X50395620Y31655000D03*
X51415620Y31655000D03*
%TD*%
D11*
%TO.C,D404*%
X46700000Y45200000D03*
X45300000Y45200000D03*
%TD*%
D29*
%TO.C,C407*%
X53580000Y32605000D03*
X52620000Y32605000D03*
%TD*%
D28*
%TO.C,R306*%
X11600000Y41260000D03*
X11600000Y40240000D03*
%TD*%
D57*
%TO.C,R204*%
X83600000Y56050000D03*
X83600000Y53125000D03*
%TD*%
D69*
%TO.C,D301*%
X18275000Y29975000D03*
D70*
X18275000Y31675000D03*
X16275000Y31675000D03*
X16275000Y29775000D03*
%TD*%
D47*
%TO.C,C316*%
X14850000Y58275000D03*
X14850000Y56725000D03*
%TD*%
D51*
%TO.C,L201*%
X81387500Y46620000D03*
X79187500Y46620000D03*
%TD*%
D32*
%TO.C,C321*%
X41700000Y65240000D03*
X42660000Y65240000D03*
%TD*%
D10*
%TO.C,D305*%
X15300000Y42850000D03*
X16700000Y42850000D03*
%TD*%
D69*
%TO.C,D307*%
X19100000Y62437500D03*
D70*
X19100000Y64137500D03*
X17100000Y64137500D03*
X17100000Y62237500D03*
%TD*%
D29*
%TO.C,C411*%
X47870000Y41320000D03*
X46910000Y41320000D03*
%TD*%
D28*
%TO.C,R313*%
X38636000Y58178500D03*
X38636000Y57158500D03*
%TD*%
D39*
%TO.C,R314*%
X43850000Y54880000D03*
X43850000Y55900000D03*
%TD*%
D71*
%TO.C,U303*%
X11425000Y38855000D03*
X11425000Y37585000D03*
X11425000Y36315000D03*
X11425000Y35045000D03*
X16575000Y35045000D03*
X16575000Y36315000D03*
X16575000Y37585000D03*
X16575000Y38855000D03*
%TD*%
D32*
%TO.C,C209*%
X89760000Y39840000D03*
X90720000Y39840000D03*
%TD*%
D39*
%TO.C,R407*%
X62700000Y55340000D03*
X62700000Y56360000D03*
%TD*%
D28*
%TO.C,R317*%
X43850000Y57760000D03*
X43850000Y56740000D03*
%TD*%
D72*
%TO.C,FB304*%
X43630000Y64315000D03*
X42660000Y64315000D03*
%TD*%
D73*
%TO.C,C202*%
X100800000Y63250000D03*
X100800000Y50750000D03*
%TD*%
D30*
%TO.C,R202*%
X86510000Y55287500D03*
X85490000Y55287500D03*
%TD*%
D29*
%TO.C,C311*%
X9780000Y35045000D03*
X8820000Y35045000D03*
%TD*%
D28*
%TO.C,R316*%
X37696000Y58178500D03*
X37696000Y57158500D03*
%TD*%
D50*
%TO.C,FID101*%
X4000000Y10000000D03*
%TD*%
D28*
%TO.C,R315*%
X36756000Y58178500D03*
X36756000Y57158500D03*
%TD*%
D47*
%TO.C,C317*%
X23750000Y58275000D03*
X23750000Y56725000D03*
%TD*%
D28*
%TO.C,R406*%
X48760000Y51120000D03*
X48760000Y50100000D03*
%TD*%
D27*
%TO.C,J305*%
X99000000Y21500000D03*
X101000000Y21500000D03*
D26*
X96600000Y23750000D03*
X103400000Y23750000D03*
%TD*%
M02*
