%TF.GenerationSoftware,KiCad,Pcbnew,9.0.3*%
%TF.CreationDate,2025-07-20T02:02:08-05:00*%
%TF.ProjectId,STEVEannouncer,53544556-4561-46e6-9e6f-756e6365722e,rev?*%
%TF.SameCoordinates,PX52f83c0PY90f5600*%
%TF.FileFunction,Soldermask,Bot*%
%TF.FilePolarity,Negative*%
%FSLAX46Y46*%
G04 Gerber Fmt 4.6, Leading zero omitted, Abs format (unit mm)*
G04 Created by KiCad (PCBNEW 9.0.3) date 2025-07-20 02:02:08*
%MOMM*%
%LPD*%
G01*
G04 APERTURE LIST*
G04 Aperture macros list*
%AMRoundRect*
0 Rectangle with rounded corners*
0 $1 Rounding radius*
0 $2 $3 $4 $5 $6 $7 $8 $9 X,Y pos of 4 corners*
0 Add a 4 corners polygon primitive as box body*
4,1,4,$2,$3,$4,$5,$6,$7,$8,$9,$2,$3,0*
0 Add four circle primitives for the rounded corners*
1,1,$1+$1,$2,$3*
1,1,$1+$1,$4,$5*
1,1,$1+$1,$6,$7*
1,1,$1+$1,$8,$9*
0 Add four rect primitives between the rounded corners*
20,1,$1+$1,$2,$3,$4,$5,0*
20,1,$1+$1,$4,$5,$6,$7,0*
20,1,$1+$1,$6,$7,$8,$9,0*
20,1,$1+$1,$8,$9,$2,$3,0*%
G04 Aperture macros list end*
%ADD10RoundRect,0.250000X-0.600000X-0.600000X0.600000X-0.600000X0.600000X0.600000X-0.600000X0.600000X0*%
%ADD11C,1.700000*%
%ADD12C,3.700000*%
%ADD13C,1.600000*%
%ADD14C,3.400000*%
%ADD15C,2.900000*%
%ADD16C,3.600000*%
%ADD17C,6.400000*%
%ADD18C,3.000000*%
%ADD19C,2.000000*%
%ADD20C,5.000000*%
%ADD21RoundRect,0.250000X0.600000X0.600000X-0.600000X0.600000X-0.600000X-0.600000X0.600000X-0.600000X0*%
G04 APERTURE END LIST*
D10*
%TO.C,J404*%
X96000000Y12000000D03*
D11*
X100000000Y12000000D03*
X104000000Y12000000D03*
%TD*%
D10*
%TO.C,J402*%
X76000000Y12000000D03*
D11*
X80000000Y12000000D03*
X84000000Y12000000D03*
%TD*%
D12*
%TO.C,J201*%
X102300000Y72060000D03*
X99000000Y77650000D03*
X95700000Y72060000D03*
%TD*%
D13*
%TO.C,J401*%
X85810000Y77110000D03*
X78190000Y82190000D03*
D14*
X78190000Y73300000D03*
X85810000Y72665000D03*
D15*
X82000000Y68850000D03*
X73750000Y79020000D03*
%TD*%
D13*
%TO.C,J306*%
X46810000Y77110000D03*
X39190000Y82190000D03*
D14*
X46810000Y68220000D03*
X39190000Y68220000D03*
D15*
X43000000Y68220000D03*
X43000000Y73300000D03*
%TD*%
D16*
%TO.C,H103*%
X106000000Y42000000D03*
D17*
X106000000Y42000000D03*
%TD*%
D16*
%TO.C,H101*%
X4000000Y4000000D03*
D17*
X4000000Y4000000D03*
%TD*%
D13*
%TO.C,J301*%
X16190000Y8890000D03*
X23810000Y3810000D03*
D14*
X23810000Y12700000D03*
X16190000Y13335000D03*
D15*
X20000000Y17150000D03*
X28250000Y6980000D03*
%TD*%
D18*
%TO.C,J407*%
X62300000Y13800000D03*
D19*
X64430000Y7450000D03*
X53000000Y7450000D03*
D18*
X64430000Y10600000D03*
X53000000Y10600000D03*
X64430000Y4250000D03*
X53000000Y4250000D03*
X64430000Y16950000D03*
X53000000Y16950000D03*
%TD*%
D16*
%TO.C,H102*%
X4000000Y82000000D03*
D17*
X4000000Y82000000D03*
%TD*%
D18*
%TO.C,J406*%
X45300000Y13800000D03*
D19*
X47430000Y7450000D03*
X36000000Y7450000D03*
D18*
X47430000Y10600000D03*
X36000000Y10600000D03*
X47430000Y4250000D03*
X36000000Y4250000D03*
X47430000Y16950000D03*
X36000000Y16950000D03*
%TD*%
D13*
%TO.C,J307*%
X23810000Y77110000D03*
X16190000Y82190000D03*
D14*
X23810000Y68220000D03*
X16190000Y68220000D03*
D15*
X20000000Y68220000D03*
X20000000Y73300000D03*
%TD*%
D16*
%TO.C,H104*%
X106000000Y82000000D03*
D17*
X106000000Y82000000D03*
%TD*%
D20*
%TO.C,SW302*%
X100000000Y26000000D03*
D13*
X95000000Y31150000D03*
%TD*%
D20*
%TO.C,SW301*%
X80000000Y26000000D03*
D13*
X75000000Y31150000D03*
%TD*%
D21*
%TO.C,J305*%
X101500000Y30930000D03*
D11*
X98500000Y30930000D03*
%TD*%
D21*
%TO.C,J302*%
X81500000Y30900000D03*
D11*
X78500000Y30900000D03*
%TD*%
M02*
