M48
; DRILL file {KiCad 9.0.2} date 2025-07-01T01:10:07-0500
; FORMAT={-:-/ absolute / metric / decimal}
; #@! TF.CreationDate,2025-07-01T01:10:07-05:00
; #@! TF.GenerationSoftware,Kicad,Pcbnew,9.0.2
; #@! TF.FileFunction,NonPlated,1,4,NPTH
FMAT,2
METRIC
; #@! TA.AperFunction,NonPlated,NPTH,ComponentDrill
T1C0.380
; #@! TA.AperFunction,NonPlated,NPTH,ComponentDrill
T2C1.600
; #@! TA.AperFunction,NonPlated,NPTH,ComponentDrill
T3C2.000
; #@! TA.AperFunction,NonPlated,NPTH,ComponentDrill
T4C3.000
; #@! TA.AperFunction,NonPlated,NPTH,ComponentDrill
T5C5.000
%
G90
G05
T1
X67.0Y30.6
X67.0Y29.96
X67.0Y29.32
X67.0Y28.68
X67.0Y28.04
X67.0Y27.4
X67.0Y9.6
X67.0Y8.96
X67.0Y8.32
X67.0Y7.68
X67.0Y7.04
X67.0Y6.4
X73.0Y30.6
X73.0Y29.96
X73.0Y29.32
X73.0Y28.68
X73.0Y28.04
X73.0Y27.4
X73.0Y9.6
X73.0Y8.96
X73.0Y8.32
X73.0Y7.68
X73.0Y7.04
X73.0Y6.4
X78.4Y38.0
X78.4Y36.25
X78.4Y18.0
X78.4Y16.0
X79.04Y38.0
X79.04Y36.25
X79.04Y18.0
X79.04Y16.0
X79.68Y38.0
X79.68Y36.25
X79.68Y18.0
X79.68Y16.0
X80.32Y38.0
X80.32Y36.25
X80.32Y18.0
X80.32Y16.0
X80.96Y38.0
X80.96Y36.25
X80.96Y18.0
X80.96Y16.0
X81.6Y38.0
X81.6Y36.25
X81.6Y18.0
X81.6Y16.0
X87.0Y30.6
X87.0Y29.96
X87.0Y29.32
X87.0Y28.68
X87.0Y28.04
X87.0Y27.4
X87.0Y9.6
X87.0Y8.96
X87.0Y8.32
X87.0Y7.68
X87.0Y7.04
X87.0Y6.4
X93.0Y30.6
X93.0Y29.96
X93.0Y29.32
X93.0Y28.68
X93.0Y28.04
X93.0Y27.4
X93.0Y9.6
X93.0Y8.96
X93.0Y8.32
X93.0Y7.68
X93.0Y7.04
X93.0Y6.4
X98.4Y38.0
X98.4Y36.25
X98.4Y18.0
X98.4Y16.0
X99.04Y38.0
X99.04Y36.25
X99.04Y18.0
X99.04Y16.0
X99.68Y38.0
X99.68Y36.25
X99.68Y18.0
X99.68Y16.0
X100.32Y38.0
X100.32Y36.25
X100.32Y18.0
X100.32Y16.0
X100.96Y38.0
X100.96Y36.25
X100.96Y18.0
X100.96Y16.0
X101.6Y38.0
X101.6Y36.25
X101.6Y18.0
X101.6Y16.0
T2
X16.19Y82.19
X16.19Y8.89
X23.81Y77.11
X23.81Y3.81
X39.19Y82.19
X46.81Y77.11
X78.19Y82.19
X85.0Y23.85
X85.81Y77.11
X105.0Y23.85
T3
X36.0Y7.45
X47.43Y7.45
X53.0Y7.45
X64.43Y7.45
T4
X45.3Y13.8
X62.3Y13.8
T5
X80.0Y29.0
X100.0Y29.0
M30
