M48
; DRILL file {KiCad 9.0.3} date 2025-07-20T02:02:18-0500
; FORMAT={-:-/ absolute / metric / decimal}
; #@! TF.CreationDate,2025-07-20T02:02:18-05:00
; #@! TF.GenerationSoftware,Kicad,Pcbnew,9.0.3
; #@! TF.FileFunction,Plated,1,4,PTH
FMAT,2
METRIC
; #@! TA.AperFunction,Plated,PTH,ViaDrill
T1C0.200
; #@! TA.AperFunction,Plated,PTH,ComponentDrill
T2C0.200
; #@! TA.AperFunction,Plated,PTH,ViaDrill
T3C0.300
; #@! TA.AperFunction,Plated,PTH,ComponentDrill
T4C0.300
; #@! TA.AperFunction,Plated,PTH,ComponentDrill
T5C0.700
; #@! TA.AperFunction,Plated,PTH,ComponentDrill
T6C1.200
; #@! TA.AperFunction,Plated,PTH,ComponentDrill
T7C1.500
; #@! TA.AperFunction,Plated,PTH,ComponentDrill
T8C1.600
; #@! TA.AperFunction,Plated,PTH,ComponentDrill
T9C1.700
; #@! TA.AperFunction,Plated,PTH,ComponentDrill
T10C3.200
%
G90
G05
T1
X8.025Y35.05
X9.74Y53.02
X9.74Y52.16
X9.77Y34.22
X9.8Y50.38
X9.8Y49.52
X13.954Y58.837
X14.175Y61.45
X14.7Y53.0
X14.7Y52.14
X14.71Y50.36
X14.71Y49.5
X15.636Y59.955
X16.2Y21.6
X16.21Y62.25
X17.13Y29.76
X18.1Y65.35
X18.1Y60.65
X18.16Y39.27
X18.43Y63.16
X18.98Y37.58
X19.13Y29.96
X20.25Y32.95
X23.3Y59.4
X24.0Y50.5
X24.479Y59.1
X25.48Y61.305
X25.48Y59.16
X26.44Y59.14
X27.76Y52.5
X27.78Y51.49
X27.79Y50.49
X29.75Y59.25
X29.831Y60.57
X32.25Y59.0
X35.04Y61.43
X36.74Y60.6
X37.27Y52.5
X37.29Y51.5
X37.3Y50.49
X39.55Y58.31
X40.23Y54.09
X40.77Y58.33
X41.09Y62.89
X41.25Y65.24
X41.72Y59.84
X42.25Y62.32
X42.47Y54.64
X43.27Y42.59
X43.4Y60.025
X44.49Y45.21
X44.5Y43.78
X44.8Y54.15
X46.08Y41.18
X47.88Y40.33
X48.072Y41.916
X49.25Y44.5
X49.64Y37.81
X49.75Y48.5
X50.0Y37.15
X50.1Y51.895
X50.75Y27.575
X51.01Y47.13
X51.05Y51.895
X51.09Y38.55
X51.68Y55.34
X51.81Y54.27
X52.0Y38.479
X52.0Y27.69
X52.76Y54.25
X53.0Y38.54
X53.25Y37.15
X53.25Y27.61
X53.33Y41.95
X53.35Y43.225
X53.465Y47.15
X53.5Y51.6
X54.2Y44.76
X54.3Y47.39
X54.31Y37.84
X54.475Y51.275
X56.12Y40.49
X56.4Y63.75
X57.83Y41.33
X59.5Y45.21
X59.51Y43.79
X60.76Y42.6
X61.0Y85.0
X63.52Y55.34
X64.0Y81.7
X68.2Y63.6
X75.75Y46.7
X75.75Y46.1
X76.2Y47.2
X76.53Y44.38
X76.9Y47.2
X77.54Y44.38
X77.6Y47.2
X80.24Y43.26
X80.25Y42.6
X80.26Y41.93
X84.0Y65.25
X85.2Y44.3
X85.2Y43.7
X85.2Y43.1
X85.61Y42.04
X86.04Y48.0
X86.04Y47.29
X86.1Y44.3
X87.05Y47.99
X87.06Y47.29
X87.1Y44.3
X92.53Y44.49
X96.6Y46.357
X100.8Y46.357
X105.0Y46.357
T2
X40.9Y57.6
X40.9Y56.85
X40.9Y56.1
X41.6Y57.6
X41.6Y56.85
X41.6Y56.1
X51.93Y50.13
X51.93Y49.38
X51.93Y48.63
X52.63Y50.13
X52.63Y49.38
X52.63Y48.63
X85.55Y61.25
X85.55Y60.25
X85.55Y59.25
X86.45Y61.25
X86.45Y60.25
X86.45Y59.25
T3
X21.15Y38.25
X21.2Y39.25
X22.1Y33.2
X22.9Y31.5
X23.85Y31.5
X43.86Y54.13
X92.085Y40.59
T4
X51.25Y35.73
X51.25Y34.73
X52.0Y35.23
X52.75Y35.73
X52.75Y34.73
T5
X76.0Y12.0
X78.5Y30.9
X80.0Y12.0
X81.5Y30.9
X84.0Y12.0
X96.0Y12.0
X98.5Y30.93
X100.0Y12.0
X101.5Y30.93
X104.0Y12.0
T6
X20.0Y73.3
X20.0Y68.22
X20.0Y17.15
X28.25Y6.98
X43.0Y73.3
X43.0Y68.22
X73.75Y79.02
X75.0Y3.8
X80.0Y20.1
X80.0Y3.8
X82.0Y68.85
X85.0Y22.2
X85.0Y3.8
X95.0Y3.8
X100.0Y20.1
X100.0Y3.8
X105.0Y22.2
X105.0Y3.8
T7
X36.0Y16.95
X36.0Y10.6
X36.0Y4.25
X47.43Y16.95
X47.43Y10.6
X47.43Y4.25
X53.0Y16.95
X53.0Y10.6
X53.0Y4.25
X64.43Y16.95
X64.43Y10.6
X64.43Y4.25
T8
X16.19Y68.22
X16.19Y13.335
X23.81Y68.22
X23.81Y12.7
X39.19Y68.22
X46.81Y68.22
X78.19Y73.3
X85.81Y72.665
T9
X95.7Y72.06
X99.0Y77.65
X102.3Y72.06
T10
X4.0Y82.0
X4.0Y4.0
X106.0Y82.0
X106.0Y42.0
M30
