M48
; DRILL file {KiCad 9.0.3} date 2025-07-20T02:02:18-0500
; FORMAT={-:-/ absolute / metric / decimal}
; #@! TF.CreationDate,2025-07-20T02:02:18-05:00
; #@! TF.GenerationSoftware,Kicad,Pcbnew,9.0.3
; #@! TF.FileFunction,NonPlated,1,4,NPTH
FMAT,2
METRIC
; #@! TA.AperFunction,NonPlated,NPTH,ComponentDrill
T1C0.381
; #@! TA.AperFunction,NonPlated,NPTH,ComponentDrill
T2C1.600
; #@! TA.AperFunction,NonPlated,NPTH,ComponentDrill
T3C2.000
; #@! TA.AperFunction,NonPlated,NPTH,ComponentDrill
T4C3.000
; #@! TA.AperFunction,NonPlated,NPTH,ComponentDrill
T5C5.000
%
G90
G05
T1
X67.0Y27.587
X67.0Y26.952
X67.0Y26.317
X67.0Y25.682
X67.0Y25.047
X67.0Y24.412
X67.0Y9.588
X67.0Y8.952
X67.0Y8.317
X67.0Y7.682
X67.0Y7.047
X67.0Y6.412
X73.0Y9.588
X73.0Y8.952
X73.0Y8.317
X73.0Y7.682
X73.0Y7.047
X73.0Y6.412
X73.44Y27.587
X73.44Y26.952
X73.44Y26.317
X73.44Y25.682
X73.44Y25.047
X73.44Y24.412
X78.412Y38.0
X78.412Y32.56
X79.047Y38.0
X79.047Y32.56
X79.682Y38.0
X79.682Y32.56
X80.317Y38.0
X80.317Y32.56
X80.953Y38.0
X80.953Y32.56
X81.587Y38.0
X81.587Y32.56
X81.912Y19.44
X81.912Y14.0
X82.547Y19.44
X82.547Y14.0
X83.182Y19.44
X83.182Y14.0
X83.817Y19.44
X83.817Y14.0
X84.453Y19.44
X84.453Y14.0
X85.087Y19.44
X85.087Y14.0
X86.56Y27.587
X86.56Y26.952
X86.56Y26.317
X86.56Y25.682
X86.56Y25.047
X86.56Y24.412
X87.0Y9.588
X87.0Y8.952
X87.0Y8.317
X87.0Y7.682
X87.0Y7.047
X87.0Y6.412
X93.0Y9.588
X93.0Y8.952
X93.0Y8.317
X93.0Y7.682
X93.0Y7.047
X93.0Y6.412
X93.19Y27.587
X93.19Y26.952
X93.19Y26.317
X93.19Y25.682
X93.19Y25.047
X93.19Y24.412
X98.412Y38.0
X98.412Y32.56
X99.047Y38.0
X99.047Y32.56
X99.682Y38.0
X99.682Y32.56
X100.317Y38.0
X100.317Y32.56
X100.953Y38.0
X100.953Y32.56
X101.587Y38.0
X101.587Y32.56
X101.912Y19.44
X101.912Y14.0
X102.547Y19.44
X102.547Y14.0
X103.182Y19.44
X103.182Y14.0
X103.817Y19.44
X103.817Y14.0
X104.453Y19.44
X104.453Y14.0
X105.087Y19.44
X105.087Y14.0
T2
X16.19Y82.19
X16.19Y8.89
X23.81Y77.11
X23.81Y3.81
X39.19Y82.19
X46.81Y77.11
X75.0Y31.15
X78.19Y82.19
X85.81Y77.11
X95.0Y31.15
T3
X36.0Y7.45
X47.43Y7.45
X53.0Y7.45
X64.43Y7.45
T4
X45.3Y13.8
X62.3Y13.8
T5
X80.0Y26.0
X100.0Y26.0
M30
