%TF.GenerationSoftware,KiCad,Pcbnew,9.0.2*%
%TF.CreationDate,2025-07-01T01:10:05-05:00*%
%TF.ProjectId,STEVEannouncer,53544556-4561-46e6-9e6f-756e6365722e,rev?*%
%TF.SameCoordinates,PX52f83c0PY90f5600*%
%TF.FileFunction,Profile,NP*%
%FSLAX46Y46*%
G04 Gerber Fmt 4.6, Leading zero omitted, Abs format (unit mm)*
G04 Created by KiCad (PCBNEW 9.0.2) date 2025-07-01 01:10:05*
%MOMM*%
%LPD*%
G01*
G04 APERTURE LIST*
%TA.AperFunction,Profile*%
%ADD10C,0.050000*%
%TD*%
G04 APERTURE END LIST*
D10*
X107000000Y0D02*
X105000000Y0D01*
X78400000Y18000000D02*
X78400000Y16000000D01*
X78400000Y36250000D02*
X78400000Y38000000D01*
X67000000Y30600000D02*
X67000000Y38000000D01*
X107000000Y36250000D02*
X107000000Y18000000D01*
X101600000Y16000000D02*
X101600000Y18000000D01*
X73000000Y27400000D02*
X73000000Y18000000D01*
X98400000Y38000000D02*
X81600000Y38000000D01*
X67000000Y0D02*
X67000000Y6400000D01*
X93000000Y36250000D02*
X93000000Y30600000D01*
X93000000Y16000000D02*
X98400000Y16000000D01*
X81600000Y36250000D02*
X87000000Y36250000D01*
X73000000Y16000000D02*
X78400000Y16000000D01*
X87000000Y30600000D02*
X93000000Y30600000D01*
X98400000Y36250000D02*
X98400000Y38000000D01*
X73000000Y18000000D02*
X78400000Y18000000D01*
X93000000Y0D02*
X95000000Y0D01*
X67000000Y9600000D02*
X73000000Y9600000D01*
X101600000Y18000000D02*
X107000000Y18000000D01*
X93000000Y18000000D02*
X98400000Y18000000D01*
X110000000Y86000000D02*
X104000000Y86000000D01*
X81600000Y16000000D02*
X87000000Y16000000D01*
X110000000Y38000000D02*
X110000000Y86000000D01*
X107000000Y16000000D02*
X107000000Y0D01*
X67000000Y27400000D02*
X67000000Y9600000D01*
X107000000Y16000000D02*
X101600000Y16000000D01*
X87000000Y9600000D02*
X87000000Y16000000D01*
X93000000Y36250000D02*
X98400000Y36250000D01*
X73000000Y30600000D02*
X67000000Y30600000D01*
X81600000Y18000000D02*
X87000000Y18000000D01*
X73000000Y6400000D02*
X73000000Y0D01*
X0Y0D02*
X67000000Y0D01*
X81600000Y18000000D02*
X81600000Y16000000D01*
X93000000Y27400000D02*
X93000000Y18000000D01*
X85000000Y0D02*
X87000000Y0D01*
X67000000Y6400000D02*
X73000000Y6400000D01*
X101600000Y38000000D02*
X110000000Y38000000D01*
X87000000Y6400000D02*
X87000000Y0D01*
X98400000Y18000000D02*
X98400000Y16000000D01*
X78400000Y36250000D02*
X73000000Y36250000D01*
X75000000Y0D02*
X73000000Y0D01*
X81600000Y38000000D02*
X81600000Y36250000D01*
X87000000Y27400000D02*
X93000000Y27400000D01*
X87000000Y6400000D02*
X93000000Y6400000D01*
X87000000Y9600000D02*
X93000000Y9600000D01*
X87000000Y36250000D02*
X87000000Y30600000D01*
X73000000Y27400000D02*
X67000000Y27400000D01*
X73000000Y36250000D02*
X73000000Y30600000D01*
X101600000Y36250000D02*
X107000000Y36250000D01*
X93000000Y6400000D02*
X93000000Y0D01*
X73000000Y9600000D02*
X73000000Y16000000D01*
X101600000Y38000000D02*
X101600000Y36250000D01*
X87000000Y27400000D02*
X87000000Y18000000D01*
X67000000Y38000000D02*
X78400000Y38000000D01*
X0Y0D02*
X0Y86000000D01*
X93000000Y16000000D02*
X93000000Y9600000D01*
X94000000Y86000000D02*
X0Y86000000D01*
%TO.C,RV402*%
X95000000Y0D02*
X105000000Y0D01*
%TO.C,RV401*%
X75000000Y0D02*
X85000000Y0D01*
%TO.C,J201*%
X104000000Y86000000D02*
X94000000Y86000000D01*
%TD*%
M02*
