%TF.GenerationSoftware,KiCad,Pcbnew,9.0.2*%
%TF.CreationDate,2025-07-01T01:10:05-05:00*%
%TF.ProjectId,STEVEannouncer,53544556-4561-46e6-9e6f-756e6365722e,rev?*%
%TF.SameCoordinates,PX52f83c0PY90f5600*%
%TF.FileFunction,Copper,L3,Inr*%
%TF.FilePolarity,Positive*%
%FSLAX46Y46*%
G04 Gerber Fmt 4.6, Leading zero omitted, Abs format (unit mm)*
G04 Created by KiCad (PCBNEW 9.0.2) date 2025-07-01 01:10:05*
%MOMM*%
%LPD*%
G01*
G04 APERTURE LIST*
%TA.AperFunction,ComponentPad*%
%ADD10C,2.000000*%
%TD*%
%TA.AperFunction,ComponentPad*%
%ADD11C,3.400000*%
%TD*%
%TA.AperFunction,ComponentPad*%
%ADD12C,2.900000*%
%TD*%
%TA.AperFunction,ComponentPad*%
%ADD13C,3.600000*%
%TD*%
%TA.AperFunction,ComponentPad*%
%ADD14C,3.700000*%
%TD*%
%TA.AperFunction,HeatsinkPad*%
%ADD15C,0.500000*%
%TD*%
%TA.AperFunction,ComponentPad*%
%ADD16C,3.000000*%
%TD*%
%TA.AperFunction,ViaPad*%
%ADD17C,0.500000*%
%TD*%
G04 APERTURE END LIST*
D10*
%TO.N,Net-(J305-Pin_2)*%
%TO.C,SW302*%
X95000000Y32800000D03*
%TO.N,Net-(J305-Pin_1)*%
X100000000Y34900000D03*
%TD*%
%TO.N,Net-(J302-Pin_2)*%
%TO.C,SW301*%
X75000000Y32800000D03*
%TO.N,Net-(J302-Pin_1)*%
X80000000Y34900000D03*
%TD*%
D11*
%TO.N,GND*%
%TO.C,J401*%
X78190000Y73300000D03*
D12*
X73750000Y79020000D03*
%TD*%
D11*
%TO.N,GND*%
%TO.C,J306*%
X46810000Y68220000D03*
D12*
X43000000Y73300000D03*
%TD*%
D13*
%TO.N,GND*%
%TO.C,H103*%
X106000000Y42000000D03*
%TD*%
%TO.N,GND*%
%TO.C,H101*%
X4000000Y4000000D03*
%TD*%
D11*
%TO.N,GND*%
%TO.C,J301*%
X23810000Y12700000D03*
D12*
X28250000Y6980000D03*
%TD*%
D14*
%TO.N,GND*%
%TO.C,J201*%
X99000000Y77650000D03*
X95700000Y72060000D03*
%TD*%
D15*
%TO.N,-5V*%
%TO.C,U402*%
X52630000Y48630000D03*
X52630000Y49380000D03*
X52630000Y50130000D03*
X51930000Y48630000D03*
X51930000Y49380000D03*
X51930000Y50130000D03*
%TD*%
D16*
%TO.N,GND*%
%TO.C,J407*%
X64430000Y4250000D03*
X53000000Y4250000D03*
%TD*%
D13*
%TO.N,GND*%
%TO.C,H102*%
X4000000Y82000000D03*
%TD*%
D16*
%TO.N,GND*%
%TO.C,J406*%
X47430000Y4250000D03*
X36000000Y4250000D03*
%TD*%
D11*
%TO.N,GND*%
%TO.C,J307*%
X23810000Y68220000D03*
D12*
X20000000Y73300000D03*
%TD*%
D13*
%TO.N,GND*%
%TO.C,H104*%
X106000000Y82000000D03*
%TD*%
D15*
%TO.N,-5V*%
%TO.C,U302*%
X40900000Y57600000D03*
X40900000Y56850000D03*
X40900000Y56100000D03*
X41600000Y57600000D03*
X41600000Y56850000D03*
X41600000Y56100000D03*
%TD*%
D17*
%TO.N,GND*%
X29830646Y60570000D03*
X32250000Y59000000D03*
X37300000Y50490000D03*
X27790000Y50490000D03*
X105000000Y46357500D03*
X49640000Y37810000D03*
X61000000Y85000000D03*
X18000000Y35050000D03*
X29750000Y59250000D03*
X77540000Y44380000D03*
X18930000Y38540000D03*
X60760000Y42600000D03*
X42160000Y53980000D03*
X43270000Y42590000D03*
X23300000Y59400000D03*
X86040000Y48000000D03*
X13954467Y58836792D03*
X79750000Y40200000D03*
X85610000Y42040000D03*
X92530000Y44490000D03*
X54475000Y51275000D03*
X8025000Y35050000D03*
X56400000Y63750000D03*
X50680000Y41940000D03*
X80250000Y41400000D03*
X36740000Y60600000D03*
X14175000Y61450000D03*
X52000000Y38478977D03*
X57830000Y41330000D03*
X100800000Y46357500D03*
X25480000Y59160000D03*
X18100000Y65350000D03*
X51810000Y54270000D03*
X51010000Y51590000D03*
X68200000Y63600000D03*
X96600000Y46357500D03*
X14710000Y49500000D03*
X50750000Y27575000D03*
X54310000Y37840000D03*
X14700000Y53000000D03*
X14710000Y50360000D03*
X87040000Y45310000D03*
X44500000Y43780000D03*
X86040000Y45300000D03*
X20250000Y32950000D03*
X42470000Y54640000D03*
X87060000Y47290000D03*
X80850000Y40200000D03*
X59510000Y43790000D03*
X40770000Y58330000D03*
X53350000Y43225000D03*
X84000000Y65250000D03*
X50200000Y51720000D03*
X46120000Y41310000D03*
X44490000Y45210000D03*
X16200000Y21600000D03*
X37270000Y52500000D03*
X53465000Y47150000D03*
X59500000Y45210000D03*
X41250000Y65240000D03*
X39550000Y58310000D03*
X87050000Y47990000D03*
X86040000Y47290000D03*
X80250000Y42600000D03*
X53330000Y41950000D03*
X27760000Y52500000D03*
X76530000Y44380000D03*
X14700000Y52140000D03*
%TD*%
%TA.AperFunction,Conductor*%
%TO.N,GND*%
G36*
X109458691Y85480593D02*
G01*
X109494655Y85431093D01*
X109499500Y85400500D01*
X109499500Y38599500D01*
X109480593Y38541309D01*
X109431093Y38505345D01*
X109400500Y38500500D01*
X101665892Y38500500D01*
X101534108Y38500500D01*
X101456200Y38479625D01*
X101406809Y38466391D01*
X101292690Y38400504D01*
X101292685Y38400500D01*
X101219985Y38327800D01*
X101165468Y38300023D01*
X101105036Y38309595D01*
X101100504Y38312056D01*
X101091428Y38317295D01*
X101091426Y38317296D01*
X101091424Y38317297D01*
X101004830Y38340500D01*
X101004828Y38340500D01*
X100915172Y38340500D01*
X100915169Y38340500D01*
X100828575Y38317297D01*
X100828574Y38317296D01*
X100828572Y38317296D01*
X100828572Y38317295D01*
X100750928Y38272468D01*
X100710001Y38231542D01*
X100655487Y38203766D01*
X100595055Y38213337D01*
X100569999Y38231541D01*
X100529072Y38272468D01*
X100451428Y38317295D01*
X100451425Y38317296D01*
X100451424Y38317297D01*
X100364830Y38340500D01*
X100364828Y38340500D01*
X100275172Y38340500D01*
X100275169Y38340500D01*
X100188575Y38317297D01*
X100188574Y38317296D01*
X100188572Y38317296D01*
X100188572Y38317295D01*
X100110928Y38272468D01*
X100070001Y38231542D01*
X100015487Y38203766D01*
X99955055Y38213337D01*
X99929999Y38231541D01*
X99889072Y38272468D01*
X99811428Y38317295D01*
X99811425Y38317296D01*
X99811424Y38317297D01*
X99724830Y38340500D01*
X99724828Y38340500D01*
X99635172Y38340500D01*
X99635169Y38340500D01*
X99548575Y38317297D01*
X99548574Y38317296D01*
X99548572Y38317296D01*
X99548572Y38317295D01*
X99470928Y38272468D01*
X99430001Y38231542D01*
X99375487Y38203766D01*
X99315055Y38213337D01*
X99289999Y38231541D01*
X99249072Y38272468D01*
X99171428Y38317295D01*
X99171425Y38317296D01*
X99171424Y38317297D01*
X99084830Y38340500D01*
X99084828Y38340500D01*
X98995172Y38340500D01*
X98995169Y38340500D01*
X98908575Y38317297D01*
X98908569Y38317294D01*
X98899514Y38312066D01*
X98839666Y38299347D01*
X98783771Y38324235D01*
X98780032Y38327782D01*
X98707314Y38400500D01*
X98707311Y38400502D01*
X98707309Y38400504D01*
X98593189Y38466391D01*
X98593191Y38466391D01*
X98543799Y38479625D01*
X98465892Y38500500D01*
X81665892Y38500500D01*
X81534108Y38500500D01*
X81456200Y38479625D01*
X81406809Y38466391D01*
X81292690Y38400504D01*
X81292685Y38400500D01*
X81219985Y38327800D01*
X81165468Y38300023D01*
X81105036Y38309595D01*
X81100504Y38312056D01*
X81091428Y38317295D01*
X81091426Y38317296D01*
X81091424Y38317297D01*
X81004830Y38340500D01*
X81004828Y38340500D01*
X80915172Y38340500D01*
X80915169Y38340500D01*
X80828575Y38317297D01*
X80828574Y38317296D01*
X80828572Y38317296D01*
X80828572Y38317295D01*
X80750928Y38272468D01*
X80710001Y38231542D01*
X80655487Y38203766D01*
X80595055Y38213337D01*
X80569999Y38231541D01*
X80529072Y38272468D01*
X80451428Y38317295D01*
X80451425Y38317296D01*
X80451424Y38317297D01*
X80364830Y38340500D01*
X80364828Y38340500D01*
X80275172Y38340500D01*
X80275169Y38340500D01*
X80188575Y38317297D01*
X80188574Y38317296D01*
X80188572Y38317296D01*
X80188572Y38317295D01*
X80110928Y38272468D01*
X80070001Y38231542D01*
X80015487Y38203766D01*
X79955055Y38213337D01*
X79929999Y38231541D01*
X79889072Y38272468D01*
X79811428Y38317295D01*
X79811425Y38317296D01*
X79811424Y38317297D01*
X79724830Y38340500D01*
X79724828Y38340500D01*
X79635172Y38340500D01*
X79635169Y38340500D01*
X79548575Y38317297D01*
X79548574Y38317296D01*
X79548572Y38317296D01*
X79548572Y38317295D01*
X79470928Y38272468D01*
X79430001Y38231542D01*
X79375487Y38203766D01*
X79315055Y38213337D01*
X79289999Y38231541D01*
X79249072Y38272468D01*
X79171428Y38317295D01*
X79171425Y38317296D01*
X79171424Y38317297D01*
X79084830Y38340500D01*
X79084828Y38340500D01*
X78995172Y38340500D01*
X78995169Y38340500D01*
X78908575Y38317297D01*
X78908569Y38317294D01*
X78899514Y38312066D01*
X78839666Y38299347D01*
X78783771Y38324235D01*
X78780032Y38327782D01*
X78707314Y38400500D01*
X78707311Y38400502D01*
X78707309Y38400504D01*
X78593189Y38466391D01*
X78593191Y38466391D01*
X78543799Y38479625D01*
X78465892Y38500500D01*
X67065892Y38500500D01*
X66934108Y38500500D01*
X66856200Y38479625D01*
X66806809Y38466391D01*
X66692690Y38400504D01*
X66599496Y38307310D01*
X66533609Y38193191D01*
X66533608Y38193186D01*
X66499500Y38065892D01*
X66499500Y30665892D01*
X66499500Y30534108D01*
X66529579Y30421849D01*
X66533609Y30406810D01*
X66599496Y30292691D01*
X66599498Y30292689D01*
X66599500Y30292686D01*
X66672201Y30219985D01*
X66699977Y30165470D01*
X66690406Y30105038D01*
X66687934Y30100486D01*
X66682706Y30091431D01*
X66682703Y30091425D01*
X66659500Y30004831D01*
X66659500Y29915170D01*
X66682703Y29828576D01*
X66682704Y29828575D01*
X66682705Y29828572D01*
X66727532Y29750928D01*
X66768458Y29710002D01*
X66796234Y29655487D01*
X66786663Y29595055D01*
X66768459Y29570000D01*
X66727532Y29529072D01*
X66682704Y29451426D01*
X66682703Y29451425D01*
X66659500Y29364831D01*
X66659500Y29275170D01*
X66682703Y29188576D01*
X66682704Y29188575D01*
X66682705Y29188572D01*
X66727532Y29110928D01*
X66768458Y29070002D01*
X66796234Y29015487D01*
X66786663Y28955055D01*
X66768459Y28930000D01*
X66727532Y28889072D01*
X66705630Y28851135D01*
X66682704Y28811426D01*
X66682703Y28811425D01*
X66659500Y28724831D01*
X66659500Y28635170D01*
X66682703Y28548576D01*
X66682704Y28548575D01*
X66682705Y28548572D01*
X66727532Y28470928D01*
X66768458Y28430002D01*
X66796234Y28375487D01*
X66786663Y28315055D01*
X66768459Y28290000D01*
X66743551Y28265091D01*
X66727532Y28249072D01*
X66682704Y28171426D01*
X66682703Y28171425D01*
X66659500Y28084831D01*
X66659500Y27995170D01*
X66682703Y27908576D01*
X66682703Y27908575D01*
X66682704Y27908574D01*
X66682705Y27908572D01*
X66687933Y27899516D01*
X66700654Y27839669D01*
X66675767Y27783774D01*
X66672200Y27780015D01*
X66599500Y27707315D01*
X66599496Y27707310D01*
X66533609Y27593191D01*
X66533608Y27593186D01*
X66499500Y27465892D01*
X66499500Y9534108D01*
X66509736Y9495908D01*
X66533609Y9406810D01*
X66599496Y9292691D01*
X66599498Y9292689D01*
X66599500Y9292686D01*
X66672201Y9219985D01*
X66699977Y9165470D01*
X66690406Y9105038D01*
X66687934Y9100486D01*
X66682706Y9091431D01*
X66682703Y9091425D01*
X66659500Y9004831D01*
X66659500Y8915170D01*
X66682703Y8828576D01*
X66682704Y8828575D01*
X66682705Y8828572D01*
X66727532Y8750928D01*
X66768458Y8710002D01*
X66796234Y8655487D01*
X66786663Y8595055D01*
X66768459Y8570000D01*
X66727532Y8529072D01*
X66682704Y8451426D01*
X66682703Y8451425D01*
X66659500Y8364831D01*
X66659500Y8275170D01*
X66682703Y8188576D01*
X66682704Y8188575D01*
X66682705Y8188572D01*
X66727532Y8110928D01*
X66768458Y8070002D01*
X66796234Y8015487D01*
X66786663Y7955055D01*
X66768459Y7930000D01*
X66730099Y7891639D01*
X66727532Y7889072D01*
X66682704Y7811426D01*
X66682703Y7811425D01*
X66659500Y7724831D01*
X66659500Y7635170D01*
X66682703Y7548576D01*
X66682704Y7548575D01*
X66682705Y7548572D01*
X66727532Y7470928D01*
X66768458Y7430002D01*
X66796234Y7375487D01*
X66786663Y7315055D01*
X66768459Y7290000D01*
X66727532Y7249072D01*
X66682704Y7171426D01*
X66682703Y7171425D01*
X66659500Y7084831D01*
X66659500Y6995170D01*
X66682703Y6908576D01*
X66682703Y6908575D01*
X66682704Y6908574D01*
X66682705Y6908572D01*
X66687933Y6899516D01*
X66700654Y6839669D01*
X66675767Y6783774D01*
X66672200Y6780015D01*
X66599500Y6707315D01*
X66599496Y6707310D01*
X66533609Y6593191D01*
X66499500Y6465891D01*
X66499500Y599500D01*
X66480593Y541309D01*
X66431093Y505345D01*
X66400500Y500500D01*
X599500Y500500D01*
X541309Y519407D01*
X505345Y568907D01*
X500500Y599500D01*
X500500Y3903619D01*
X22859500Y3903619D01*
X22859500Y3716382D01*
X22896026Y3532751D01*
X22967677Y3359771D01*
X22967681Y3359762D01*
X23014489Y3289711D01*
X23071698Y3204092D01*
X23204092Y3071698D01*
X23266102Y3030264D01*
X23359761Y2967682D01*
X23359767Y2967680D01*
X23359769Y2967678D01*
X23532749Y2896027D01*
X23716384Y2859500D01*
X23716385Y2859500D01*
X23903615Y2859500D01*
X23903616Y2859500D01*
X24087251Y2896027D01*
X24260231Y2967678D01*
X24260234Y2967681D01*
X24260238Y2967682D01*
X24307856Y2999500D01*
X24415908Y3071698D01*
X24548302Y3204092D01*
X24622282Y3314813D01*
X24652318Y3359762D01*
X24652319Y3359766D01*
X24652322Y3359769D01*
X24723973Y3532749D01*
X24760500Y3716384D01*
X24760500Y3903616D01*
X24723973Y4087251D01*
X24652322Y4260231D01*
X24652320Y4260233D01*
X24652318Y4260239D01*
X24592649Y4349537D01*
X24548302Y4415908D01*
X24415908Y4548302D01*
X24371559Y4577935D01*
X24260238Y4652319D01*
X24260229Y4652323D01*
X24087249Y4723974D01*
X23903618Y4760500D01*
X23903616Y4760500D01*
X23716384Y4760500D01*
X23716381Y4760500D01*
X23532750Y4723974D01*
X23359770Y4652323D01*
X23359761Y4652319D01*
X23204092Y4548302D01*
X23204088Y4548299D01*
X23071701Y4415912D01*
X23071698Y4415908D01*
X22967681Y4260239D01*
X22967677Y4260230D01*
X22896026Y4087250D01*
X22859500Y3903619D01*
X500500Y3903619D01*
X500500Y7540550D01*
X34849500Y7540550D01*
X34849500Y7359451D01*
X34877828Y7180594D01*
X34933788Y7008363D01*
X34991568Y6894963D01*
X35016004Y6847006D01*
X35122447Y6700499D01*
X35250499Y6572447D01*
X35397006Y6466004D01*
X35558361Y6383789D01*
X35730591Y6327829D01*
X35802136Y6316498D01*
X35909451Y6299500D01*
X35909454Y6299500D01*
X36090549Y6299500D01*
X36179977Y6313665D01*
X36269409Y6327829D01*
X36441639Y6383789D01*
X36602994Y6466004D01*
X36749501Y6572447D01*
X36877553Y6700499D01*
X36983996Y6847006D01*
X37066211Y7008361D01*
X37122171Y7180591D01*
X37148134Y7344513D01*
X37150500Y7359451D01*
X37150500Y7540550D01*
X46279500Y7540550D01*
X46279500Y7359451D01*
X46307828Y7180594D01*
X46363788Y7008363D01*
X46421568Y6894963D01*
X46446004Y6847006D01*
X46552447Y6700499D01*
X46680499Y6572447D01*
X46827006Y6466004D01*
X46988361Y6383789D01*
X47160591Y6327829D01*
X47232136Y6316498D01*
X47339451Y6299500D01*
X47339454Y6299500D01*
X47520549Y6299500D01*
X47609977Y6313665D01*
X47699409Y6327829D01*
X47871639Y6383789D01*
X48032994Y6466004D01*
X48179501Y6572447D01*
X48307553Y6700499D01*
X48413996Y6847006D01*
X48496211Y7008361D01*
X48552171Y7180591D01*
X48578134Y7344513D01*
X48580500Y7359451D01*
X48580500Y7540550D01*
X51849500Y7540550D01*
X51849500Y7359451D01*
X51877828Y7180594D01*
X51933788Y7008363D01*
X51991568Y6894963D01*
X52016004Y6847006D01*
X52122447Y6700499D01*
X52250499Y6572447D01*
X52397006Y6466004D01*
X52558361Y6383789D01*
X52730591Y6327829D01*
X52802136Y6316498D01*
X52909451Y6299500D01*
X52909454Y6299500D01*
X53090549Y6299500D01*
X53179977Y6313665D01*
X53269409Y6327829D01*
X53441639Y6383789D01*
X53602994Y6466004D01*
X53749501Y6572447D01*
X53877553Y6700499D01*
X53983996Y6847006D01*
X54066211Y7008361D01*
X54122171Y7180591D01*
X54148134Y7344513D01*
X54150500Y7359451D01*
X54150500Y7540550D01*
X63279500Y7540550D01*
X63279500Y7359451D01*
X63307828Y7180594D01*
X63363788Y7008363D01*
X63421568Y6894963D01*
X63446004Y6847006D01*
X63552447Y6700499D01*
X63680499Y6572447D01*
X63827006Y6466004D01*
X63988361Y6383789D01*
X64160591Y6327829D01*
X64232136Y6316498D01*
X64339451Y6299500D01*
X64339454Y6299500D01*
X64520549Y6299500D01*
X64609977Y6313665D01*
X64699409Y6327829D01*
X64871639Y6383789D01*
X65032994Y6466004D01*
X65179501Y6572447D01*
X65307553Y6700499D01*
X65413996Y6847006D01*
X65496211Y7008361D01*
X65552171Y7180591D01*
X65578134Y7344513D01*
X65580500Y7359451D01*
X65580500Y7540550D01*
X65552171Y7719407D01*
X65552171Y7719409D01*
X65496211Y7891639D01*
X65413996Y8052994D01*
X65307553Y8199501D01*
X65179501Y8327553D01*
X65032994Y8433996D01*
X65032993Y8433997D01*
X65032991Y8433998D01*
X64871637Y8516212D01*
X64699406Y8572172D01*
X64520549Y8600500D01*
X64520546Y8600500D01*
X64339454Y8600500D01*
X64339451Y8600500D01*
X64160593Y8572172D01*
X63988362Y8516212D01*
X63827008Y8433998D01*
X63753752Y8380775D01*
X63680499Y8327553D01*
X63552447Y8199501D01*
X63544510Y8188576D01*
X63446002Y8052992D01*
X63363788Y7891638D01*
X63307828Y7719407D01*
X63279500Y7540550D01*
X54150500Y7540550D01*
X54122171Y7719407D01*
X54122171Y7719409D01*
X54066211Y7891639D01*
X53983996Y8052994D01*
X53877553Y8199501D01*
X53749501Y8327553D01*
X53602994Y8433996D01*
X53602993Y8433997D01*
X53602991Y8433998D01*
X53441637Y8516212D01*
X53269406Y8572172D01*
X53090549Y8600500D01*
X53090546Y8600500D01*
X52909454Y8600500D01*
X52909451Y8600500D01*
X52730593Y8572172D01*
X52558362Y8516212D01*
X52397008Y8433998D01*
X52323752Y8380775D01*
X52250499Y8327553D01*
X52122447Y8199501D01*
X52114510Y8188576D01*
X52016002Y8052992D01*
X51933788Y7891638D01*
X51877828Y7719407D01*
X51849500Y7540550D01*
X48580500Y7540550D01*
X48552171Y7719407D01*
X48552171Y7719409D01*
X48496211Y7891639D01*
X48413996Y8052994D01*
X48307553Y8199501D01*
X48179501Y8327553D01*
X48032994Y8433996D01*
X48032993Y8433997D01*
X48032991Y8433998D01*
X47871637Y8516212D01*
X47699406Y8572172D01*
X47520549Y8600500D01*
X47520546Y8600500D01*
X47339454Y8600500D01*
X47339451Y8600500D01*
X47160593Y8572172D01*
X46988362Y8516212D01*
X46827008Y8433998D01*
X46753752Y8380775D01*
X46680499Y8327553D01*
X46552447Y8199501D01*
X46544510Y8188576D01*
X46446002Y8052992D01*
X46363788Y7891638D01*
X46307828Y7719407D01*
X46279500Y7540550D01*
X37150500Y7540550D01*
X37122171Y7719407D01*
X37122171Y7719409D01*
X37066211Y7891639D01*
X36983996Y8052994D01*
X36877553Y8199501D01*
X36749501Y8327553D01*
X36602994Y8433996D01*
X36602993Y8433997D01*
X36602991Y8433998D01*
X36441637Y8516212D01*
X36269406Y8572172D01*
X36090549Y8600500D01*
X36090546Y8600500D01*
X35909454Y8600500D01*
X35909451Y8600500D01*
X35730593Y8572172D01*
X35558362Y8516212D01*
X35397008Y8433998D01*
X35323752Y8380775D01*
X35250499Y8327553D01*
X35122447Y8199501D01*
X35114510Y8188576D01*
X35016002Y8052992D01*
X34933788Y7891638D01*
X34877828Y7719407D01*
X34849500Y7540550D01*
X500500Y7540550D01*
X500500Y8983619D01*
X15239500Y8983619D01*
X15239500Y8796382D01*
X15276026Y8612751D01*
X15347677Y8439771D01*
X15347681Y8439762D01*
X15422065Y8328441D01*
X15451698Y8284092D01*
X15584092Y8151698D01*
X15645107Y8110929D01*
X15739761Y8047682D01*
X15739767Y8047680D01*
X15739769Y8047678D01*
X15912749Y7976027D01*
X16096384Y7939500D01*
X16096385Y7939500D01*
X16283615Y7939500D01*
X16283616Y7939500D01*
X16467251Y7976027D01*
X16640231Y8047678D01*
X16640234Y8047681D01*
X16640238Y8047682D01*
X16685187Y8077718D01*
X16795908Y8151698D01*
X16928302Y8284092D01*
X17028465Y8433996D01*
X17032318Y8439762D01*
X17032319Y8439766D01*
X17032322Y8439769D01*
X17103973Y8612749D01*
X17140500Y8796384D01*
X17140500Y8983616D01*
X17103973Y9167251D01*
X17032322Y9340231D01*
X17032320Y9340233D01*
X17032318Y9340239D01*
X16972649Y9429537D01*
X16928302Y9495908D01*
X16795908Y9628302D01*
X16739651Y9665892D01*
X16640238Y9732319D01*
X16640229Y9732323D01*
X16467249Y9803974D01*
X16283618Y9840500D01*
X16283616Y9840500D01*
X16096384Y9840500D01*
X16096381Y9840500D01*
X15912750Y9803974D01*
X15739770Y9732323D01*
X15739761Y9732319D01*
X15584092Y9628302D01*
X15584088Y9628299D01*
X15451701Y9495912D01*
X15451698Y9495908D01*
X15347681Y9340239D01*
X15347677Y9340230D01*
X15276026Y9167250D01*
X15239500Y8983619D01*
X500500Y8983619D01*
X500500Y10693619D01*
X35049500Y10693619D01*
X35049500Y10506382D01*
X35086026Y10322751D01*
X35157677Y10149771D01*
X35157681Y10149762D01*
X35190598Y10100500D01*
X35261698Y9994092D01*
X35394092Y9861698D01*
X35460463Y9817351D01*
X35549761Y9757682D01*
X35549767Y9757680D01*
X35549769Y9757678D01*
X35722749Y9686027D01*
X35906384Y9649500D01*
X35906385Y9649500D01*
X36093615Y9649500D01*
X36093616Y9649500D01*
X36277251Y9686027D01*
X36450231Y9757678D01*
X36450234Y9757681D01*
X36450238Y9757682D01*
X36519516Y9803973D01*
X36605908Y9861698D01*
X36738302Y9994092D01*
X36812282Y10104813D01*
X36842318Y10149762D01*
X36842319Y10149766D01*
X36842322Y10149769D01*
X36913973Y10322749D01*
X36950500Y10506384D01*
X36950500Y10693616D01*
X36950499Y10693619D01*
X46479500Y10693619D01*
X46479500Y10506382D01*
X46516026Y10322751D01*
X46587677Y10149771D01*
X46587681Y10149762D01*
X46620598Y10100500D01*
X46691698Y9994092D01*
X46824092Y9861698D01*
X46890463Y9817351D01*
X46979761Y9757682D01*
X46979767Y9757680D01*
X46979769Y9757678D01*
X47152749Y9686027D01*
X47336384Y9649500D01*
X47336385Y9649500D01*
X47523615Y9649500D01*
X47523616Y9649500D01*
X47707251Y9686027D01*
X47880231Y9757678D01*
X47880234Y9757681D01*
X47880238Y9757682D01*
X47949516Y9803973D01*
X48035908Y9861698D01*
X48168302Y9994092D01*
X48242282Y10104813D01*
X48272318Y10149762D01*
X48272319Y10149766D01*
X48272322Y10149769D01*
X48343973Y10322749D01*
X48380500Y10506384D01*
X48380500Y10693616D01*
X48380499Y10693619D01*
X52049500Y10693619D01*
X52049500Y10506382D01*
X52086026Y10322751D01*
X52157677Y10149771D01*
X52157681Y10149762D01*
X52190598Y10100500D01*
X52261698Y9994092D01*
X52394092Y9861698D01*
X52460463Y9817351D01*
X52549761Y9757682D01*
X52549767Y9757680D01*
X52549769Y9757678D01*
X52722749Y9686027D01*
X52906384Y9649500D01*
X52906385Y9649500D01*
X53093615Y9649500D01*
X53093616Y9649500D01*
X53277251Y9686027D01*
X53450231Y9757678D01*
X53450234Y9757681D01*
X53450238Y9757682D01*
X53519516Y9803973D01*
X53605908Y9861698D01*
X53738302Y9994092D01*
X53812282Y10104813D01*
X53842318Y10149762D01*
X53842319Y10149766D01*
X53842322Y10149769D01*
X53913973Y10322749D01*
X53950500Y10506384D01*
X53950500Y10693616D01*
X53950499Y10693619D01*
X63479500Y10693619D01*
X63479500Y10506382D01*
X63516026Y10322751D01*
X63587677Y10149771D01*
X63587681Y10149762D01*
X63620598Y10100500D01*
X63691698Y9994092D01*
X63824092Y9861698D01*
X63890463Y9817351D01*
X63979761Y9757682D01*
X63979767Y9757680D01*
X63979769Y9757678D01*
X64152749Y9686027D01*
X64336384Y9649500D01*
X64336385Y9649500D01*
X64523615Y9649500D01*
X64523616Y9649500D01*
X64707251Y9686027D01*
X64880231Y9757678D01*
X64880234Y9757681D01*
X64880238Y9757682D01*
X64949516Y9803973D01*
X65035908Y9861698D01*
X65168302Y9994092D01*
X65242282Y10104813D01*
X65272318Y10149762D01*
X65272319Y10149766D01*
X65272322Y10149769D01*
X65343973Y10322749D01*
X65380500Y10506384D01*
X65380500Y10693616D01*
X65343973Y10877251D01*
X65272322Y11050231D01*
X65272320Y11050233D01*
X65272318Y11050239D01*
X65212649Y11139537D01*
X65168302Y11205908D01*
X65035908Y11338302D01*
X64991559Y11367935D01*
X64880238Y11442319D01*
X64880229Y11442323D01*
X64707249Y11513974D01*
X64523618Y11550500D01*
X64523616Y11550500D01*
X64336384Y11550500D01*
X64336381Y11550500D01*
X64152750Y11513974D01*
X63979770Y11442323D01*
X63979761Y11442319D01*
X63824092Y11338302D01*
X63824088Y11338299D01*
X63691701Y11205912D01*
X63691698Y11205908D01*
X63587681Y11050239D01*
X63587677Y11050230D01*
X63516026Y10877250D01*
X63479500Y10693619D01*
X53950499Y10693619D01*
X53913973Y10877251D01*
X53842322Y11050231D01*
X53842320Y11050233D01*
X53842318Y11050239D01*
X53782649Y11139537D01*
X53738302Y11205908D01*
X53605908Y11338302D01*
X53561559Y11367935D01*
X53450238Y11442319D01*
X53450229Y11442323D01*
X53277249Y11513974D01*
X53093618Y11550500D01*
X53093616Y11550500D01*
X52906384Y11550500D01*
X52906381Y11550500D01*
X52722750Y11513974D01*
X52549770Y11442323D01*
X52549761Y11442319D01*
X52394092Y11338302D01*
X52394088Y11338299D01*
X52261701Y11205912D01*
X52261698Y11205908D01*
X52157681Y11050239D01*
X52157677Y11050230D01*
X52086026Y10877250D01*
X52049500Y10693619D01*
X48380499Y10693619D01*
X48343973Y10877251D01*
X48272322Y11050231D01*
X48272320Y11050233D01*
X48272318Y11050239D01*
X48212649Y11139537D01*
X48168302Y11205908D01*
X48035908Y11338302D01*
X47991559Y11367935D01*
X47880238Y11442319D01*
X47880229Y11442323D01*
X47707249Y11513974D01*
X47523618Y11550500D01*
X47523616Y11550500D01*
X47336384Y11550500D01*
X47336381Y11550500D01*
X47152750Y11513974D01*
X46979770Y11442323D01*
X46979761Y11442319D01*
X46824092Y11338302D01*
X46824088Y11338299D01*
X46691701Y11205912D01*
X46691698Y11205908D01*
X46587681Y11050239D01*
X46587677Y11050230D01*
X46516026Y10877250D01*
X46479500Y10693619D01*
X36950499Y10693619D01*
X36913973Y10877251D01*
X36842322Y11050231D01*
X36842320Y11050233D01*
X36842318Y11050239D01*
X36782649Y11139537D01*
X36738302Y11205908D01*
X36605908Y11338302D01*
X36561559Y11367935D01*
X36450238Y11442319D01*
X36450229Y11442323D01*
X36277249Y11513974D01*
X36093618Y11550500D01*
X36093616Y11550500D01*
X35906384Y11550500D01*
X35906381Y11550500D01*
X35722750Y11513974D01*
X35549770Y11442323D01*
X35549761Y11442319D01*
X35394092Y11338302D01*
X35394088Y11338299D01*
X35261701Y11205912D01*
X35261698Y11205908D01*
X35157681Y11050239D01*
X35157677Y11050230D01*
X35086026Y10877250D01*
X35049500Y10693619D01*
X500500Y10693619D01*
X500500Y13433544D01*
X15189500Y13433544D01*
X15189500Y13236457D01*
X15227949Y13043166D01*
X15227949Y13043164D01*
X15303367Y12861087D01*
X15303368Y12861086D01*
X15412861Y12697218D01*
X15552218Y12557861D01*
X15716086Y12448368D01*
X15898165Y12372949D01*
X16091459Y12334500D01*
X16091460Y12334500D01*
X16288540Y12334500D01*
X16288541Y12334500D01*
X16481835Y12372949D01*
X16663914Y12448368D01*
X16827782Y12557861D01*
X16967139Y12697218D01*
X17076632Y12861086D01*
X17152051Y13043165D01*
X17190500Y13236459D01*
X17190500Y13433541D01*
X17152051Y13626835D01*
X17076632Y13808914D01*
X16995791Y13929901D01*
X43649500Y13929901D01*
X43649500Y13670100D01*
X43690138Y13413512D01*
X43747667Y13236459D01*
X43770421Y13166428D01*
X43888366Y12934949D01*
X44041069Y12724771D01*
X44224771Y12541069D01*
X44434949Y12388366D01*
X44666428Y12270421D01*
X44913507Y12190140D01*
X44913508Y12190140D01*
X44913511Y12190139D01*
X45170100Y12149500D01*
X45170103Y12149500D01*
X45429900Y12149500D01*
X45686488Y12190139D01*
X45686489Y12190140D01*
X45686493Y12190140D01*
X45933572Y12270421D01*
X46165051Y12388366D01*
X46375229Y12541069D01*
X46558931Y12724771D01*
X46711634Y12934949D01*
X46829579Y13166428D01*
X46909860Y13413507D01*
X46913033Y13433541D01*
X46950500Y13670100D01*
X46950500Y13929901D01*
X60649500Y13929901D01*
X60649500Y13670100D01*
X60690138Y13413512D01*
X60747667Y13236459D01*
X60770421Y13166428D01*
X60888366Y12934949D01*
X61041069Y12724771D01*
X61224771Y12541069D01*
X61434949Y12388366D01*
X61666428Y12270421D01*
X61913507Y12190140D01*
X61913508Y12190140D01*
X61913511Y12190139D01*
X62170100Y12149500D01*
X62170103Y12149500D01*
X62429900Y12149500D01*
X62686488Y12190139D01*
X62686489Y12190140D01*
X62686493Y12190140D01*
X62933572Y12270421D01*
X63165051Y12388366D01*
X63375229Y12541069D01*
X63558931Y12724771D01*
X63711634Y12934949D01*
X63829579Y13166428D01*
X63909860Y13413507D01*
X63913033Y13433541D01*
X63950500Y13670100D01*
X63950500Y13929901D01*
X63909861Y14186489D01*
X63898443Y14221632D01*
X63829579Y14433572D01*
X63711634Y14665051D01*
X63558931Y14875229D01*
X63375229Y15058931D01*
X63165051Y15211634D01*
X63165050Y15211635D01*
X63165048Y15211636D01*
X63057964Y15266198D01*
X62933572Y15329579D01*
X62933569Y15329580D01*
X62933567Y15329581D01*
X62686488Y15409862D01*
X62429900Y15450500D01*
X62429897Y15450500D01*
X62170103Y15450500D01*
X62170100Y15450500D01*
X61913511Y15409862D01*
X61666432Y15329581D01*
X61434951Y15211636D01*
X61224772Y15058932D01*
X61041068Y14875228D01*
X60888364Y14665049D01*
X60770419Y14433568D01*
X60690138Y14186489D01*
X60649500Y13929901D01*
X46950500Y13929901D01*
X46909861Y14186489D01*
X46898443Y14221632D01*
X46829579Y14433572D01*
X46711634Y14665051D01*
X46558931Y14875229D01*
X46375229Y15058931D01*
X46165051Y15211634D01*
X46165050Y15211635D01*
X46165048Y15211636D01*
X46057964Y15266198D01*
X45933572Y15329579D01*
X45933569Y15329580D01*
X45933567Y15329581D01*
X45686488Y15409862D01*
X45429900Y15450500D01*
X45429897Y15450500D01*
X45170103Y15450500D01*
X45170100Y15450500D01*
X44913511Y15409862D01*
X44666432Y15329581D01*
X44434951Y15211636D01*
X44224772Y15058932D01*
X44041068Y14875228D01*
X43888364Y14665049D01*
X43770419Y14433568D01*
X43690138Y14186489D01*
X43649500Y13929901D01*
X16995791Y13929901D01*
X16967139Y13972782D01*
X16827782Y14112139D01*
X16663914Y14221632D01*
X16663915Y14221632D01*
X16663913Y14221633D01*
X16481835Y14297051D01*
X16288543Y14335500D01*
X16288541Y14335500D01*
X16091459Y14335500D01*
X16091456Y14335500D01*
X15898165Y14297051D01*
X15898163Y14297051D01*
X15716086Y14221633D01*
X15552218Y14112139D01*
X15552214Y14112136D01*
X15412864Y13972786D01*
X15412861Y13972782D01*
X15303367Y13808914D01*
X15227949Y13626837D01*
X15227949Y13626835D01*
X15189500Y13433544D01*
X500500Y13433544D01*
X500500Y17228845D01*
X19199500Y17228845D01*
X19199500Y17071156D01*
X19230263Y16916504D01*
X19230263Y16916502D01*
X19290603Y16770826D01*
X19290609Y16770815D01*
X19343312Y16691941D01*
X19378211Y16639711D01*
X19489711Y16528211D01*
X19567876Y16475983D01*
X19620814Y16440610D01*
X19620825Y16440604D01*
X19674638Y16418315D01*
X19766503Y16380263D01*
X19921158Y16349500D01*
X19921159Y16349500D01*
X20078841Y16349500D01*
X20078842Y16349500D01*
X20233497Y16380263D01*
X20379179Y16440606D01*
X20510289Y16528211D01*
X20621789Y16639711D01*
X20709394Y16770821D01*
X20769737Y16916503D01*
X20795022Y17043619D01*
X35049500Y17043619D01*
X35049500Y16856382D01*
X35086026Y16672751D01*
X35157677Y16499771D01*
X35157681Y16499762D01*
X35197948Y16439500D01*
X35261698Y16344092D01*
X35394092Y16211698D01*
X35460463Y16167351D01*
X35549761Y16107682D01*
X35549767Y16107680D01*
X35549769Y16107678D01*
X35722749Y16036027D01*
X35906384Y15999500D01*
X35906385Y15999500D01*
X36093615Y15999500D01*
X36093616Y15999500D01*
X36277251Y16036027D01*
X36450231Y16107678D01*
X36450234Y16107681D01*
X36450238Y16107682D01*
X36495187Y16137718D01*
X36605908Y16211698D01*
X36738302Y16344092D01*
X36820020Y16466392D01*
X36842318Y16499762D01*
X36842319Y16499766D01*
X36842322Y16499769D01*
X36913973Y16672749D01*
X36950500Y16856384D01*
X36950500Y17043616D01*
X36950499Y17043619D01*
X46479500Y17043619D01*
X46479500Y16856382D01*
X46516026Y16672751D01*
X46587677Y16499771D01*
X46587681Y16499762D01*
X46627948Y16439500D01*
X46691698Y16344092D01*
X46824092Y16211698D01*
X46890463Y16167351D01*
X46979761Y16107682D01*
X46979767Y16107680D01*
X46979769Y16107678D01*
X47152749Y16036027D01*
X47336384Y15999500D01*
X47336385Y15999500D01*
X47523615Y15999500D01*
X47523616Y15999500D01*
X47707251Y16036027D01*
X47880231Y16107678D01*
X47880234Y16107681D01*
X47880238Y16107682D01*
X47925187Y16137718D01*
X48035908Y16211698D01*
X48168302Y16344092D01*
X48250020Y16466392D01*
X48272318Y16499762D01*
X48272319Y16499766D01*
X48272322Y16499769D01*
X48343973Y16672749D01*
X48380500Y16856384D01*
X48380500Y17043616D01*
X48380499Y17043619D01*
X52049500Y17043619D01*
X52049500Y16856382D01*
X52086026Y16672751D01*
X52157677Y16499771D01*
X52157681Y16499762D01*
X52197948Y16439500D01*
X52261698Y16344092D01*
X52394092Y16211698D01*
X52460463Y16167351D01*
X52549761Y16107682D01*
X52549767Y16107680D01*
X52549769Y16107678D01*
X52722749Y16036027D01*
X52906384Y15999500D01*
X52906385Y15999500D01*
X53093615Y15999500D01*
X53093616Y15999500D01*
X53277251Y16036027D01*
X53450231Y16107678D01*
X53450234Y16107681D01*
X53450238Y16107682D01*
X53495187Y16137718D01*
X53605908Y16211698D01*
X53738302Y16344092D01*
X53820020Y16466392D01*
X53842318Y16499762D01*
X53842319Y16499766D01*
X53842322Y16499769D01*
X53913973Y16672749D01*
X53950500Y16856384D01*
X53950500Y17043616D01*
X53950499Y17043619D01*
X63479500Y17043619D01*
X63479500Y16856382D01*
X63516026Y16672751D01*
X63587677Y16499771D01*
X63587681Y16499762D01*
X63627948Y16439500D01*
X63691698Y16344092D01*
X63824092Y16211698D01*
X63890463Y16167351D01*
X63979761Y16107682D01*
X63979767Y16107680D01*
X63979769Y16107678D01*
X64152749Y16036027D01*
X64336384Y15999500D01*
X64336385Y15999500D01*
X64523615Y15999500D01*
X64523616Y15999500D01*
X64707251Y16036027D01*
X64880231Y16107678D01*
X64880234Y16107681D01*
X64880238Y16107682D01*
X64925187Y16137718D01*
X65035908Y16211698D01*
X65168302Y16344092D01*
X65250020Y16466392D01*
X65272318Y16499762D01*
X65272319Y16499766D01*
X65272322Y16499769D01*
X65343973Y16672749D01*
X65380500Y16856384D01*
X65380500Y17043616D01*
X65343973Y17227251D01*
X65272322Y17400231D01*
X65272320Y17400233D01*
X65272318Y17400239D01*
X65212649Y17489537D01*
X65168302Y17555908D01*
X65035908Y17688302D01*
X64977195Y17727533D01*
X64880238Y17792319D01*
X64880229Y17792323D01*
X64707249Y17863974D01*
X64523618Y17900500D01*
X64523616Y17900500D01*
X64336384Y17900500D01*
X64336381Y17900500D01*
X64152750Y17863974D01*
X63979770Y17792323D01*
X63979761Y17792319D01*
X63824092Y17688302D01*
X63824088Y17688299D01*
X63691701Y17555912D01*
X63691698Y17555908D01*
X63587681Y17400239D01*
X63587677Y17400230D01*
X63516026Y17227250D01*
X63479500Y17043619D01*
X53950499Y17043619D01*
X53913973Y17227251D01*
X53842322Y17400231D01*
X53842320Y17400233D01*
X53842318Y17400239D01*
X53782649Y17489537D01*
X53738302Y17555908D01*
X53605908Y17688302D01*
X53547195Y17727533D01*
X53450238Y17792319D01*
X53450229Y17792323D01*
X53277249Y17863974D01*
X53093618Y17900500D01*
X53093616Y17900500D01*
X52906384Y17900500D01*
X52906381Y17900500D01*
X52722750Y17863974D01*
X52549770Y17792323D01*
X52549761Y17792319D01*
X52394092Y17688302D01*
X52394088Y17688299D01*
X52261701Y17555912D01*
X52261698Y17555908D01*
X52157681Y17400239D01*
X52157677Y17400230D01*
X52086026Y17227250D01*
X52049500Y17043619D01*
X48380499Y17043619D01*
X48343973Y17227251D01*
X48272322Y17400231D01*
X48272320Y17400233D01*
X48272318Y17400239D01*
X48212649Y17489537D01*
X48168302Y17555908D01*
X48035908Y17688302D01*
X47977195Y17727533D01*
X47880238Y17792319D01*
X47880229Y17792323D01*
X47707249Y17863974D01*
X47523618Y17900500D01*
X47523616Y17900500D01*
X47336384Y17900500D01*
X47336381Y17900500D01*
X47152750Y17863974D01*
X46979770Y17792323D01*
X46979761Y17792319D01*
X46824092Y17688302D01*
X46824088Y17688299D01*
X46691701Y17555912D01*
X46691698Y17555908D01*
X46587681Y17400239D01*
X46587677Y17400230D01*
X46516026Y17227250D01*
X46479500Y17043619D01*
X36950499Y17043619D01*
X36913973Y17227251D01*
X36842322Y17400231D01*
X36842320Y17400233D01*
X36842318Y17400239D01*
X36782649Y17489537D01*
X36738302Y17555908D01*
X36605908Y17688302D01*
X36547195Y17727533D01*
X36450238Y17792319D01*
X36450229Y17792323D01*
X36277249Y17863974D01*
X36093618Y17900500D01*
X36093616Y17900500D01*
X35906384Y17900500D01*
X35906381Y17900500D01*
X35722750Y17863974D01*
X35549770Y17792323D01*
X35549761Y17792319D01*
X35394092Y17688302D01*
X35394088Y17688299D01*
X35261701Y17555912D01*
X35261698Y17555908D01*
X35157681Y17400239D01*
X35157677Y17400230D01*
X35086026Y17227250D01*
X35049500Y17043619D01*
X20795022Y17043619D01*
X20800500Y17071158D01*
X20800500Y17228842D01*
X20769737Y17383497D01*
X20749622Y17432058D01*
X20709396Y17529175D01*
X20709390Y17529186D01*
X20662407Y17599500D01*
X20621789Y17660289D01*
X20510289Y17771789D01*
X20457870Y17806814D01*
X20379185Y17859391D01*
X20379174Y17859397D01*
X20233497Y17919737D01*
X20078844Y17950500D01*
X20078842Y17950500D01*
X19921158Y17950500D01*
X19921155Y17950500D01*
X19766503Y17919737D01*
X19766501Y17919737D01*
X19620825Y17859397D01*
X19620814Y17859391D01*
X19489711Y17771789D01*
X19489707Y17771786D01*
X19378214Y17660293D01*
X19378211Y17660289D01*
X19290609Y17529186D01*
X19290603Y17529175D01*
X19230263Y17383499D01*
X19230263Y17383497D01*
X19199500Y17228845D01*
X500500Y17228845D01*
X500500Y27729565D01*
X51699500Y27729565D01*
X51699500Y27650436D01*
X51719978Y27574012D01*
X51719980Y27574008D01*
X51759538Y27505492D01*
X51759540Y27505489D01*
X51815489Y27449540D01*
X51815491Y27449539D01*
X51884007Y27409981D01*
X51884011Y27409979D01*
X51960435Y27389501D01*
X51960437Y27389500D01*
X51960438Y27389500D01*
X52039563Y27389500D01*
X52039563Y27389501D01*
X52115989Y27409979D01*
X52184511Y27449540D01*
X52240460Y27505489D01*
X52280021Y27574011D01*
X52300266Y27649565D01*
X52949500Y27649565D01*
X52949500Y27570436D01*
X52969978Y27494012D01*
X52969980Y27494008D01*
X53009538Y27425492D01*
X53009540Y27425489D01*
X53065489Y27369540D01*
X53065491Y27369539D01*
X53134007Y27329981D01*
X53134011Y27329979D01*
X53210435Y27309501D01*
X53210437Y27309500D01*
X53210438Y27309500D01*
X53289563Y27309500D01*
X53289563Y27309501D01*
X53365989Y27329979D01*
X53434511Y27369540D01*
X53490460Y27425489D01*
X53530021Y27494011D01*
X53550500Y27570438D01*
X53550500Y27649562D01*
X53530021Y27725989D01*
X53527956Y27729565D01*
X53490461Y27794509D01*
X53490460Y27794511D01*
X53434511Y27850460D01*
X53434508Y27850462D01*
X53365992Y27890020D01*
X53365988Y27890022D01*
X53289564Y27910500D01*
X53289562Y27910500D01*
X53210438Y27910500D01*
X53210435Y27910500D01*
X53134011Y27890022D01*
X53134007Y27890020D01*
X53065491Y27850462D01*
X53009538Y27794509D01*
X52969980Y27725993D01*
X52969978Y27725989D01*
X52949500Y27649565D01*
X52300266Y27649565D01*
X52300500Y27650438D01*
X52300500Y27729562D01*
X52280021Y27805989D01*
X52240460Y27874511D01*
X52184511Y27930460D01*
X52184508Y27930462D01*
X52115992Y27970020D01*
X52115988Y27970022D01*
X52039564Y27990500D01*
X52039562Y27990500D01*
X51960438Y27990500D01*
X51960435Y27990500D01*
X51884011Y27970022D01*
X51884007Y27970020D01*
X51815491Y27930462D01*
X51759538Y27874509D01*
X51719980Y27805993D01*
X51719978Y27805989D01*
X51699500Y27729565D01*
X500500Y27729565D01*
X500500Y29799565D01*
X16829500Y29799565D01*
X16829500Y29720436D01*
X16849978Y29644012D01*
X16849980Y29644008D01*
X16879737Y29592468D01*
X16889540Y29575489D01*
X16945489Y29519540D01*
X16945491Y29519539D01*
X17014007Y29479981D01*
X17014011Y29479979D01*
X17090435Y29459501D01*
X17090437Y29459500D01*
X17090438Y29459500D01*
X17169563Y29459500D01*
X17169563Y29459501D01*
X17245989Y29479979D01*
X17314511Y29519540D01*
X17370460Y29575489D01*
X17410021Y29644011D01*
X17430500Y29720438D01*
X17430500Y29799562D01*
X17410021Y29875989D01*
X17370460Y29944511D01*
X17315406Y29999565D01*
X18829500Y29999565D01*
X18829500Y29920436D01*
X18849978Y29844012D01*
X18849980Y29844008D01*
X18889538Y29775492D01*
X18889540Y29775489D01*
X18945489Y29719540D01*
X18945491Y29719539D01*
X19014007Y29679981D01*
X19014011Y29679979D01*
X19090435Y29659501D01*
X19090437Y29659500D01*
X19090438Y29659500D01*
X19169563Y29659500D01*
X19169563Y29659501D01*
X19245989Y29679979D01*
X19314511Y29719540D01*
X19370460Y29775489D01*
X19410021Y29844011D01*
X19430500Y29920438D01*
X19430500Y29999562D01*
X19410021Y30075989D01*
X19401107Y30091428D01*
X19370461Y30144509D01*
X19370460Y30144511D01*
X19314511Y30200460D01*
X19314508Y30200462D01*
X19245992Y30240020D01*
X19245988Y30240022D01*
X19169564Y30260500D01*
X19169562Y30260500D01*
X19090438Y30260500D01*
X19090435Y30260500D01*
X19014011Y30240022D01*
X19014007Y30240020D01*
X18945491Y30200462D01*
X18889538Y30144509D01*
X18849980Y30075993D01*
X18849978Y30075989D01*
X18829500Y29999565D01*
X17315406Y29999565D01*
X17314511Y30000460D01*
X17314442Y30000500D01*
X17245992Y30040020D01*
X17245988Y30040022D01*
X17169564Y30060500D01*
X17169562Y30060500D01*
X17090438Y30060500D01*
X17090435Y30060500D01*
X17014011Y30040022D01*
X17014007Y30040020D01*
X16945491Y30000462D01*
X16889538Y29944509D01*
X16849980Y29875993D01*
X16849978Y29875989D01*
X16829500Y29799565D01*
X500500Y29799565D01*
X500500Y34259565D01*
X9469500Y34259565D01*
X9469500Y34180436D01*
X9489978Y34104012D01*
X9489980Y34104008D01*
X9529538Y34035492D01*
X9529540Y34035489D01*
X9585489Y33979540D01*
X9585491Y33979539D01*
X9654007Y33939981D01*
X9654011Y33939979D01*
X9730435Y33919501D01*
X9730437Y33919500D01*
X9730438Y33919500D01*
X9809563Y33919500D01*
X9809563Y33919501D01*
X9885989Y33939979D01*
X9954511Y33979540D01*
X10010460Y34035489D01*
X10050021Y34104011D01*
X10070500Y34180438D01*
X10070500Y34259562D01*
X10050021Y34335989D01*
X10010460Y34404511D01*
X9954511Y34460460D01*
X9954508Y34460462D01*
X9885992Y34500020D01*
X9885988Y34500022D01*
X9809564Y34520500D01*
X9809562Y34520500D01*
X9730438Y34520500D01*
X9730435Y34520500D01*
X9654011Y34500022D01*
X9654007Y34500020D01*
X9585491Y34460462D01*
X9529538Y34404509D01*
X9489980Y34335993D01*
X9489978Y34335989D01*
X9469500Y34259565D01*
X500500Y34259565D01*
X500500Y34776144D01*
X50899500Y34776144D01*
X50899500Y34683856D01*
X50923386Y34594712D01*
X50969531Y34514788D01*
X51034788Y34449531D01*
X51114712Y34403386D01*
X51203856Y34379500D01*
X51203858Y34379500D01*
X51296142Y34379500D01*
X51296144Y34379500D01*
X51385288Y34403386D01*
X51465212Y34449531D01*
X51530469Y34514788D01*
X51576614Y34594712D01*
X51600500Y34683856D01*
X51600500Y34776144D01*
X52399500Y34776144D01*
X52399500Y34683856D01*
X52423386Y34594712D01*
X52469531Y34514788D01*
X52534788Y34449531D01*
X52614712Y34403386D01*
X52703856Y34379500D01*
X52703858Y34379500D01*
X52796142Y34379500D01*
X52796144Y34379500D01*
X52885288Y34403386D01*
X52965212Y34449531D01*
X53030469Y34514788D01*
X53076614Y34594712D01*
X53100500Y34683856D01*
X53100500Y34776144D01*
X53076614Y34865288D01*
X53030469Y34945212D01*
X52965212Y35010469D01*
X52957731Y35014788D01*
X52885290Y35056613D01*
X52885289Y35056614D01*
X52885288Y35056614D01*
X52796144Y35080500D01*
X52703856Y35080500D01*
X52614712Y35056614D01*
X52614711Y35056614D01*
X52614709Y35056613D01*
X52534790Y35010471D01*
X52469529Y34945210D01*
X52423387Y34865291D01*
X52423386Y34865289D01*
X52423386Y34865288D01*
X52399500Y34776144D01*
X51600500Y34776144D01*
X51576614Y34865288D01*
X51530469Y34945212D01*
X51465212Y35010469D01*
X51457731Y35014788D01*
X51385290Y35056613D01*
X51385289Y35056614D01*
X51385288Y35056614D01*
X51296144Y35080500D01*
X51203856Y35080500D01*
X51114712Y35056614D01*
X51114711Y35056614D01*
X51114709Y35056613D01*
X51034790Y35010471D01*
X50969529Y34945210D01*
X50923387Y34865291D01*
X50923386Y34865289D01*
X50923386Y34865288D01*
X50899500Y34776144D01*
X500500Y34776144D01*
X500500Y35276144D01*
X51649500Y35276144D01*
X51649500Y35183856D01*
X51673386Y35094712D01*
X51719531Y35014788D01*
X51784788Y34949531D01*
X51864712Y34903386D01*
X51953856Y34879500D01*
X51953858Y34879500D01*
X52046142Y34879500D01*
X52046144Y34879500D01*
X52135288Y34903386D01*
X52215212Y34949531D01*
X52280469Y35014788D01*
X52326614Y35094712D01*
X52350500Y35183856D01*
X52350500Y35276144D01*
X52326614Y35365288D01*
X52280469Y35445212D01*
X52215212Y35510469D01*
X52207731Y35514788D01*
X52135290Y35556613D01*
X52135289Y35556614D01*
X52135288Y35556614D01*
X52046144Y35580500D01*
X51953856Y35580500D01*
X51864712Y35556614D01*
X51864711Y35556614D01*
X51864709Y35556613D01*
X51784790Y35510471D01*
X51719529Y35445210D01*
X51673387Y35365291D01*
X51673386Y35365289D01*
X51673386Y35365288D01*
X51649500Y35276144D01*
X500500Y35276144D01*
X500500Y35776144D01*
X50899500Y35776144D01*
X50899500Y35683856D01*
X50908438Y35650500D01*
X50923387Y35594710D01*
X50961210Y35529199D01*
X50969531Y35514788D01*
X51034788Y35449531D01*
X51114712Y35403386D01*
X51203856Y35379500D01*
X51203858Y35379500D01*
X51296142Y35379500D01*
X51296144Y35379500D01*
X51385288Y35403386D01*
X51465212Y35449531D01*
X51530469Y35514788D01*
X51576614Y35594712D01*
X51600500Y35683856D01*
X51600500Y35776144D01*
X52399500Y35776144D01*
X52399500Y35683856D01*
X52408438Y35650500D01*
X52423387Y35594710D01*
X52461210Y35529199D01*
X52469531Y35514788D01*
X52534788Y35449531D01*
X52614712Y35403386D01*
X52703856Y35379500D01*
X52703858Y35379500D01*
X52796142Y35379500D01*
X52796144Y35379500D01*
X52885288Y35403386D01*
X52965212Y35449531D01*
X53030469Y35514788D01*
X53076614Y35594712D01*
X53100500Y35683856D01*
X53100500Y35776144D01*
X53076614Y35865288D01*
X53030469Y35945212D01*
X52965212Y36010469D01*
X52912456Y36040928D01*
X52885290Y36056613D01*
X52885289Y36056614D01*
X52885288Y36056614D01*
X52796144Y36080500D01*
X52703856Y36080500D01*
X52614712Y36056614D01*
X52614711Y36056614D01*
X52614709Y36056613D01*
X52534790Y36010471D01*
X52469529Y35945210D01*
X52423387Y35865291D01*
X52423386Y35865289D01*
X52423386Y35865288D01*
X52399500Y35776144D01*
X51600500Y35776144D01*
X51576614Y35865288D01*
X51530469Y35945212D01*
X51465212Y36010469D01*
X51412456Y36040928D01*
X51385290Y36056613D01*
X51385289Y36056614D01*
X51385288Y36056614D01*
X51296144Y36080500D01*
X51203856Y36080500D01*
X51114712Y36056614D01*
X51114711Y36056614D01*
X51114709Y36056613D01*
X51034790Y36010471D01*
X50969529Y35945210D01*
X50923387Y35865291D01*
X50923386Y35865289D01*
X50923386Y35865288D01*
X50899500Y35776144D01*
X500500Y35776144D01*
X500500Y37619565D01*
X18679500Y37619565D01*
X18679500Y37540436D01*
X18699978Y37464012D01*
X18699980Y37464008D01*
X18739538Y37395492D01*
X18739540Y37395489D01*
X18795489Y37339540D01*
X18795491Y37339539D01*
X18864007Y37299981D01*
X18864011Y37299979D01*
X18940435Y37279501D01*
X18940437Y37279500D01*
X18940438Y37279500D01*
X19019563Y37279500D01*
X19019563Y37279501D01*
X19095989Y37299979D01*
X19164511Y37339540D01*
X19220460Y37395489D01*
X19260021Y37464011D01*
X19280500Y37540438D01*
X19280500Y37619562D01*
X19260021Y37695989D01*
X19220460Y37764511D01*
X19164511Y37820460D01*
X19164508Y37820462D01*
X19095992Y37860020D01*
X19095988Y37860022D01*
X19019564Y37880500D01*
X19019562Y37880500D01*
X18940438Y37880500D01*
X18940435Y37880500D01*
X18864011Y37860022D01*
X18864007Y37860020D01*
X18795491Y37820462D01*
X18739538Y37764509D01*
X18699980Y37695993D01*
X18699978Y37695989D01*
X18679500Y37619565D01*
X500500Y37619565D01*
X500500Y38589565D01*
X50789500Y38589565D01*
X50789500Y38510436D01*
X50809978Y38434012D01*
X50809980Y38434008D01*
X50815752Y38424011D01*
X50849540Y38365489D01*
X50905489Y38309540D01*
X50921973Y38300023D01*
X50974007Y38269981D01*
X50974011Y38269979D01*
X51050435Y38249501D01*
X51050437Y38249500D01*
X51050438Y38249500D01*
X51129563Y38249500D01*
X51129563Y38249501D01*
X51205989Y38269979D01*
X51274511Y38309540D01*
X51330460Y38365489D01*
X51370021Y38434011D01*
X51390500Y38510438D01*
X51390500Y38579565D01*
X52699500Y38579565D01*
X52699500Y38500436D01*
X52719978Y38424012D01*
X52719980Y38424008D01*
X52759538Y38355492D01*
X52759540Y38355489D01*
X52815489Y38299540D01*
X52838329Y38286353D01*
X52884007Y38259981D01*
X52884011Y38259979D01*
X52960435Y38239501D01*
X52960437Y38239500D01*
X52960438Y38239500D01*
X53039563Y38239500D01*
X53039563Y38239501D01*
X53115989Y38259979D01*
X53184511Y38299540D01*
X53240460Y38355489D01*
X53280021Y38424011D01*
X53300500Y38500438D01*
X53300500Y38579562D01*
X53280021Y38655989D01*
X53240460Y38724511D01*
X53184511Y38780460D01*
X53184508Y38780462D01*
X53115992Y38820020D01*
X53115988Y38820022D01*
X53039564Y38840500D01*
X53039562Y38840500D01*
X52960438Y38840500D01*
X52960435Y38840500D01*
X52884011Y38820022D01*
X52884007Y38820020D01*
X52815491Y38780462D01*
X52759538Y38724509D01*
X52719980Y38655993D01*
X52719978Y38655989D01*
X52699500Y38579565D01*
X51390500Y38579565D01*
X51390500Y38589562D01*
X51370021Y38665989D01*
X51330460Y38734511D01*
X51274511Y38790460D01*
X51274508Y38790462D01*
X51205992Y38830020D01*
X51205988Y38830022D01*
X51129564Y38850500D01*
X51129562Y38850500D01*
X51050438Y38850500D01*
X51050435Y38850500D01*
X50974011Y38830022D01*
X50974007Y38830020D01*
X50905491Y38790462D01*
X50849538Y38734509D01*
X50809980Y38665993D01*
X50809978Y38665989D01*
X50789500Y38589565D01*
X500500Y38589565D01*
X500500Y40549565D01*
X47549500Y40549565D01*
X47549500Y40470436D01*
X47569978Y40394012D01*
X47569980Y40394008D01*
X47609538Y40325492D01*
X47609540Y40325489D01*
X47665489Y40269540D01*
X47665491Y40269539D01*
X47734007Y40229981D01*
X47734011Y40229979D01*
X47810435Y40209501D01*
X47810437Y40209500D01*
X47810438Y40209500D01*
X47889563Y40209500D01*
X47889563Y40209501D01*
X47965989Y40229979D01*
X48034511Y40269540D01*
X48090460Y40325489D01*
X48130021Y40394011D01*
X48150500Y40470438D01*
X48150500Y40529565D01*
X55819500Y40529565D01*
X55819500Y40450436D01*
X55839978Y40374012D01*
X55839980Y40374008D01*
X55867991Y40325492D01*
X55879540Y40305489D01*
X55935489Y40249540D01*
X55935491Y40249539D01*
X56004007Y40209981D01*
X56004011Y40209979D01*
X56080435Y40189501D01*
X56080437Y40189500D01*
X56080438Y40189500D01*
X56159563Y40189500D01*
X56159563Y40189501D01*
X56235989Y40209979D01*
X56304511Y40249540D01*
X56360460Y40305489D01*
X56400021Y40374011D01*
X56420500Y40450438D01*
X56420500Y40529562D01*
X56400021Y40605989D01*
X56360460Y40674511D01*
X56304511Y40730460D01*
X56304508Y40730462D01*
X56235992Y40770020D01*
X56235988Y40770022D01*
X56159564Y40790500D01*
X56159562Y40790500D01*
X56080438Y40790500D01*
X56080435Y40790500D01*
X56004011Y40770022D01*
X56004007Y40770020D01*
X55935491Y40730462D01*
X55879538Y40674509D01*
X55839980Y40605993D01*
X55839978Y40605989D01*
X55819500Y40529565D01*
X48150500Y40529565D01*
X48150500Y40549562D01*
X48130021Y40625989D01*
X48090460Y40694511D01*
X48034511Y40750460D01*
X48034508Y40750462D01*
X47965992Y40790020D01*
X47965988Y40790022D01*
X47889564Y40810500D01*
X47889562Y40810500D01*
X47810438Y40810500D01*
X47810435Y40810500D01*
X47734011Y40790022D01*
X47734007Y40790020D01*
X47665491Y40750462D01*
X47609538Y40694509D01*
X47569980Y40625993D01*
X47569978Y40625989D01*
X47549500Y40549565D01*
X500500Y40549565D01*
X500500Y44539565D01*
X48949500Y44539565D01*
X48949500Y44460436D01*
X48969978Y44384012D01*
X48969980Y44384008D01*
X49009538Y44315492D01*
X49009540Y44315489D01*
X49065489Y44259540D01*
X49065491Y44259539D01*
X49134007Y44219981D01*
X49134011Y44219979D01*
X49210435Y44199501D01*
X49210437Y44199500D01*
X49210438Y44199500D01*
X49289563Y44199500D01*
X49289563Y44199501D01*
X49365989Y44219979D01*
X49434511Y44259540D01*
X49490460Y44315489D01*
X49504360Y44339565D01*
X84899500Y44339565D01*
X84899500Y44260436D01*
X84919978Y44184012D01*
X84919980Y44184008D01*
X84959538Y44115492D01*
X84959540Y44115489D01*
X85005027Y44070002D01*
X85032803Y44015487D01*
X85023232Y43955055D01*
X85005028Y43930000D01*
X84959540Y43884511D01*
X84959538Y43884509D01*
X84919980Y43815993D01*
X84919978Y43815989D01*
X84899500Y43739565D01*
X84899500Y43660436D01*
X84919978Y43584012D01*
X84919980Y43584008D01*
X84959538Y43515492D01*
X84959540Y43515489D01*
X85005027Y43470002D01*
X85032803Y43415487D01*
X85023232Y43355055D01*
X85005028Y43330000D01*
X84959540Y43284511D01*
X84959538Y43284509D01*
X84919980Y43215993D01*
X84919978Y43215989D01*
X84899500Y43139565D01*
X84899500Y43060436D01*
X84919978Y42984012D01*
X84919980Y42984008D01*
X84959538Y42915492D01*
X84959540Y42915489D01*
X85015489Y42859540D01*
X85015491Y42859539D01*
X85084007Y42819981D01*
X85084011Y42819979D01*
X85160435Y42799501D01*
X85160437Y42799500D01*
X85160438Y42799500D01*
X85239563Y42799500D01*
X85239563Y42799501D01*
X85315989Y42819979D01*
X85384511Y42859540D01*
X85440460Y42915489D01*
X85480021Y42984011D01*
X85500500Y43060438D01*
X85500500Y43139562D01*
X85480021Y43215989D01*
X85440460Y43284511D01*
X85394972Y43329999D01*
X85367197Y43384513D01*
X85376768Y43444945D01*
X85394971Y43470001D01*
X85440460Y43515489D01*
X85480021Y43584011D01*
X85500500Y43660438D01*
X85500500Y43739562D01*
X85480021Y43815989D01*
X85440460Y43884511D01*
X85394972Y43929999D01*
X85367197Y43984513D01*
X85376768Y44044945D01*
X85394971Y44070001D01*
X85440460Y44115489D01*
X85480021Y44184011D01*
X85500500Y44260438D01*
X85500500Y44339562D01*
X85500499Y44339565D01*
X85799500Y44339565D01*
X85799500Y44260436D01*
X85819978Y44184012D01*
X85819980Y44184008D01*
X85859538Y44115492D01*
X85859540Y44115489D01*
X85915489Y44059540D01*
X85915491Y44059539D01*
X85984007Y44019981D01*
X85984011Y44019979D01*
X86060435Y43999501D01*
X86060437Y43999500D01*
X86060438Y43999500D01*
X86139563Y43999500D01*
X86139563Y43999501D01*
X86215989Y44019979D01*
X86284511Y44059540D01*
X86340460Y44115489D01*
X86380021Y44184011D01*
X86400500Y44260438D01*
X86400500Y44339562D01*
X86400499Y44339565D01*
X86799500Y44339565D01*
X86799500Y44260436D01*
X86819978Y44184012D01*
X86819980Y44184008D01*
X86859538Y44115492D01*
X86859540Y44115489D01*
X86915489Y44059540D01*
X86915491Y44059539D01*
X86984007Y44019981D01*
X86984011Y44019979D01*
X87060435Y43999501D01*
X87060437Y43999500D01*
X87060438Y43999500D01*
X87139563Y43999500D01*
X87139563Y43999501D01*
X87215989Y44019979D01*
X87284511Y44059540D01*
X87340460Y44115489D01*
X87380021Y44184011D01*
X87400500Y44260438D01*
X87400500Y44339562D01*
X87380021Y44415989D01*
X87340460Y44484511D01*
X87284511Y44540460D01*
X87284508Y44540462D01*
X87215992Y44580020D01*
X87215988Y44580022D01*
X87139564Y44600500D01*
X87139562Y44600500D01*
X87060438Y44600500D01*
X87060435Y44600500D01*
X86984011Y44580022D01*
X86984007Y44580020D01*
X86915491Y44540462D01*
X86859538Y44484509D01*
X86819980Y44415993D01*
X86819978Y44415989D01*
X86799500Y44339565D01*
X86400499Y44339565D01*
X86380021Y44415989D01*
X86340460Y44484511D01*
X86284511Y44540460D01*
X86284508Y44540462D01*
X86215992Y44580020D01*
X86215988Y44580022D01*
X86139564Y44600500D01*
X86139562Y44600500D01*
X86060438Y44600500D01*
X86060435Y44600500D01*
X85984011Y44580022D01*
X85984007Y44580020D01*
X85915491Y44540462D01*
X85859538Y44484509D01*
X85819980Y44415993D01*
X85819978Y44415989D01*
X85799500Y44339565D01*
X85500499Y44339565D01*
X85480021Y44415989D01*
X85440460Y44484511D01*
X85384511Y44540460D01*
X85384508Y44540462D01*
X85315992Y44580020D01*
X85315988Y44580022D01*
X85239564Y44600500D01*
X85239562Y44600500D01*
X85160438Y44600500D01*
X85160435Y44600500D01*
X85084011Y44580022D01*
X85084007Y44580020D01*
X85015491Y44540462D01*
X84959538Y44484509D01*
X84919980Y44415993D01*
X84919978Y44415989D01*
X84899500Y44339565D01*
X49504360Y44339565D01*
X49530021Y44384011D01*
X49550500Y44460438D01*
X49550500Y44539562D01*
X49530021Y44615989D01*
X49490460Y44684511D01*
X49434511Y44740460D01*
X49434508Y44740462D01*
X49365992Y44780020D01*
X49365988Y44780022D01*
X49293053Y44799565D01*
X53899500Y44799565D01*
X53899500Y44720436D01*
X53919978Y44644012D01*
X53919980Y44644008D01*
X53936155Y44615993D01*
X53959540Y44575489D01*
X54015489Y44519540D01*
X54015491Y44519539D01*
X54084007Y44479981D01*
X54084011Y44479979D01*
X54160435Y44459501D01*
X54160437Y44459500D01*
X54160438Y44459500D01*
X54239563Y44459500D01*
X54239563Y44459501D01*
X54315989Y44479979D01*
X54384511Y44519540D01*
X54440460Y44575489D01*
X54480021Y44644011D01*
X54500500Y44720438D01*
X54500500Y44799562D01*
X54480021Y44875989D01*
X54440460Y44944511D01*
X54384511Y45000460D01*
X54384508Y45000462D01*
X54315992Y45040020D01*
X54315988Y45040022D01*
X54239564Y45060500D01*
X54239562Y45060500D01*
X54160438Y45060500D01*
X54160435Y45060500D01*
X54084011Y45040022D01*
X54084007Y45040020D01*
X54015491Y45000462D01*
X53959538Y44944509D01*
X53919980Y44875993D01*
X53919978Y44875989D01*
X53899500Y44799565D01*
X49293053Y44799565D01*
X49289564Y44800500D01*
X49289562Y44800500D01*
X49210438Y44800500D01*
X49210435Y44800500D01*
X49134011Y44780022D01*
X49134007Y44780020D01*
X49065491Y44740462D01*
X49009538Y44684509D01*
X48969980Y44615993D01*
X48969978Y44615989D01*
X48949500Y44539565D01*
X500500Y44539565D01*
X500500Y46739565D01*
X75449500Y46739565D01*
X75449500Y46660436D01*
X75469978Y46584012D01*
X75469980Y46584008D01*
X75509538Y46515492D01*
X75509540Y46515489D01*
X75555027Y46470002D01*
X75582803Y46415487D01*
X75573232Y46355055D01*
X75555028Y46330000D01*
X75509540Y46284511D01*
X75509538Y46284509D01*
X75469980Y46215993D01*
X75469978Y46215989D01*
X75449500Y46139565D01*
X75449500Y46060436D01*
X75469978Y45984012D01*
X75469980Y45984008D01*
X75509538Y45915492D01*
X75509540Y45915489D01*
X75565489Y45859540D01*
X75565491Y45859539D01*
X75634007Y45819981D01*
X75634011Y45819979D01*
X75710435Y45799501D01*
X75710437Y45799500D01*
X75710438Y45799500D01*
X75789563Y45799500D01*
X75789563Y45799501D01*
X75865989Y45819979D01*
X75934511Y45859540D01*
X75990460Y45915489D01*
X76030021Y45984011D01*
X76050500Y46060438D01*
X76050500Y46139562D01*
X76030021Y46215989D01*
X75990460Y46284511D01*
X75944972Y46329999D01*
X75917197Y46384513D01*
X75926768Y46444945D01*
X75944971Y46470001D01*
X75990460Y46515489D01*
X76030021Y46584011D01*
X76050500Y46660438D01*
X76050500Y46739562D01*
X76040206Y46777979D01*
X76043408Y46839079D01*
X76081913Y46886629D01*
X76141014Y46902465D01*
X76156246Y46900052D01*
X76160437Y46899500D01*
X76160438Y46899500D01*
X76239563Y46899500D01*
X76239563Y46899501D01*
X76315989Y46919979D01*
X76384511Y46959540D01*
X76440460Y47015489D01*
X76454125Y47039159D01*
X76464264Y47056718D01*
X76509733Y47097659D01*
X76570584Y47104055D01*
X76623572Y47073462D01*
X76635736Y47056718D01*
X76659538Y47015492D01*
X76659540Y47015489D01*
X76715489Y46959540D01*
X76715491Y46959539D01*
X76784007Y46919981D01*
X76784011Y46919979D01*
X76860435Y46899501D01*
X76860437Y46899500D01*
X76860438Y46899500D01*
X76939563Y46899500D01*
X76939563Y46899501D01*
X77015989Y46919979D01*
X77084511Y46959540D01*
X77140460Y47015489D01*
X77154125Y47039159D01*
X77164264Y47056718D01*
X77209733Y47097659D01*
X77270584Y47104055D01*
X77323572Y47073462D01*
X77335736Y47056718D01*
X77359538Y47015492D01*
X77359540Y47015489D01*
X77415489Y46959540D01*
X77415491Y46959539D01*
X77484007Y46919981D01*
X77484011Y46919979D01*
X77560435Y46899501D01*
X77560437Y46899500D01*
X77560438Y46899500D01*
X77639563Y46899500D01*
X77639563Y46899501D01*
X77715989Y46919979D01*
X77784511Y46959540D01*
X77840460Y47015489D01*
X77880021Y47084011D01*
X77900500Y47160438D01*
X77900500Y47239562D01*
X77880021Y47315989D01*
X77873929Y47326540D01*
X77840461Y47384509D01*
X77840460Y47384511D01*
X77784511Y47440460D01*
X77784508Y47440462D01*
X77715992Y47480020D01*
X77715988Y47480022D01*
X77639564Y47500500D01*
X77639562Y47500500D01*
X77560438Y47500500D01*
X77560435Y47500500D01*
X77484011Y47480022D01*
X77484007Y47480020D01*
X77415491Y47440462D01*
X77359539Y47384510D01*
X77335736Y47343282D01*
X77290266Y47302341D01*
X77229415Y47295947D01*
X77176428Y47326540D01*
X77164264Y47343282D01*
X77140461Y47384509D01*
X77140460Y47384511D01*
X77084511Y47440460D01*
X77084508Y47440462D01*
X77015992Y47480020D01*
X77015988Y47480022D01*
X76939564Y47500500D01*
X76939562Y47500500D01*
X76860438Y47500500D01*
X76860435Y47500500D01*
X76784011Y47480022D01*
X76784007Y47480020D01*
X76715491Y47440462D01*
X76659539Y47384510D01*
X76635736Y47343282D01*
X76590266Y47302341D01*
X76529415Y47295947D01*
X76476428Y47326540D01*
X76464264Y47343282D01*
X76440461Y47384509D01*
X76440460Y47384511D01*
X76384511Y47440460D01*
X76384508Y47440462D01*
X76315992Y47480020D01*
X76315988Y47480022D01*
X76239564Y47500500D01*
X76239562Y47500500D01*
X76160438Y47500500D01*
X76160435Y47500500D01*
X76084011Y47480022D01*
X76084007Y47480020D01*
X76015491Y47440462D01*
X75959538Y47384509D01*
X75919980Y47315993D01*
X75919978Y47315989D01*
X75899500Y47239565D01*
X75899500Y47160438D01*
X75899499Y47160438D01*
X75909793Y47122022D01*
X75906590Y47060921D01*
X75868084Y47013371D01*
X75808984Y46997536D01*
X75793725Y46999952D01*
X75789562Y47000500D01*
X75710438Y47000500D01*
X75710435Y47000500D01*
X75634011Y46980022D01*
X75634007Y46980020D01*
X75565491Y46940462D01*
X75509538Y46884509D01*
X75469980Y46815993D01*
X75469978Y46815989D01*
X75449500Y46739565D01*
X500500Y46739565D01*
X500500Y47169565D01*
X50709500Y47169565D01*
X50709500Y47090436D01*
X50729978Y47014012D01*
X50729980Y47014008D01*
X50761428Y46959539D01*
X50769540Y46945489D01*
X50825489Y46889540D01*
X50825491Y46889539D01*
X50894007Y46849981D01*
X50894011Y46849979D01*
X50970435Y46829501D01*
X50970437Y46829500D01*
X50970438Y46829500D01*
X51049560Y46829500D01*
X51049562Y46829500D01*
X51095012Y46841679D01*
X51095015Y46841679D01*
X51112782Y46846441D01*
X51125989Y46849979D01*
X51194511Y46889540D01*
X51250460Y46945489D01*
X51290021Y47014011D01*
X51310500Y47090438D01*
X51310500Y47169562D01*
X51290021Y47245989D01*
X51290018Y47245996D01*
X51250461Y47314509D01*
X51250460Y47314511D01*
X51194511Y47370460D01*
X51194508Y47370462D01*
X51125992Y47410020D01*
X51125988Y47410022D01*
X51053147Y47429540D01*
X53999525Y47429540D01*
X53999525Y47350411D01*
X54020003Y47273987D01*
X54020005Y47273983D01*
X54059563Y47205467D01*
X54059565Y47205464D01*
X54115514Y47149515D01*
X54115516Y47149514D01*
X54184032Y47109956D01*
X54184036Y47109954D01*
X54260460Y47089476D01*
X54260462Y47089475D01*
X54260463Y47089475D01*
X54339588Y47089475D01*
X54339588Y47089476D01*
X54416014Y47109954D01*
X54484536Y47149515D01*
X54540485Y47205464D01*
X54580046Y47273986D01*
X54600525Y47350413D01*
X54600525Y47429537D01*
X54580046Y47505964D01*
X54540485Y47574486D01*
X54484536Y47630435D01*
X54484533Y47630437D01*
X54416017Y47669995D01*
X54416013Y47669997D01*
X54339589Y47690475D01*
X54339587Y47690475D01*
X54260463Y47690475D01*
X54260460Y47690475D01*
X54184036Y47669997D01*
X54184032Y47669995D01*
X54115516Y47630437D01*
X54059563Y47574484D01*
X54020005Y47505968D01*
X54020003Y47505964D01*
X53999525Y47429540D01*
X51053147Y47429540D01*
X51049564Y47430500D01*
X51049562Y47430500D01*
X50970438Y47430500D01*
X50970435Y47430500D01*
X50894011Y47410022D01*
X50894007Y47410020D01*
X50825491Y47370462D01*
X50769538Y47314509D01*
X50729982Y47245996D01*
X50729978Y47245989D01*
X50709500Y47169565D01*
X500500Y47169565D01*
X500500Y48539565D01*
X49449500Y48539565D01*
X49449500Y48460436D01*
X49469978Y48384012D01*
X49469980Y48384008D01*
X49493715Y48342898D01*
X49509540Y48315489D01*
X49565489Y48259540D01*
X49565491Y48259539D01*
X49634007Y48219981D01*
X49634011Y48219979D01*
X49710435Y48199501D01*
X49710437Y48199500D01*
X49710438Y48199500D01*
X49789563Y48199500D01*
X49789563Y48199501D01*
X49865989Y48219979D01*
X49934511Y48259540D01*
X49990460Y48315489D01*
X50030021Y48384011D01*
X50050500Y48460438D01*
X50050500Y48539562D01*
X50030021Y48615989D01*
X49990460Y48684511D01*
X49934511Y48740460D01*
X49934508Y48740462D01*
X49865992Y48780020D01*
X49865988Y48780022D01*
X49789564Y48800500D01*
X49789562Y48800500D01*
X49710438Y48800500D01*
X49710435Y48800500D01*
X49634011Y48780022D01*
X49634007Y48780020D01*
X49565491Y48740462D01*
X49509538Y48684509D01*
X49469980Y48615993D01*
X49469978Y48615989D01*
X49449500Y48539565D01*
X500500Y48539565D01*
X500500Y49559565D01*
X9499500Y49559565D01*
X9499500Y49480436D01*
X9519978Y49404012D01*
X9519980Y49404008D01*
X9559538Y49335492D01*
X9559540Y49335489D01*
X9615489Y49279540D01*
X9615491Y49279539D01*
X9684007Y49239981D01*
X9684011Y49239979D01*
X9760435Y49219501D01*
X9760437Y49219500D01*
X9760438Y49219500D01*
X9839563Y49219500D01*
X9839563Y49219501D01*
X9915989Y49239979D01*
X9984511Y49279540D01*
X10040460Y49335489D01*
X10080021Y49404011D01*
X10100500Y49480438D01*
X10100500Y49559562D01*
X10080021Y49635989D01*
X10040460Y49704511D01*
X9984511Y49760460D01*
X9984508Y49760462D01*
X9915992Y49800020D01*
X9915988Y49800022D01*
X9839564Y49820500D01*
X9839562Y49820500D01*
X9760438Y49820500D01*
X9760435Y49820500D01*
X9684011Y49800022D01*
X9684007Y49800020D01*
X9615491Y49760462D01*
X9559538Y49704509D01*
X9519980Y49635993D01*
X9519978Y49635989D01*
X9499500Y49559565D01*
X500500Y49559565D01*
X500500Y50419565D01*
X9499500Y50419565D01*
X9499500Y50340436D01*
X9519978Y50264012D01*
X9519980Y50264008D01*
X9557224Y50199500D01*
X9559540Y50195489D01*
X9615489Y50139540D01*
X9615491Y50139539D01*
X9684007Y50099981D01*
X9684011Y50099979D01*
X9760435Y50079501D01*
X9760437Y50079500D01*
X9760438Y50079500D01*
X9839563Y50079500D01*
X9839563Y50079501D01*
X9915989Y50099979D01*
X9984511Y50139540D01*
X10034280Y50189309D01*
X51479500Y50189309D01*
X51479500Y50070691D01*
X51506574Y49969649D01*
X51510202Y49956110D01*
X51569507Y49853392D01*
X51569508Y49853391D01*
X51569509Y49853390D01*
X51569511Y49853387D01*
X51597894Y49825004D01*
X51597895Y49825003D01*
X51625671Y49770486D01*
X51616099Y49710054D01*
X51597895Y49684997D01*
X51569507Y49656609D01*
X51510202Y49553891D01*
X51510201Y49553886D01*
X51479500Y49439309D01*
X51479500Y49320691D01*
X51490527Y49279539D01*
X51510202Y49206110D01*
X51569507Y49103392D01*
X51569508Y49103391D01*
X51569509Y49103390D01*
X51569511Y49103387D01*
X51597894Y49075004D01*
X51597895Y49075003D01*
X51625671Y49020486D01*
X51616099Y48960054D01*
X51597895Y48934997D01*
X51569507Y48906609D01*
X51510202Y48803891D01*
X51503806Y48780021D01*
X51479500Y48689309D01*
X51479500Y48570691D01*
X51487841Y48539563D01*
X51510202Y48456110D01*
X51569507Y48353392D01*
X51569509Y48353390D01*
X51569511Y48353387D01*
X51653387Y48269511D01*
X51653389Y48269510D01*
X51653391Y48269508D01*
X51756110Y48210203D01*
X51756111Y48210203D01*
X51756114Y48210201D01*
X51870691Y48179500D01*
X51870693Y48179500D01*
X51989307Y48179500D01*
X51989309Y48179500D01*
X52103886Y48210201D01*
X52103888Y48210203D01*
X52103890Y48210203D01*
X52206608Y48269508D01*
X52206608Y48269509D01*
X52206613Y48269511D01*
X52209998Y48272897D01*
X52264513Y48300672D01*
X52324945Y48291101D01*
X52350000Y48272898D01*
X52353387Y48269511D01*
X52353389Y48269510D01*
X52353391Y48269508D01*
X52456110Y48210203D01*
X52456111Y48210203D01*
X52456114Y48210201D01*
X52570691Y48179500D01*
X52570693Y48179500D01*
X52689307Y48179500D01*
X52689309Y48179500D01*
X52803886Y48210201D01*
X52803888Y48210203D01*
X52803890Y48210203D01*
X52906608Y48269508D01*
X52906608Y48269509D01*
X52906613Y48269511D01*
X52990489Y48353387D01*
X53049799Y48456114D01*
X53080500Y48570691D01*
X53080500Y48689309D01*
X53049799Y48803886D01*
X53049797Y48803889D01*
X53049797Y48803891D01*
X52990492Y48906609D01*
X52990490Y48906611D01*
X52990489Y48906613D01*
X52962103Y48934999D01*
X52934328Y48989513D01*
X52943899Y49049945D01*
X52962102Y49075001D01*
X52990489Y49103387D01*
X53049799Y49206114D01*
X53080500Y49320691D01*
X53080500Y49439309D01*
X53049799Y49553886D01*
X53049797Y49553889D01*
X53049797Y49553891D01*
X52990492Y49656609D01*
X52990490Y49656611D01*
X52990489Y49656613D01*
X52962103Y49684999D01*
X52934328Y49739513D01*
X52943899Y49799945D01*
X52962102Y49825001D01*
X52990489Y49853387D01*
X53049799Y49956114D01*
X53080500Y50070691D01*
X53080500Y50189309D01*
X53049799Y50303886D01*
X53049797Y50303889D01*
X53049797Y50303891D01*
X52990492Y50406609D01*
X52990490Y50406611D01*
X52990489Y50406613D01*
X52906613Y50490489D01*
X52906610Y50490491D01*
X52906608Y50490493D01*
X52803889Y50549798D01*
X52803890Y50549798D01*
X52790351Y50553426D01*
X52689309Y50580500D01*
X52570691Y50580500D01*
X52511020Y50564511D01*
X52456109Y50549798D01*
X52353391Y50490493D01*
X52353383Y50490487D01*
X52349999Y50487102D01*
X52295481Y50459328D01*
X52235049Y50468903D01*
X52210001Y50487102D01*
X52206616Y50490487D01*
X52206608Y50490493D01*
X52103889Y50549798D01*
X52103890Y50549798D01*
X52090351Y50553426D01*
X51989309Y50580500D01*
X51870691Y50580500D01*
X51811020Y50564511D01*
X51756109Y50549798D01*
X51653391Y50490493D01*
X51569507Y50406609D01*
X51510202Y50303891D01*
X51510201Y50303886D01*
X51479500Y50189309D01*
X10034280Y50189309D01*
X10040460Y50195489D01*
X10080021Y50264011D01*
X10100500Y50340438D01*
X10100500Y50419562D01*
X10080021Y50495989D01*
X10079699Y50496547D01*
X10079698Y50496550D01*
X10079697Y50496551D01*
X10054862Y50539565D01*
X23699500Y50539565D01*
X23699500Y50460436D01*
X23719978Y50384012D01*
X23719980Y50384008D01*
X23759538Y50315492D01*
X23759540Y50315489D01*
X23815489Y50259540D01*
X23815491Y50259539D01*
X23884007Y50219981D01*
X23884011Y50219979D01*
X23960435Y50199501D01*
X23960437Y50199500D01*
X23960438Y50199500D01*
X24039563Y50199500D01*
X24039563Y50199501D01*
X24115989Y50219979D01*
X24184511Y50259540D01*
X24240460Y50315489D01*
X24280021Y50384011D01*
X24300500Y50460438D01*
X24300500Y50539562D01*
X24280021Y50615989D01*
X24240460Y50684511D01*
X24184511Y50740460D01*
X24184508Y50740462D01*
X24115992Y50780020D01*
X24115988Y50780022D01*
X24039564Y50800500D01*
X24039562Y50800500D01*
X23960438Y50800500D01*
X23960435Y50800500D01*
X23884011Y50780022D01*
X23884007Y50780020D01*
X23815491Y50740462D01*
X23759538Y50684509D01*
X23719980Y50615993D01*
X23719978Y50615989D01*
X23699500Y50539565D01*
X10054862Y50539565D01*
X10050188Y50547661D01*
X10040460Y50564511D01*
X9984511Y50620460D01*
X9984508Y50620462D01*
X9915992Y50660020D01*
X9915988Y50660022D01*
X9839564Y50680500D01*
X9839562Y50680500D01*
X9760438Y50680500D01*
X9760435Y50680500D01*
X9684011Y50660022D01*
X9684007Y50660020D01*
X9615491Y50620462D01*
X9559538Y50564509D01*
X9519980Y50495993D01*
X9519978Y50495989D01*
X9499500Y50419565D01*
X500500Y50419565D01*
X500500Y51529565D01*
X27479500Y51529565D01*
X27479500Y51450436D01*
X27499978Y51374012D01*
X27499980Y51374008D01*
X27539538Y51305492D01*
X27539540Y51305489D01*
X27595489Y51249540D01*
X27595491Y51249539D01*
X27664007Y51209981D01*
X27664011Y51209979D01*
X27740435Y51189501D01*
X27740437Y51189500D01*
X27740438Y51189500D01*
X27819563Y51189500D01*
X27819563Y51189501D01*
X27895989Y51209979D01*
X27964511Y51249540D01*
X28020460Y51305489D01*
X28060021Y51374011D01*
X28080500Y51450438D01*
X28080500Y51529562D01*
X28077820Y51539565D01*
X36989500Y51539565D01*
X36989500Y51460436D01*
X37009978Y51384012D01*
X37009980Y51384008D01*
X37049538Y51315492D01*
X37049540Y51315489D01*
X37105489Y51259540D01*
X37105491Y51259539D01*
X37174007Y51219981D01*
X37174011Y51219979D01*
X37250435Y51199501D01*
X37250437Y51199500D01*
X37250438Y51199500D01*
X37329563Y51199500D01*
X37329563Y51199501D01*
X37405989Y51219979D01*
X37474511Y51259540D01*
X37530460Y51315489D01*
X37570021Y51384011D01*
X37590500Y51460438D01*
X37590500Y51539562D01*
X37572701Y51605989D01*
X37570021Y51615990D01*
X37570019Y51615993D01*
X37556410Y51639565D01*
X53199500Y51639565D01*
X53199500Y51560436D01*
X53219978Y51484012D01*
X53219980Y51484008D01*
X53239362Y51450438D01*
X53259540Y51415489D01*
X53315489Y51359540D01*
X53315491Y51359539D01*
X53384007Y51319981D01*
X53384011Y51319979D01*
X53460435Y51299501D01*
X53460437Y51299500D01*
X53460438Y51299500D01*
X53539563Y51299500D01*
X53539563Y51299501D01*
X53615989Y51319979D01*
X53684511Y51359540D01*
X53740460Y51415489D01*
X53780021Y51484011D01*
X53800500Y51560438D01*
X53800500Y51639562D01*
X53780021Y51715989D01*
X53740460Y51784511D01*
X53684511Y51840460D01*
X53651533Y51859500D01*
X53615992Y51880020D01*
X53615988Y51880022D01*
X53539564Y51900500D01*
X53539562Y51900500D01*
X53460438Y51900500D01*
X53460435Y51900500D01*
X53384011Y51880022D01*
X53384007Y51880020D01*
X53315491Y51840462D01*
X53259538Y51784509D01*
X53219980Y51715993D01*
X53219978Y51715989D01*
X53199500Y51639565D01*
X37556410Y51639565D01*
X37530461Y51684509D01*
X37530460Y51684511D01*
X37474511Y51740460D01*
X37474508Y51740462D01*
X37405992Y51780020D01*
X37405988Y51780022D01*
X37329564Y51800500D01*
X37329562Y51800500D01*
X37250438Y51800500D01*
X37250435Y51800500D01*
X37174011Y51780022D01*
X37174007Y51780020D01*
X37105491Y51740462D01*
X37049538Y51684509D01*
X37009980Y51615993D01*
X37009978Y51615989D01*
X36989500Y51539565D01*
X28077820Y51539565D01*
X28060021Y51605989D01*
X28020460Y51674511D01*
X27964511Y51730460D01*
X27964508Y51730462D01*
X27895992Y51770020D01*
X27895988Y51770022D01*
X27819564Y51790500D01*
X27819562Y51790500D01*
X27740438Y51790500D01*
X27740435Y51790500D01*
X27664011Y51770022D01*
X27664007Y51770020D01*
X27595491Y51730462D01*
X27539538Y51674509D01*
X27499980Y51605993D01*
X27499978Y51605989D01*
X27479500Y51529565D01*
X500500Y51529565D01*
X500500Y52199565D01*
X9439500Y52199565D01*
X9439500Y52120436D01*
X9459978Y52044012D01*
X9459980Y52044008D01*
X9499538Y51975492D01*
X9499540Y51975489D01*
X9555489Y51919540D01*
X9555491Y51919539D01*
X9624007Y51879981D01*
X9624011Y51879979D01*
X9700435Y51859501D01*
X9700437Y51859500D01*
X9700438Y51859500D01*
X9779563Y51859500D01*
X9779563Y51859501D01*
X9855989Y51879979D01*
X9924511Y51919540D01*
X9980460Y51975489D01*
X10020021Y52044011D01*
X10040500Y52120438D01*
X10040500Y52199562D01*
X10020021Y52275989D01*
X9980460Y52344511D01*
X9924511Y52400460D01*
X9924508Y52400462D01*
X9855992Y52440020D01*
X9855988Y52440022D01*
X9779564Y52460500D01*
X9779562Y52460500D01*
X9700438Y52460500D01*
X9700435Y52460500D01*
X9624011Y52440022D01*
X9624007Y52440020D01*
X9555491Y52400462D01*
X9499538Y52344509D01*
X9459980Y52275993D01*
X9459978Y52275989D01*
X9439500Y52199565D01*
X500500Y52199565D01*
X500500Y53059565D01*
X9439500Y53059565D01*
X9439500Y52980436D01*
X9459978Y52904012D01*
X9459980Y52904008D01*
X9499538Y52835492D01*
X9499540Y52835489D01*
X9555489Y52779540D01*
X9555491Y52779539D01*
X9624007Y52739981D01*
X9624011Y52739979D01*
X9700435Y52719501D01*
X9700437Y52719500D01*
X9700438Y52719500D01*
X9779563Y52719500D01*
X9779563Y52719501D01*
X9855989Y52739979D01*
X9924511Y52779540D01*
X9980460Y52835489D01*
X10020021Y52904011D01*
X10040500Y52980438D01*
X10040500Y53059562D01*
X10020021Y53135989D01*
X9980460Y53204511D01*
X9924511Y53260460D01*
X9924508Y53260462D01*
X9855992Y53300020D01*
X9855988Y53300022D01*
X9779564Y53320500D01*
X9779562Y53320500D01*
X9700438Y53320500D01*
X9700435Y53320500D01*
X9624011Y53300022D01*
X9624007Y53300020D01*
X9555491Y53260462D01*
X9499538Y53204509D01*
X9459980Y53135993D01*
X9459978Y53135989D01*
X9439500Y53059565D01*
X500500Y53059565D01*
X500500Y54129565D01*
X39929500Y54129565D01*
X39929500Y54050436D01*
X39949978Y53974012D01*
X39949980Y53974008D01*
X39989538Y53905492D01*
X39989540Y53905489D01*
X40045489Y53849540D01*
X40068329Y53836353D01*
X40114007Y53809981D01*
X40114011Y53809979D01*
X40190435Y53789501D01*
X40190437Y53789500D01*
X40190438Y53789500D01*
X40269563Y53789500D01*
X40269563Y53789501D01*
X40345989Y53809979D01*
X40414511Y53849540D01*
X40470460Y53905489D01*
X40510021Y53974011D01*
X40530500Y54050438D01*
X40530500Y54129562D01*
X40514422Y54189565D01*
X44499500Y54189565D01*
X44499500Y54110436D01*
X44519978Y54034012D01*
X44519980Y54034008D01*
X44559538Y53965492D01*
X44559540Y53965489D01*
X44615489Y53909540D01*
X44622506Y53905489D01*
X44684007Y53869981D01*
X44684011Y53869979D01*
X44760435Y53849501D01*
X44760437Y53849500D01*
X44760438Y53849500D01*
X44839563Y53849500D01*
X44839563Y53849501D01*
X44915989Y53869979D01*
X44984511Y53909540D01*
X45040460Y53965489D01*
X45080021Y54034011D01*
X45100500Y54110438D01*
X45100500Y54189562D01*
X45080021Y54265989D01*
X45080021Y54265990D01*
X45080019Y54265993D01*
X45066410Y54289565D01*
X52459500Y54289565D01*
X52459500Y54210436D01*
X52479978Y54134012D01*
X52479980Y54134008D01*
X52519538Y54065492D01*
X52519540Y54065489D01*
X52575489Y54009540D01*
X52575491Y54009539D01*
X52644007Y53969981D01*
X52644011Y53969979D01*
X52720435Y53949501D01*
X52720437Y53949500D01*
X52720438Y53949500D01*
X52799563Y53949500D01*
X52799563Y53949501D01*
X52875989Y53969979D01*
X52944511Y54009540D01*
X53000460Y54065489D01*
X53040021Y54134011D01*
X53060500Y54210438D01*
X53060500Y54289562D01*
X53040021Y54365989D01*
X53000460Y54434511D01*
X52944511Y54490460D01*
X52944508Y54490462D01*
X52875992Y54530020D01*
X52875988Y54530022D01*
X52799564Y54550500D01*
X52799562Y54550500D01*
X52720438Y54550500D01*
X52720435Y54550500D01*
X52644011Y54530022D01*
X52644007Y54530020D01*
X52575491Y54490462D01*
X52519538Y54434509D01*
X52479980Y54365993D01*
X52479978Y54365989D01*
X52459500Y54289565D01*
X45066410Y54289565D01*
X45040461Y54334509D01*
X45040460Y54334511D01*
X44984511Y54390460D01*
X44984442Y54390500D01*
X44915992Y54430020D01*
X44915988Y54430022D01*
X44839564Y54450500D01*
X44839562Y54450500D01*
X44760438Y54450500D01*
X44760435Y54450500D01*
X44684011Y54430022D01*
X44684007Y54430020D01*
X44615491Y54390462D01*
X44559538Y54334509D01*
X44519980Y54265993D01*
X44519978Y54265989D01*
X44499500Y54189565D01*
X40514422Y54189565D01*
X40510021Y54205989D01*
X40510019Y54205993D01*
X40510019Y54205994D01*
X40470461Y54274509D01*
X40470460Y54274511D01*
X40414511Y54330460D01*
X40407498Y54334509D01*
X40345992Y54370020D01*
X40345988Y54370022D01*
X40269564Y54390500D01*
X40269562Y54390500D01*
X40190438Y54390500D01*
X40190435Y54390500D01*
X40114011Y54370022D01*
X40114007Y54370020D01*
X40045491Y54330462D01*
X39989538Y54274509D01*
X39949980Y54205993D01*
X39949978Y54205989D01*
X39929500Y54129565D01*
X500500Y54129565D01*
X500500Y55379565D01*
X51379500Y55379565D01*
X51379500Y55300436D01*
X51399978Y55224012D01*
X51399980Y55224008D01*
X51439538Y55155492D01*
X51439540Y55155489D01*
X51495489Y55099540D01*
X51495491Y55099539D01*
X51564007Y55059981D01*
X51564011Y55059979D01*
X51640435Y55039501D01*
X51640437Y55039500D01*
X51640438Y55039500D01*
X51719563Y55039500D01*
X51719563Y55039501D01*
X51795989Y55059979D01*
X51864511Y55099540D01*
X51920460Y55155489D01*
X51960021Y55224011D01*
X51980500Y55300438D01*
X51980500Y55379562D01*
X51980499Y55379565D01*
X63219500Y55379565D01*
X63219500Y55300436D01*
X63239978Y55224012D01*
X63239980Y55224008D01*
X63279538Y55155492D01*
X63279540Y55155489D01*
X63335489Y55099540D01*
X63335491Y55099539D01*
X63404007Y55059981D01*
X63404011Y55059979D01*
X63480435Y55039501D01*
X63480437Y55039500D01*
X63480438Y55039500D01*
X63559563Y55039500D01*
X63559563Y55039501D01*
X63635989Y55059979D01*
X63704511Y55099540D01*
X63760460Y55155489D01*
X63800021Y55224011D01*
X63820500Y55300438D01*
X63820500Y55379562D01*
X63800021Y55455989D01*
X63760460Y55524511D01*
X63704511Y55580460D01*
X63704508Y55580462D01*
X63635992Y55620020D01*
X63635988Y55620022D01*
X63559564Y55640500D01*
X63559562Y55640500D01*
X63480438Y55640500D01*
X63480435Y55640500D01*
X63404011Y55620022D01*
X63404007Y55620020D01*
X63335491Y55580462D01*
X63279538Y55524509D01*
X63239980Y55455993D01*
X63239978Y55455989D01*
X63219500Y55379565D01*
X51980499Y55379565D01*
X51960021Y55455989D01*
X51920460Y55524511D01*
X51864511Y55580460D01*
X51864508Y55580462D01*
X51795992Y55620020D01*
X51795988Y55620022D01*
X51719564Y55640500D01*
X51719562Y55640500D01*
X51640438Y55640500D01*
X51640435Y55640500D01*
X51564011Y55620022D01*
X51564007Y55620020D01*
X51495491Y55580462D01*
X51439538Y55524509D01*
X51399980Y55455993D01*
X51399978Y55455989D01*
X51379500Y55379565D01*
X500500Y55379565D01*
X500500Y57659309D01*
X40449500Y57659309D01*
X40449500Y57540691D01*
X40476574Y57439649D01*
X40480202Y57426110D01*
X40539507Y57323392D01*
X40539508Y57323391D01*
X40539509Y57323390D01*
X40539511Y57323387D01*
X40567894Y57295004D01*
X40567895Y57295003D01*
X40595671Y57240486D01*
X40586099Y57180054D01*
X40567895Y57154997D01*
X40539507Y57126609D01*
X40480202Y57023891D01*
X40480201Y57023886D01*
X40449500Y56909309D01*
X40449500Y56790691D01*
X40476574Y56689649D01*
X40480202Y56676110D01*
X40539507Y56573392D01*
X40539508Y56573391D01*
X40539509Y56573390D01*
X40539511Y56573387D01*
X40567894Y56545004D01*
X40567895Y56545003D01*
X40595671Y56490486D01*
X40586099Y56430054D01*
X40567895Y56404997D01*
X40539507Y56376609D01*
X40480202Y56273891D01*
X40480201Y56273886D01*
X40449500Y56159309D01*
X40449500Y56040691D01*
X40476574Y55939649D01*
X40480202Y55926110D01*
X40539507Y55823392D01*
X40539509Y55823390D01*
X40539511Y55823387D01*
X40623387Y55739511D01*
X40623389Y55739510D01*
X40623391Y55739508D01*
X40726110Y55680203D01*
X40726111Y55680203D01*
X40726114Y55680201D01*
X40840691Y55649500D01*
X40840693Y55649500D01*
X40959307Y55649500D01*
X40959309Y55649500D01*
X41073886Y55680201D01*
X41073888Y55680203D01*
X41073890Y55680203D01*
X41176608Y55739508D01*
X41176608Y55739509D01*
X41176613Y55739511D01*
X41179998Y55742897D01*
X41234513Y55770672D01*
X41294945Y55761101D01*
X41320000Y55742898D01*
X41323387Y55739511D01*
X41323389Y55739510D01*
X41323391Y55739508D01*
X41426110Y55680203D01*
X41426111Y55680203D01*
X41426114Y55680201D01*
X41540691Y55649500D01*
X41540693Y55649500D01*
X41659307Y55649500D01*
X41659309Y55649500D01*
X41773886Y55680201D01*
X41773888Y55680203D01*
X41773890Y55680203D01*
X41876608Y55739508D01*
X41876608Y55739509D01*
X41876613Y55739511D01*
X41960489Y55823387D01*
X42019799Y55926114D01*
X42050500Y56040691D01*
X42050500Y56159309D01*
X42019799Y56273886D01*
X42019797Y56273889D01*
X42019797Y56273891D01*
X41960492Y56376609D01*
X41960490Y56376611D01*
X41960489Y56376613D01*
X41932103Y56404999D01*
X41904328Y56459513D01*
X41913899Y56519945D01*
X41932102Y56545001D01*
X41960489Y56573387D01*
X42019799Y56676114D01*
X42050500Y56790691D01*
X42050500Y56909309D01*
X42019799Y57023886D01*
X42019797Y57023889D01*
X42019797Y57023891D01*
X41960492Y57126609D01*
X41960490Y57126611D01*
X41960489Y57126613D01*
X41932103Y57154999D01*
X41904328Y57209513D01*
X41913899Y57269945D01*
X41932102Y57295001D01*
X41960489Y57323387D01*
X42019799Y57426114D01*
X42050500Y57540691D01*
X42050500Y57659309D01*
X42019799Y57773886D01*
X42019797Y57773889D01*
X42019797Y57773891D01*
X41960492Y57876609D01*
X41960490Y57876611D01*
X41960489Y57876613D01*
X41876613Y57960489D01*
X41876610Y57960491D01*
X41876608Y57960493D01*
X41773889Y58019798D01*
X41773890Y58019798D01*
X41760351Y58023426D01*
X41659309Y58050500D01*
X41540691Y58050500D01*
X41470567Y58031711D01*
X41426109Y58019798D01*
X41323391Y57960493D01*
X41323383Y57960487D01*
X41319999Y57957102D01*
X41265481Y57929328D01*
X41205049Y57938903D01*
X41180001Y57957102D01*
X41176616Y57960487D01*
X41176608Y57960493D01*
X41073889Y58019798D01*
X41073890Y58019798D01*
X41060351Y58023426D01*
X40959309Y58050500D01*
X40840691Y58050500D01*
X40770567Y58031711D01*
X40726109Y58019798D01*
X40623391Y57960493D01*
X40539507Y57876609D01*
X40480202Y57773891D01*
X40480201Y57773886D01*
X40449500Y57659309D01*
X500500Y57659309D01*
X500500Y59179565D01*
X26139500Y59179565D01*
X26139500Y59100436D01*
X26159978Y59024012D01*
X26159980Y59024008D01*
X26199538Y58955492D01*
X26199540Y58955489D01*
X26255489Y58899540D01*
X26255491Y58899539D01*
X26324007Y58859981D01*
X26324011Y58859979D01*
X26400435Y58839501D01*
X26400437Y58839500D01*
X26400438Y58839500D01*
X26479563Y58839500D01*
X26479563Y58839501D01*
X26555989Y58859979D01*
X26624511Y58899540D01*
X26680460Y58955489D01*
X26720021Y59024011D01*
X26740500Y59100438D01*
X26740500Y59179562D01*
X26720021Y59255989D01*
X26680460Y59324511D01*
X26624511Y59380460D01*
X26624508Y59380462D01*
X26555992Y59420020D01*
X26555988Y59420022D01*
X26479564Y59440500D01*
X26479562Y59440500D01*
X26400438Y59440500D01*
X26400435Y59440500D01*
X26324011Y59420022D01*
X26324007Y59420020D01*
X26255491Y59380462D01*
X26199538Y59324509D01*
X26159980Y59255993D01*
X26159978Y59255989D01*
X26139500Y59179565D01*
X500500Y59179565D01*
X500500Y59994565D01*
X15335106Y59994565D01*
X15335106Y59915436D01*
X15355584Y59839012D01*
X15355586Y59839008D01*
X15387034Y59784539D01*
X15395146Y59770489D01*
X15451095Y59714540D01*
X15451097Y59714539D01*
X15519613Y59674981D01*
X15519617Y59674979D01*
X15596041Y59654501D01*
X15596043Y59654500D01*
X15596044Y59654500D01*
X15675169Y59654500D01*
X15675169Y59654501D01*
X15751595Y59674979D01*
X15820117Y59714540D01*
X15876066Y59770489D01*
X15915627Y59839011D01*
X15926494Y59879565D01*
X41419500Y59879565D01*
X41419500Y59800436D01*
X41439978Y59724012D01*
X41439980Y59724008D01*
X41468286Y59674981D01*
X41479540Y59655489D01*
X41535489Y59599540D01*
X41535491Y59599539D01*
X41604007Y59559981D01*
X41604011Y59559979D01*
X41680435Y59539501D01*
X41680437Y59539500D01*
X41680438Y59539500D01*
X41759563Y59539500D01*
X41759563Y59539501D01*
X41835989Y59559979D01*
X41904511Y59599540D01*
X41960460Y59655489D01*
X42000021Y59724011D01*
X42020500Y59800438D01*
X42020500Y59879562D01*
X42000021Y59955989D01*
X41960460Y60024511D01*
X41920406Y60064565D01*
X43099500Y60064565D01*
X43099500Y59985436D01*
X43119978Y59909012D01*
X43119980Y59909008D01*
X43136981Y59879562D01*
X43159540Y59840489D01*
X43215489Y59784540D01*
X43215491Y59784539D01*
X43284007Y59744981D01*
X43284011Y59744979D01*
X43360435Y59724501D01*
X43360437Y59724500D01*
X43360438Y59724500D01*
X43439563Y59724500D01*
X43439563Y59724501D01*
X43515989Y59744979D01*
X43584511Y59784540D01*
X43640460Y59840489D01*
X43680021Y59909011D01*
X43700500Y59985438D01*
X43700500Y60064562D01*
X43680021Y60140989D01*
X43640460Y60209511D01*
X43584511Y60265460D01*
X43584508Y60265462D01*
X43515992Y60305020D01*
X43515988Y60305022D01*
X43439564Y60325500D01*
X43439562Y60325500D01*
X43360438Y60325500D01*
X43360435Y60325500D01*
X43284011Y60305022D01*
X43284007Y60305020D01*
X43215491Y60265462D01*
X43159538Y60209509D01*
X43119980Y60140993D01*
X43119978Y60140989D01*
X43099500Y60064565D01*
X41920406Y60064565D01*
X41904511Y60080460D01*
X41904508Y60080462D01*
X41835992Y60120020D01*
X41835988Y60120022D01*
X41759564Y60140500D01*
X41759562Y60140500D01*
X41680438Y60140500D01*
X41680435Y60140500D01*
X41604011Y60120022D01*
X41604007Y60120020D01*
X41535491Y60080462D01*
X41479538Y60024509D01*
X41439980Y59955993D01*
X41439978Y59955989D01*
X41419500Y59879565D01*
X15926494Y59879565D01*
X15936106Y59915438D01*
X15936106Y59994562D01*
X15915627Y60070989D01*
X15915624Y60070996D01*
X15876067Y60139509D01*
X15876066Y60139511D01*
X15820117Y60195460D01*
X15820114Y60195462D01*
X15751598Y60235020D01*
X15751594Y60235022D01*
X15675170Y60255500D01*
X15675168Y60255500D01*
X15596044Y60255500D01*
X15596041Y60255500D01*
X15519617Y60235022D01*
X15519613Y60235020D01*
X15451097Y60195462D01*
X15395144Y60139509D01*
X15355588Y60070996D01*
X15355584Y60070989D01*
X15335106Y59994565D01*
X500500Y59994565D01*
X500500Y60689565D01*
X17799500Y60689565D01*
X17799500Y60610436D01*
X17819978Y60534012D01*
X17819980Y60534008D01*
X17859538Y60465492D01*
X17859540Y60465489D01*
X17915489Y60409540D01*
X17915491Y60409539D01*
X17984007Y60369981D01*
X17984011Y60369979D01*
X18060435Y60349501D01*
X18060437Y60349500D01*
X18060438Y60349500D01*
X18139563Y60349500D01*
X18139563Y60349501D01*
X18215989Y60369979D01*
X18284511Y60409540D01*
X18340460Y60465489D01*
X18380021Y60534011D01*
X18400500Y60610438D01*
X18400500Y60689562D01*
X18380021Y60765989D01*
X18340460Y60834511D01*
X18284511Y60890460D01*
X18284508Y60890462D01*
X18215992Y60930020D01*
X18215988Y60930022D01*
X18139564Y60950500D01*
X18139562Y60950500D01*
X18060438Y60950500D01*
X18060435Y60950500D01*
X17984011Y60930022D01*
X17984007Y60930020D01*
X17915491Y60890462D01*
X17859538Y60834509D01*
X17819980Y60765993D01*
X17819978Y60765989D01*
X17799500Y60689565D01*
X500500Y60689565D01*
X500500Y61344565D01*
X25179500Y61344565D01*
X25179500Y61265436D01*
X25199978Y61189012D01*
X25199980Y61189008D01*
X25239538Y61120492D01*
X25239540Y61120489D01*
X25295489Y61064540D01*
X25295491Y61064539D01*
X25364007Y61024981D01*
X25364011Y61024979D01*
X25440435Y61004501D01*
X25440437Y61004500D01*
X25440438Y61004500D01*
X25519563Y61004500D01*
X25519563Y61004501D01*
X25595989Y61024979D01*
X25664511Y61064540D01*
X25720460Y61120489D01*
X25760021Y61189011D01*
X25780500Y61265438D01*
X25780500Y61344562D01*
X25760021Y61420989D01*
X25731976Y61469565D01*
X34739500Y61469565D01*
X34739500Y61390436D01*
X34759978Y61314012D01*
X34759980Y61314008D01*
X34799538Y61245492D01*
X34799540Y61245489D01*
X34855489Y61189540D01*
X34878329Y61176353D01*
X34924007Y61149981D01*
X34924011Y61149979D01*
X35000435Y61129501D01*
X35000437Y61129500D01*
X35000438Y61129500D01*
X35079563Y61129500D01*
X35079563Y61129501D01*
X35155989Y61149979D01*
X35224511Y61189540D01*
X35280460Y61245489D01*
X35320021Y61314011D01*
X35340500Y61390438D01*
X35340500Y61469562D01*
X35320021Y61545989D01*
X35280460Y61614511D01*
X35224511Y61670460D01*
X35224508Y61670462D01*
X35155992Y61710020D01*
X35155988Y61710022D01*
X35079564Y61730500D01*
X35079562Y61730500D01*
X35000438Y61730500D01*
X35000435Y61730500D01*
X34924011Y61710022D01*
X34924007Y61710020D01*
X34855491Y61670462D01*
X34799538Y61614509D01*
X34759980Y61545993D01*
X34759978Y61545989D01*
X34739500Y61469565D01*
X25731976Y61469565D01*
X25720460Y61489511D01*
X25664511Y61545460D01*
X25663588Y61545993D01*
X25595992Y61585020D01*
X25595988Y61585022D01*
X25519564Y61605500D01*
X25519562Y61605500D01*
X25440438Y61605500D01*
X25440435Y61605500D01*
X25364011Y61585022D01*
X25364007Y61585020D01*
X25295491Y61545462D01*
X25239538Y61489509D01*
X25199980Y61420993D01*
X25199978Y61420989D01*
X25179500Y61344565D01*
X500500Y61344565D01*
X500500Y62289565D01*
X15909500Y62289565D01*
X15909500Y62210436D01*
X15929978Y62134012D01*
X15929980Y62134008D01*
X15961428Y62079539D01*
X15969540Y62065489D01*
X16025489Y62009540D01*
X16025491Y62009539D01*
X16094007Y61969981D01*
X16094011Y61969979D01*
X16170435Y61949501D01*
X16170437Y61949500D01*
X16170438Y61949500D01*
X16249563Y61949500D01*
X16249563Y61949501D01*
X16325989Y61969979D01*
X16394511Y62009540D01*
X16450460Y62065489D01*
X16490021Y62134011D01*
X16510500Y62210438D01*
X16510500Y62289562D01*
X16496870Y62340429D01*
X16496870Y62340431D01*
X16491742Y62359565D01*
X41949500Y62359565D01*
X41949500Y62280436D01*
X41969978Y62204012D01*
X41969980Y62204008D01*
X42009538Y62135492D01*
X42009540Y62135489D01*
X42065489Y62079540D01*
X42065491Y62079539D01*
X42134007Y62039981D01*
X42134011Y62039979D01*
X42210435Y62019501D01*
X42210437Y62019500D01*
X42210438Y62019500D01*
X42289563Y62019500D01*
X42289563Y62019501D01*
X42365989Y62039979D01*
X42434511Y62079540D01*
X42490460Y62135489D01*
X42530021Y62204011D01*
X42550500Y62280438D01*
X42550500Y62359562D01*
X42530021Y62435989D01*
X42490460Y62504511D01*
X42434511Y62560460D01*
X42434508Y62560462D01*
X42365992Y62600020D01*
X42365988Y62600022D01*
X42289564Y62620500D01*
X42289562Y62620500D01*
X42210438Y62620500D01*
X42210435Y62620500D01*
X42134011Y62600022D01*
X42134007Y62600020D01*
X42065491Y62560462D01*
X42009538Y62504509D01*
X41969980Y62435993D01*
X41969978Y62435989D01*
X41949500Y62359565D01*
X16491742Y62359565D01*
X16490021Y62365989D01*
X16490018Y62365996D01*
X16450461Y62434509D01*
X16450460Y62434511D01*
X16394511Y62490460D01*
X16394508Y62490462D01*
X16325992Y62530020D01*
X16325988Y62530022D01*
X16249564Y62550500D01*
X16249562Y62550500D01*
X16170438Y62550500D01*
X16170435Y62550500D01*
X16094011Y62530022D01*
X16094007Y62530020D01*
X16025491Y62490462D01*
X15969538Y62434509D01*
X15929982Y62365996D01*
X15929978Y62365989D01*
X15909500Y62289565D01*
X500500Y62289565D01*
X500500Y63199565D01*
X18129500Y63199565D01*
X18129500Y63120436D01*
X18149978Y63044012D01*
X18149980Y63044008D01*
X18183734Y62985545D01*
X18189540Y62975489D01*
X18245489Y62919540D01*
X18245491Y62919539D01*
X18314007Y62879981D01*
X18314011Y62879979D01*
X18390435Y62859501D01*
X18390437Y62859500D01*
X18390438Y62859500D01*
X18469563Y62859500D01*
X18469563Y62859501D01*
X18545989Y62879979D01*
X18614511Y62919540D01*
X18624536Y62929565D01*
X40789500Y62929565D01*
X40789500Y62850436D01*
X40809978Y62774012D01*
X40809980Y62774008D01*
X40849538Y62705492D01*
X40849540Y62705489D01*
X40905489Y62649540D01*
X40905491Y62649539D01*
X40974007Y62609981D01*
X40974011Y62609979D01*
X41050435Y62589501D01*
X41050437Y62589500D01*
X41050438Y62589500D01*
X41129563Y62589500D01*
X41129563Y62589501D01*
X41205989Y62609979D01*
X41274511Y62649540D01*
X41330460Y62705489D01*
X41370021Y62774011D01*
X41390500Y62850438D01*
X41390500Y62929562D01*
X41370021Y63005989D01*
X41330460Y63074511D01*
X41274511Y63130460D01*
X41274508Y63130462D01*
X41205992Y63170020D01*
X41205988Y63170022D01*
X41129564Y63190500D01*
X41129562Y63190500D01*
X41050438Y63190500D01*
X41050435Y63190500D01*
X40974011Y63170022D01*
X40974007Y63170020D01*
X40905491Y63130462D01*
X40849538Y63074509D01*
X40809980Y63005993D01*
X40809978Y63005989D01*
X40789500Y62929565D01*
X18624536Y62929565D01*
X18670460Y62975489D01*
X18710021Y63044011D01*
X18730500Y63120438D01*
X18730500Y63199562D01*
X18710021Y63275989D01*
X18670460Y63344511D01*
X18614511Y63400460D01*
X18614508Y63400462D01*
X18545992Y63440020D01*
X18545988Y63440022D01*
X18469564Y63460500D01*
X18469562Y63460500D01*
X18390438Y63460500D01*
X18390435Y63460500D01*
X18314011Y63440022D01*
X18314007Y63440020D01*
X18245491Y63400462D01*
X18189538Y63344509D01*
X18149980Y63275993D01*
X18149978Y63275989D01*
X18129500Y63199565D01*
X500500Y63199565D01*
X500500Y68318544D01*
X15189500Y68318544D01*
X15189500Y68121457D01*
X15227949Y67928166D01*
X15227949Y67928164D01*
X15303367Y67746087D01*
X15303368Y67746086D01*
X15412861Y67582218D01*
X15552218Y67442861D01*
X15716086Y67333368D01*
X15898165Y67257949D01*
X16091459Y67219500D01*
X16091460Y67219500D01*
X16288540Y67219500D01*
X16288541Y67219500D01*
X16481835Y67257949D01*
X16663914Y67333368D01*
X16827782Y67442861D01*
X16967139Y67582218D01*
X17076632Y67746086D01*
X17152051Y67928165D01*
X17190500Y68121459D01*
X17190500Y68298845D01*
X19199500Y68298845D01*
X19199500Y68141156D01*
X19230263Y67986504D01*
X19230263Y67986502D01*
X19290603Y67840826D01*
X19290609Y67840815D01*
X19343312Y67761941D01*
X19378211Y67709711D01*
X19489711Y67598211D01*
X19567876Y67545983D01*
X19620814Y67510610D01*
X19620825Y67510604D01*
X19674638Y67488315D01*
X19766503Y67450263D01*
X19921158Y67419500D01*
X19921159Y67419500D01*
X20078841Y67419500D01*
X20078842Y67419500D01*
X20233497Y67450263D01*
X20379179Y67510606D01*
X20510289Y67598211D01*
X20621789Y67709711D01*
X20709394Y67840821D01*
X20769737Y67986503D01*
X20800500Y68141158D01*
X20800500Y68298842D01*
X20796581Y68318544D01*
X38189500Y68318544D01*
X38189500Y68121457D01*
X38227949Y67928166D01*
X38227949Y67928164D01*
X38303367Y67746087D01*
X38303368Y67746086D01*
X38412861Y67582218D01*
X38552218Y67442861D01*
X38716086Y67333368D01*
X38898165Y67257949D01*
X39091459Y67219500D01*
X39091460Y67219500D01*
X39288540Y67219500D01*
X39288541Y67219500D01*
X39481835Y67257949D01*
X39663914Y67333368D01*
X39827782Y67442861D01*
X39967139Y67582218D01*
X40076632Y67746086D01*
X40152051Y67928165D01*
X40190500Y68121459D01*
X40190500Y68298845D01*
X42199500Y68298845D01*
X42199500Y68141156D01*
X42230263Y67986504D01*
X42230263Y67986502D01*
X42290603Y67840826D01*
X42290609Y67840815D01*
X42343312Y67761941D01*
X42378211Y67709711D01*
X42489711Y67598211D01*
X42567876Y67545983D01*
X42620814Y67510610D01*
X42620825Y67510604D01*
X42674638Y67488315D01*
X42766503Y67450263D01*
X42921158Y67419500D01*
X42921159Y67419500D01*
X43078841Y67419500D01*
X43078842Y67419500D01*
X43233497Y67450263D01*
X43379179Y67510606D01*
X43510289Y67598211D01*
X43621789Y67709711D01*
X43709394Y67840821D01*
X43769737Y67986503D01*
X43800500Y68141158D01*
X43800500Y68298842D01*
X43769737Y68453497D01*
X43709394Y68599179D01*
X43709393Y68599181D01*
X43709390Y68599186D01*
X43674017Y68652124D01*
X43621789Y68730289D01*
X43510289Y68841789D01*
X43462424Y68873772D01*
X43380002Y68928845D01*
X81199500Y68928845D01*
X81199500Y68771156D01*
X81230263Y68616504D01*
X81230263Y68616502D01*
X81290603Y68470826D01*
X81290609Y68470815D01*
X81343312Y68391941D01*
X81378211Y68339711D01*
X81489711Y68228211D01*
X81567876Y68175983D01*
X81620814Y68140610D01*
X81620825Y68140604D01*
X81667041Y68121461D01*
X81766503Y68080263D01*
X81921158Y68049500D01*
X81921159Y68049500D01*
X82078841Y68049500D01*
X82078842Y68049500D01*
X82233497Y68080263D01*
X82379179Y68140606D01*
X82510289Y68228211D01*
X82621789Y68339711D01*
X82709394Y68470821D01*
X82769737Y68616503D01*
X82800500Y68771158D01*
X82800500Y68928842D01*
X82769737Y69083497D01*
X82709394Y69229179D01*
X82709393Y69229181D01*
X82709390Y69229186D01*
X82674017Y69282124D01*
X82621789Y69360289D01*
X82510289Y69471789D01*
X82458059Y69506688D01*
X82379185Y69559391D01*
X82379174Y69559397D01*
X82233497Y69619737D01*
X82078844Y69650500D01*
X82078842Y69650500D01*
X81921158Y69650500D01*
X81921155Y69650500D01*
X81766503Y69619737D01*
X81766501Y69619737D01*
X81620825Y69559397D01*
X81620814Y69559391D01*
X81489711Y69471789D01*
X81489707Y69471786D01*
X81378214Y69360293D01*
X81378211Y69360289D01*
X81290609Y69229186D01*
X81290603Y69229175D01*
X81230263Y69083499D01*
X81230263Y69083497D01*
X81199500Y68928845D01*
X43380002Y68928845D01*
X43379185Y68929391D01*
X43379174Y68929397D01*
X43233497Y68989737D01*
X43078844Y69020500D01*
X43078842Y69020500D01*
X42921158Y69020500D01*
X42921155Y69020500D01*
X42766503Y68989737D01*
X42766501Y68989737D01*
X42620825Y68929397D01*
X42620814Y68929391D01*
X42489711Y68841789D01*
X42489707Y68841786D01*
X42378214Y68730293D01*
X42378211Y68730289D01*
X42290609Y68599186D01*
X42290603Y68599175D01*
X42230263Y68453499D01*
X42230263Y68453497D01*
X42199500Y68298845D01*
X40190500Y68298845D01*
X40190500Y68318541D01*
X40152051Y68511835D01*
X40076632Y68693914D01*
X39967139Y68857782D01*
X39827782Y68997139D01*
X39663914Y69106632D01*
X39663915Y69106632D01*
X39663913Y69106633D01*
X39481835Y69182051D01*
X39288543Y69220500D01*
X39288541Y69220500D01*
X39091459Y69220500D01*
X39091456Y69220500D01*
X38898165Y69182051D01*
X38898163Y69182051D01*
X38716086Y69106633D01*
X38552218Y68997139D01*
X38552214Y68997136D01*
X38412864Y68857786D01*
X38412861Y68857782D01*
X38303367Y68693914D01*
X38227949Y68511837D01*
X38227949Y68511835D01*
X38189500Y68318544D01*
X20796581Y68318544D01*
X20769737Y68453497D01*
X20709394Y68599179D01*
X20709393Y68599181D01*
X20709390Y68599186D01*
X20674017Y68652124D01*
X20621789Y68730289D01*
X20510289Y68841789D01*
X20458059Y68876688D01*
X20379185Y68929391D01*
X20379174Y68929397D01*
X20233497Y68989737D01*
X20078844Y69020500D01*
X20078842Y69020500D01*
X19921158Y69020500D01*
X19921155Y69020500D01*
X19766503Y68989737D01*
X19766501Y68989737D01*
X19620825Y68929397D01*
X19620814Y68929391D01*
X19489711Y68841789D01*
X19489707Y68841786D01*
X19378214Y68730293D01*
X19378211Y68730289D01*
X19290609Y68599186D01*
X19290603Y68599175D01*
X19230263Y68453499D01*
X19230263Y68453497D01*
X19199500Y68298845D01*
X17190500Y68298845D01*
X17190500Y68318541D01*
X17152051Y68511835D01*
X17076632Y68693914D01*
X16967139Y68857782D01*
X16827782Y68997139D01*
X16663914Y69106632D01*
X16663915Y69106632D01*
X16663913Y69106633D01*
X16481835Y69182051D01*
X16288543Y69220500D01*
X16288541Y69220500D01*
X16091459Y69220500D01*
X16091456Y69220500D01*
X15898165Y69182051D01*
X15898163Y69182051D01*
X15716086Y69106633D01*
X15552218Y68997139D01*
X15552214Y68997136D01*
X15412864Y68857786D01*
X15412861Y68857782D01*
X15303367Y68693914D01*
X15227949Y68511837D01*
X15227949Y68511835D01*
X15189500Y68318544D01*
X500500Y68318544D01*
X500500Y72763544D01*
X84809500Y72763544D01*
X84809500Y72566457D01*
X84847949Y72373166D01*
X84847949Y72373164D01*
X84923367Y72191087D01*
X84941822Y72163468D01*
X85032861Y72027218D01*
X85172218Y71887861D01*
X85336086Y71778368D01*
X85518165Y71702949D01*
X85711459Y71664500D01*
X85711460Y71664500D01*
X85908540Y71664500D01*
X85908541Y71664500D01*
X86101835Y71702949D01*
X86283914Y71778368D01*
X86447782Y71887861D01*
X86587139Y72027218D01*
X86678178Y72163468D01*
X101249500Y72163468D01*
X101249500Y71956533D01*
X101289869Y71753582D01*
X101369058Y71562403D01*
X101369059Y71562402D01*
X101484023Y71390345D01*
X101630345Y71244023D01*
X101802402Y71129059D01*
X101993580Y71049870D01*
X102196535Y71009500D01*
X102196536Y71009500D01*
X102403464Y71009500D01*
X102403465Y71009500D01*
X102606420Y71049870D01*
X102797598Y71129059D01*
X102969655Y71244023D01*
X103115977Y71390345D01*
X103230941Y71562402D01*
X103310130Y71753580D01*
X103350500Y71956535D01*
X103350500Y72163465D01*
X103310130Y72366420D01*
X103230941Y72557598D01*
X103115977Y72729655D01*
X102969655Y72875977D01*
X102797598Y72990941D01*
X102797599Y72990941D01*
X102797597Y72990942D01*
X102606418Y73070131D01*
X102403467Y73110500D01*
X102403465Y73110500D01*
X102196535Y73110500D01*
X102196532Y73110500D01*
X101993581Y73070131D01*
X101802402Y72990942D01*
X101630348Y72875980D01*
X101484020Y72729652D01*
X101369058Y72557598D01*
X101289869Y72366419D01*
X101249500Y72163468D01*
X86678178Y72163468D01*
X86696632Y72191086D01*
X86772051Y72373165D01*
X86810500Y72566459D01*
X86810500Y72763541D01*
X86772051Y72956835D01*
X86696632Y73138914D01*
X86587139Y73302782D01*
X86447782Y73442139D01*
X86283914Y73551632D01*
X86283915Y73551632D01*
X86283913Y73551633D01*
X86101835Y73627051D01*
X85908543Y73665500D01*
X85908541Y73665500D01*
X85711459Y73665500D01*
X85711456Y73665500D01*
X85518165Y73627051D01*
X85518163Y73627051D01*
X85336086Y73551633D01*
X85172218Y73442139D01*
X85172214Y73442136D01*
X85032864Y73302786D01*
X85032861Y73302782D01*
X84923367Y73138914D01*
X84847949Y72956837D01*
X84847949Y72956835D01*
X84809500Y72763544D01*
X500500Y72763544D01*
X500500Y77203619D01*
X22859500Y77203619D01*
X22859500Y77016382D01*
X22896026Y76832751D01*
X22967677Y76659771D01*
X22967681Y76659762D01*
X23042065Y76548441D01*
X23071698Y76504092D01*
X23204092Y76371698D01*
X23270463Y76327351D01*
X23359761Y76267682D01*
X23359767Y76267680D01*
X23359769Y76267678D01*
X23532749Y76196027D01*
X23716384Y76159500D01*
X23716385Y76159500D01*
X23903615Y76159500D01*
X23903616Y76159500D01*
X24087251Y76196027D01*
X24260231Y76267678D01*
X24260234Y76267681D01*
X24260238Y76267682D01*
X24305187Y76297718D01*
X24415908Y76371698D01*
X24548302Y76504092D01*
X24622282Y76614813D01*
X24652318Y76659762D01*
X24652319Y76659766D01*
X24652322Y76659769D01*
X24723973Y76832749D01*
X24760500Y77016384D01*
X24760500Y77203616D01*
X24760499Y77203619D01*
X45859500Y77203619D01*
X45859500Y77016382D01*
X45896026Y76832751D01*
X45967677Y76659771D01*
X45967681Y76659762D01*
X46042065Y76548441D01*
X46071698Y76504092D01*
X46204092Y76371698D01*
X46270463Y76327351D01*
X46359761Y76267682D01*
X46359767Y76267680D01*
X46359769Y76267678D01*
X46532749Y76196027D01*
X46716384Y76159500D01*
X46716385Y76159500D01*
X46903615Y76159500D01*
X46903616Y76159500D01*
X47087251Y76196027D01*
X47260231Y76267678D01*
X47260234Y76267681D01*
X47260238Y76267682D01*
X47305187Y76297718D01*
X47415908Y76371698D01*
X47548302Y76504092D01*
X47622282Y76614813D01*
X47652318Y76659762D01*
X47652319Y76659766D01*
X47652322Y76659769D01*
X47723973Y76832749D01*
X47760500Y77016384D01*
X47760500Y77203616D01*
X47760499Y77203619D01*
X84859500Y77203619D01*
X84859500Y77016382D01*
X84896026Y76832751D01*
X84967677Y76659771D01*
X84967681Y76659762D01*
X85042065Y76548441D01*
X85071698Y76504092D01*
X85204092Y76371698D01*
X85270463Y76327351D01*
X85359761Y76267682D01*
X85359767Y76267680D01*
X85359769Y76267678D01*
X85532749Y76196027D01*
X85716384Y76159500D01*
X85716385Y76159500D01*
X85903615Y76159500D01*
X85903616Y76159500D01*
X86087251Y76196027D01*
X86260231Y76267678D01*
X86260234Y76267681D01*
X86260238Y76267682D01*
X86305187Y76297718D01*
X86415908Y76371698D01*
X86548302Y76504092D01*
X86622282Y76614813D01*
X86652318Y76659762D01*
X86652319Y76659766D01*
X86652322Y76659769D01*
X86723973Y76832749D01*
X86760500Y77016384D01*
X86760500Y77203616D01*
X86723973Y77387251D01*
X86652322Y77560231D01*
X86652320Y77560233D01*
X86652318Y77560239D01*
X86592649Y77649537D01*
X86548302Y77715908D01*
X86415908Y77848302D01*
X86371559Y77877935D01*
X86260238Y77952319D01*
X86260229Y77952323D01*
X86087249Y78023974D01*
X85903618Y78060500D01*
X85903616Y78060500D01*
X85716384Y78060500D01*
X85716381Y78060500D01*
X85532750Y78023974D01*
X85359770Y77952323D01*
X85359761Y77952319D01*
X85204092Y77848302D01*
X85204088Y77848299D01*
X85071701Y77715912D01*
X85071698Y77715908D01*
X84967681Y77560239D01*
X84967677Y77560230D01*
X84896026Y77387250D01*
X84859500Y77203619D01*
X47760499Y77203619D01*
X47723973Y77387251D01*
X47652322Y77560231D01*
X47652320Y77560233D01*
X47652318Y77560239D01*
X47592649Y77649537D01*
X47548302Y77715908D01*
X47415908Y77848302D01*
X47371559Y77877935D01*
X47260238Y77952319D01*
X47260229Y77952323D01*
X47087249Y78023974D01*
X46903618Y78060500D01*
X46903616Y78060500D01*
X46716384Y78060500D01*
X46716381Y78060500D01*
X46532750Y78023974D01*
X46359770Y77952323D01*
X46359761Y77952319D01*
X46204092Y77848302D01*
X46204088Y77848299D01*
X46071701Y77715912D01*
X46071698Y77715908D01*
X45967681Y77560239D01*
X45967677Y77560230D01*
X45896026Y77387250D01*
X45859500Y77203619D01*
X24760499Y77203619D01*
X24723973Y77387251D01*
X24652322Y77560231D01*
X24652320Y77560233D01*
X24652318Y77560239D01*
X24592649Y77649537D01*
X24548302Y77715908D01*
X24415908Y77848302D01*
X24371559Y77877935D01*
X24260238Y77952319D01*
X24260229Y77952323D01*
X24087249Y78023974D01*
X23903618Y78060500D01*
X23903616Y78060500D01*
X23716384Y78060500D01*
X23716381Y78060500D01*
X23532750Y78023974D01*
X23359770Y77952323D01*
X23359761Y77952319D01*
X23204092Y77848302D01*
X23204088Y77848299D01*
X23071701Y77715912D01*
X23071698Y77715908D01*
X22967681Y77560239D01*
X22967677Y77560230D01*
X22896026Y77387250D01*
X22859500Y77203619D01*
X500500Y77203619D01*
X500500Y82283619D01*
X15239500Y82283619D01*
X15239500Y82096382D01*
X15276026Y81912751D01*
X15347677Y81739771D01*
X15347681Y81739762D01*
X15422065Y81628441D01*
X15451698Y81584092D01*
X15584092Y81451698D01*
X15631560Y81419981D01*
X15739761Y81347682D01*
X15739767Y81347680D01*
X15739769Y81347678D01*
X15912749Y81276027D01*
X16096384Y81239500D01*
X16096385Y81239500D01*
X16283615Y81239500D01*
X16283616Y81239500D01*
X16467251Y81276027D01*
X16640231Y81347678D01*
X16640234Y81347681D01*
X16640238Y81347682D01*
X16685187Y81377718D01*
X16795908Y81451698D01*
X16928302Y81584092D01*
X17032184Y81739562D01*
X17032318Y81739762D01*
X17032319Y81739766D01*
X17032322Y81739769D01*
X17103973Y81912749D01*
X17140500Y82096384D01*
X17140500Y82283616D01*
X17140499Y82283619D01*
X38239500Y82283619D01*
X38239500Y82096382D01*
X38276026Y81912751D01*
X38347677Y81739771D01*
X38347681Y81739762D01*
X38422065Y81628441D01*
X38451698Y81584092D01*
X38584092Y81451698D01*
X38631560Y81419981D01*
X38739761Y81347682D01*
X38739767Y81347680D01*
X38739769Y81347678D01*
X38912749Y81276027D01*
X39096384Y81239500D01*
X39096385Y81239500D01*
X39283615Y81239500D01*
X39283616Y81239500D01*
X39467251Y81276027D01*
X39640231Y81347678D01*
X39640234Y81347681D01*
X39640238Y81347682D01*
X39685187Y81377718D01*
X39795908Y81451698D01*
X39928302Y81584092D01*
X40032184Y81739562D01*
X40032186Y81739565D01*
X63699500Y81739565D01*
X63699500Y81660436D01*
X63719978Y81584012D01*
X63719980Y81584008D01*
X63759538Y81515492D01*
X63759540Y81515489D01*
X63815489Y81459540D01*
X63815491Y81459539D01*
X63884007Y81419981D01*
X63884011Y81419979D01*
X63960435Y81399501D01*
X63960437Y81399500D01*
X63960438Y81399500D01*
X64039563Y81399500D01*
X64039563Y81399501D01*
X64115989Y81419979D01*
X64184511Y81459540D01*
X64240460Y81515489D01*
X64280021Y81584011D01*
X64300500Y81660438D01*
X64300500Y81739562D01*
X64280021Y81815989D01*
X64240460Y81884511D01*
X64184511Y81940460D01*
X64184508Y81940462D01*
X64115992Y81980020D01*
X64115988Y81980022D01*
X64039564Y82000500D01*
X64039562Y82000500D01*
X63960438Y82000500D01*
X63960435Y82000500D01*
X63884011Y81980022D01*
X63884007Y81980020D01*
X63815491Y81940462D01*
X63759538Y81884509D01*
X63719980Y81815993D01*
X63719978Y81815989D01*
X63699500Y81739565D01*
X40032186Y81739565D01*
X40032318Y81739762D01*
X40032319Y81739766D01*
X40032322Y81739769D01*
X40103973Y81912749D01*
X40140500Y82096384D01*
X40140500Y82283616D01*
X40140499Y82283619D01*
X77239500Y82283619D01*
X77239500Y82096382D01*
X77276026Y81912751D01*
X77347677Y81739771D01*
X77347681Y81739762D01*
X77422065Y81628441D01*
X77451698Y81584092D01*
X77584092Y81451698D01*
X77631560Y81419981D01*
X77739761Y81347682D01*
X77739767Y81347680D01*
X77739769Y81347678D01*
X77912749Y81276027D01*
X78096384Y81239500D01*
X78096385Y81239500D01*
X78283615Y81239500D01*
X78283616Y81239500D01*
X78467251Y81276027D01*
X78640231Y81347678D01*
X78640234Y81347681D01*
X78640238Y81347682D01*
X78685187Y81377718D01*
X78795908Y81451698D01*
X78928302Y81584092D01*
X79032184Y81739562D01*
X79032318Y81739762D01*
X79032319Y81739766D01*
X79032322Y81739769D01*
X79103973Y81912749D01*
X79140500Y82096384D01*
X79140500Y82283616D01*
X79103973Y82467251D01*
X79032322Y82640231D01*
X79032320Y82640233D01*
X79032318Y82640239D01*
X78972649Y82729537D01*
X78928302Y82795908D01*
X78795908Y82928302D01*
X78751559Y82957935D01*
X78640238Y83032319D01*
X78640229Y83032323D01*
X78467249Y83103974D01*
X78283618Y83140500D01*
X78283616Y83140500D01*
X78096384Y83140500D01*
X78096381Y83140500D01*
X77912750Y83103974D01*
X77739770Y83032323D01*
X77739761Y83032319D01*
X77584092Y82928302D01*
X77584088Y82928299D01*
X77451701Y82795912D01*
X77451698Y82795908D01*
X77347681Y82640239D01*
X77347677Y82640230D01*
X77276026Y82467250D01*
X77239500Y82283619D01*
X40140499Y82283619D01*
X40103973Y82467251D01*
X40032322Y82640231D01*
X40032320Y82640233D01*
X40032318Y82640239D01*
X39972649Y82729537D01*
X39928302Y82795908D01*
X39795908Y82928302D01*
X39751559Y82957935D01*
X39640238Y83032319D01*
X39640229Y83032323D01*
X39467249Y83103974D01*
X39283618Y83140500D01*
X39283616Y83140500D01*
X39096384Y83140500D01*
X39096381Y83140500D01*
X38912750Y83103974D01*
X38739770Y83032323D01*
X38739761Y83032319D01*
X38584092Y82928302D01*
X38584088Y82928299D01*
X38451701Y82795912D01*
X38451698Y82795908D01*
X38347681Y82640239D01*
X38347677Y82640230D01*
X38276026Y82467250D01*
X38239500Y82283619D01*
X17140499Y82283619D01*
X17103973Y82467251D01*
X17032322Y82640231D01*
X17032320Y82640233D01*
X17032318Y82640239D01*
X16972649Y82729537D01*
X16928302Y82795908D01*
X16795908Y82928302D01*
X16751559Y82957935D01*
X16640238Y83032319D01*
X16640229Y83032323D01*
X16467249Y83103974D01*
X16283618Y83140500D01*
X16283616Y83140500D01*
X16096384Y83140500D01*
X16096381Y83140500D01*
X15912750Y83103974D01*
X15739770Y83032323D01*
X15739761Y83032319D01*
X15584092Y82928302D01*
X15584088Y82928299D01*
X15451701Y82795912D01*
X15451698Y82795908D01*
X15347681Y82640239D01*
X15347677Y82640230D01*
X15276026Y82467250D01*
X15239500Y82283619D01*
X500500Y82283619D01*
X500500Y85400500D01*
X519407Y85458691D01*
X568907Y85494655D01*
X599500Y85499500D01*
X93934108Y85499500D01*
X103934108Y85499500D01*
X109400500Y85499500D01*
X109458691Y85480593D01*
G37*
%TD.AperFunction*%
%TD*%
M02*
