%TF.GenerationSoftware,KiCad,Pcbnew,9.0.2*%
%TF.CreationDate,2025-07-01T01:10:05-05:00*%
%TF.ProjectId,STEVEannouncer,53544556-4561-46e6-9e6f-756e6365722e,rev?*%
%TF.SameCoordinates,PX52f83c0PY90f5600*%
%TF.FileFunction,Copper,L4,Bot*%
%TF.FilePolarity,Positive*%
%FSLAX46Y46*%
G04 Gerber Fmt 4.6, Leading zero omitted, Abs format (unit mm)*
G04 Created by KiCad (PCBNEW 9.0.2) date 2025-07-01 01:10:05*
%MOMM*%
%LPD*%
G01*
G04 APERTURE LIST*
%TA.AperFunction,ComponentPad*%
%ADD10C,2.200000*%
%TD*%
%TA.AperFunction,ComponentPad*%
%ADD11C,2.000000*%
%TD*%
%TA.AperFunction,ComponentPad*%
%ADD12C,3.400000*%
%TD*%
%TA.AperFunction,ComponentPad*%
%ADD13C,2.900000*%
%TD*%
%TA.AperFunction,ComponentPad*%
%ADD14C,3.600000*%
%TD*%
%TA.AperFunction,ConnectorPad*%
%ADD15C,6.400000*%
%TD*%
%TA.AperFunction,ComponentPad*%
%ADD16C,0.600000*%
%TD*%
%TA.AperFunction,SMDPad,CuDef*%
%ADD17R,2.800000X2.300000*%
%TD*%
%TA.AperFunction,ComponentPad*%
%ADD18C,3.700000*%
%TD*%
%TA.AperFunction,HeatsinkPad*%
%ADD19C,0.500000*%
%TD*%
%TA.AperFunction,HeatsinkPad*%
%ADD20R,1.200000X2.000000*%
%TD*%
%TA.AperFunction,ComponentPad*%
%ADD21C,3.000000*%
%TD*%
%TA.AperFunction,ViaPad*%
%ADD22C,0.500000*%
%TD*%
%TA.AperFunction,Conductor*%
%ADD23C,0.250000*%
%TD*%
G04 APERTURE END LIST*
D10*
%TO.P,RV402,1,1*%
%TO.N,Net-(J404-Pin_1)*%
X95000000Y3800000D03*
%TO.P,RV402,2,2*%
%TO.N,Net-(J404-Pin_2)*%
X100000000Y3800000D03*
%TO.P,RV402,3,3*%
%TO.N,Net-(J404-Pin_3-Pad3)*%
X105000000Y3800000D03*
%TD*%
%TO.P,RV401,1,1*%
%TO.N,Net-(J402-Pin_1)*%
X75000000Y3800000D03*
%TO.P,RV401,2,2*%
%TO.N,Net-(J402-Pin_2)*%
X80000000Y3800000D03*
%TO.P,RV401,3,3*%
%TO.N,Net-(J402-Pin_3-Pad3)*%
X85000000Y3800000D03*
%TD*%
D11*
%TO.P,SW302,1,A*%
%TO.N,Net-(J305-Pin_2)*%
X95000000Y32800000D03*
%TO.P,SW302,2,B*%
%TO.N,Net-(J305-Pin_1)*%
X100000000Y34900000D03*
%TD*%
%TO.P,SW301,1,A*%
%TO.N,Net-(J302-Pin_2)*%
X75000000Y32800000D03*
%TO.P,SW301,2,B*%
%TO.N,Net-(J302-Pin_1)*%
X80000000Y34900000D03*
%TD*%
D12*
%TO.P,J401,1*%
%TO.N,GND*%
X78190000Y73300000D03*
%TO.P,J401,2*%
%TO.N,Net-(C416-Pad1)*%
X85810000Y72665000D03*
D13*
%TO.P,J401,3*%
%TO.N,Net-(C417-Pad2)*%
X82000000Y68850000D03*
%TO.P,J401,G*%
%TO.N,GND*%
X73750000Y79020000D03*
%TD*%
D12*
%TO.P,J306,1*%
%TO.N,GND*%
X46810000Y68220000D03*
%TO.P,J306,2*%
%TO.N,/Mic Path/TB_OUT2*%
X39190000Y68220000D03*
D13*
%TO.P,J306,3*%
%TO.N,/Mic Path/TB_OUT3*%
X43000000Y68220000D03*
%TO.P,J306,G*%
%TO.N,GND*%
X43000000Y73300000D03*
%TD*%
D14*
%TO.P,H103,1,1*%
%TO.N,GND*%
X106000000Y42000000D03*
D15*
X106000000Y42000000D03*
%TD*%
D16*
%TO.P,U403,11,V-*%
%TO.N,-5V*%
X52750000Y35730000D03*
X51250000Y35730000D03*
X52000000Y35230000D03*
D17*
X52000000Y35230000D03*
D16*
X52750000Y34730000D03*
X51250000Y34730000D03*
%TD*%
D14*
%TO.P,H101,1,1*%
%TO.N,GND*%
X4000000Y4000000D03*
D15*
X4000000Y4000000D03*
%TD*%
D12*
%TO.P,J301,1*%
%TO.N,GND*%
X23810000Y12700000D03*
%TO.P,J301,2*%
%TO.N,/Mic Path/Mic2*%
X16190000Y13335000D03*
D13*
%TO.P,J301,3*%
%TO.N,/Mic Path/Mic3*%
X20000000Y17150000D03*
%TO.P,J301,G*%
%TO.N,GND*%
X28250000Y6980000D03*
%TD*%
D18*
%TO.P,J201,1*%
%TO.N,Net-(D203-A)*%
X102300000Y72060000D03*
%TO.P,J201,2*%
%TO.N,GND*%
X99000000Y77650000D03*
%TO.P,J201,3*%
X95700000Y72060000D03*
%TD*%
D19*
%TO.P,U402,9,Pad*%
%TO.N,-5V*%
X52630000Y48630000D03*
X52630000Y49380000D03*
X52630000Y50130000D03*
D20*
X52280000Y49380000D03*
D19*
X51930000Y48630000D03*
X51930000Y49380000D03*
X51930000Y50130000D03*
%TD*%
D21*
%TO.P,J407,R*%
%TO.N,unconnected-(J407-PadR)*%
X64430000Y10600000D03*
%TO.P,J407,RN*%
%TO.N,unconnected-(J407-PadRN)*%
X53000000Y10600000D03*
%TO.P,J407,S*%
%TO.N,GND*%
X64430000Y4250000D03*
%TO.P,J407,SN*%
X53000000Y4250000D03*
%TO.P,J407,T*%
%TO.N,/IFB Path/HP_L*%
X64430000Y16950000D03*
%TO.P,J407,TN*%
%TO.N,unconnected-(J407-PadTN)*%
X53000000Y16950000D03*
%TD*%
D14*
%TO.P,H102,1,1*%
%TO.N,GND*%
X4000000Y82000000D03*
D15*
X4000000Y82000000D03*
%TD*%
D21*
%TO.P,J406,R*%
%TO.N,/IFB Path/HP_R*%
X47430000Y10600000D03*
%TO.P,J406,RN*%
%TO.N,unconnected-(J406-PadRN)*%
X36000000Y10600000D03*
%TO.P,J406,S*%
%TO.N,GND*%
X47430000Y4250000D03*
%TO.P,J406,SN*%
X36000000Y4250000D03*
%TO.P,J406,T*%
%TO.N,/IFB Path/HP_L*%
X47430000Y16950000D03*
%TO.P,J406,TN*%
%TO.N,unconnected-(J406-PadTN)*%
X36000000Y16950000D03*
%TD*%
D12*
%TO.P,J307,1*%
%TO.N,GND*%
X23810000Y68220000D03*
%TO.P,J307,2*%
%TO.N,/Mic Path/MicOut2*%
X16190000Y68220000D03*
D13*
%TO.P,J307,3*%
%TO.N,/Mic Path/MicOut3*%
X20000000Y68220000D03*
%TO.P,J307,G*%
%TO.N,GND*%
X20000000Y73300000D03*
%TD*%
D14*
%TO.P,H104,1,1*%
%TO.N,GND*%
X106000000Y82000000D03*
D15*
X106000000Y82000000D03*
%TD*%
D19*
%TO.P,U302,9,Pad*%
%TO.N,-5V*%
X40900000Y57600000D03*
X40900000Y56850000D03*
X40900000Y56100000D03*
D20*
X41250000Y56850000D03*
D19*
X41600000Y57600000D03*
X41600000Y56850000D03*
X41600000Y56100000D03*
%TD*%
D22*
%TO.N,+5V*%
X52000000Y27690000D03*
X77600000Y47200000D03*
X53250000Y27610000D03*
X75750000Y46700000D03*
X64000000Y81700000D03*
X76900000Y47200000D03*
X52760000Y54250000D03*
X53000000Y38540000D03*
X75750000Y46100000D03*
X18980000Y37580000D03*
X41720000Y59840000D03*
X47850000Y40510000D03*
X51680000Y55340000D03*
X35040000Y61430000D03*
X9740000Y52160000D03*
X16210000Y62250000D03*
X15635606Y59955000D03*
X42250000Y62320000D03*
X17130000Y29760000D03*
X63520000Y55340000D03*
X9740000Y53020000D03*
X51010000Y47130000D03*
X76200000Y47200000D03*
%TO.N,-5V*%
X85200000Y44300000D03*
X41090000Y62890000D03*
X87100000Y44300000D03*
X18430000Y63160000D03*
X9800000Y49520000D03*
X26440000Y59140000D03*
X9800000Y50380000D03*
X40230000Y54090000D03*
X19130000Y29960000D03*
X85200000Y43700000D03*
X9770000Y34220000D03*
X86100000Y44300000D03*
X51090000Y38550000D03*
X53500000Y51600000D03*
X18100000Y60650000D03*
X56120000Y40490000D03*
X85200000Y43100000D03*
%TO.N,+5V*%
X37290000Y51500000D03*
X27780000Y51490000D03*
%TO.N,Net-(D308-Pad3)*%
X44800000Y54150000D03*
X43400000Y60025000D03*
%TO.N,/Mic Path/MuteSel*%
X25480000Y61305000D03*
X24000000Y50500000D03*
%TO.N,/IFB Path/VCAR_E-*%
X49250000Y44500000D03*
X49750000Y48500000D03*
%TO.N,/IFB Path/VCAL_E-*%
X54300025Y47389975D03*
X54200000Y44760000D03*
%TD*%
D23*
%TO.N,Net-(D308-Pad3)*%
X44800000Y58625000D02*
X44800000Y54150000D01*
X43400000Y60025000D02*
X44800000Y58625000D01*
%TO.N,/Mic Path/MuteSel*%
X24750000Y60540000D02*
X24750000Y51250000D01*
X25480000Y61270000D02*
X24750000Y60540000D01*
X25480000Y61305000D02*
X25480000Y61270000D01*
X24750000Y51250000D02*
X24000000Y50500000D01*
%TO.N,/IFB Path/VCAR_E-*%
X49750000Y48500000D02*
X49250000Y48000000D01*
X49250000Y48000000D02*
X49250000Y44500000D01*
%TO.N,/IFB Path/VCAL_E-*%
X54000000Y45200000D02*
X54200000Y45000000D01*
X54200000Y45000000D02*
X54200000Y44760000D01*
X54300025Y47389975D02*
X54000000Y47089950D01*
X54000000Y47089950D02*
X54000000Y45200000D01*
%TD*%
%TA.AperFunction,Conductor*%
%TO.N,-5V*%
G36*
X29459191Y64025593D02*
G01*
X29495155Y63976093D01*
X29500000Y63945500D01*
X29500000Y59444515D01*
X29486737Y59395017D01*
X29469981Y59365994D01*
X29469977Y59365986D01*
X29449500Y59289565D01*
X29449500Y59210436D01*
X29469978Y59134012D01*
X29469978Y59134011D01*
X29486736Y59104987D01*
X29500000Y59055486D01*
X29500000Y58500000D01*
X27250000Y58500000D01*
X27250000Y61850000D01*
X27249999Y61850000D01*
X19250001Y61850000D01*
X19250000Y61850000D01*
X19250000Y61849999D01*
X19250000Y46849000D01*
X19231093Y46790809D01*
X19181593Y46754845D01*
X19151000Y46750000D01*
X10750000Y46750000D01*
X10750000Y30800000D01*
X12300000Y29250000D01*
X18249999Y29250000D01*
X18250000Y29250000D01*
X18250000Y30651000D01*
X18268907Y30709191D01*
X18318407Y30745155D01*
X18349000Y30750000D01*
X19651000Y30750000D01*
X19709191Y30731093D01*
X19745155Y30681593D01*
X19750000Y30651000D01*
X19750000Y28416008D01*
X19731093Y28357817D01*
X19721004Y28346004D01*
X18653996Y27278996D01*
X18599479Y27251219D01*
X18583992Y27250000D01*
X11041008Y27250000D01*
X10982817Y27268907D01*
X10971004Y27278996D01*
X9028996Y29221004D01*
X9001219Y29275521D01*
X9000000Y29291008D01*
X9000000Y48750000D01*
X10500000Y48750000D01*
X10500000Y48840000D01*
X17000000Y48840000D01*
X17000000Y63945500D01*
X17018907Y64003691D01*
X17068407Y64039655D01*
X17099000Y64044500D01*
X29401000Y64044500D01*
X29459191Y64025593D01*
G37*
%TD.AperFunction*%
%TD*%
%TA.AperFunction,Conductor*%
%TO.N,-5V*%
G36*
X41253691Y63231093D02*
G01*
X41289655Y63181593D01*
X41294500Y63151000D01*
X41294500Y63107236D01*
X41298447Y63067152D01*
X41298450Y63067132D01*
X41302828Y63045125D01*
X41302827Y63045125D01*
X41305628Y63031048D01*
X41305630Y63031042D01*
X41305985Y63029255D01*
X41305985Y63029254D01*
X41308455Y63021112D01*
X41309342Y63018004D01*
X41331626Y62934843D01*
X41335000Y62909219D01*
X41335000Y62870783D01*
X41331626Y62845159D01*
X41309344Y62762005D01*
X41308461Y62758910D01*
X41305984Y62750740D01*
X41305981Y62750728D01*
X41305627Y62748947D01*
X41302816Y62734822D01*
X41302815Y62734809D01*
X41298448Y62712857D01*
X41298448Y62712855D01*
X41294500Y62672765D01*
X41294500Y60005645D01*
X41291127Y59980022D01*
X41269500Y59899308D01*
X41269500Y59780692D01*
X41291127Y59699980D01*
X41294500Y59674357D01*
X41294500Y59349000D01*
X41297030Y59316857D01*
X41301883Y59286207D01*
X41302646Y59281719D01*
X41302647Y59281714D01*
X41338591Y59197618D01*
X41338592Y59197617D01*
X41374556Y59148117D01*
X41398797Y59120372D01*
X41451777Y59088718D01*
X41492033Y59042641D01*
X41500000Y59003732D01*
X41500000Y58250000D01*
X42000000Y57750000D01*
X42026000Y57750000D01*
X42084191Y57731093D01*
X42120155Y57681593D01*
X42125000Y57651000D01*
X42125000Y54357688D01*
X42106093Y54299497D01*
X42056593Y54263533D01*
X42051629Y54262063D01*
X42044011Y54260022D01*
X42044007Y54260020D01*
X41975491Y54220462D01*
X41919538Y54164509D01*
X41879980Y54095993D01*
X41879978Y54095989D01*
X41859500Y54019565D01*
X41859500Y53940436D01*
X41879978Y53864012D01*
X41879980Y53864008D01*
X41917224Y53799500D01*
X41919540Y53795489D01*
X41975489Y53739540D01*
X41975491Y53739539D01*
X42044007Y53699981D01*
X42044008Y53699981D01*
X42044011Y53699979D01*
X42051623Y53697940D01*
X42102937Y53664616D01*
X42124864Y53607495D01*
X42125000Y53602313D01*
X42125000Y51575000D01*
X49880401Y51575000D01*
X49938592Y51556093D01*
X49958944Y51536266D01*
X49959537Y51535493D01*
X49959538Y51535492D01*
X49959540Y51535489D01*
X50015489Y51479540D01*
X50038329Y51466353D01*
X50084007Y51439981D01*
X50084011Y51439979D01*
X50160435Y51419501D01*
X50160437Y51419500D01*
X50160438Y51419500D01*
X50239563Y51419500D01*
X50239563Y51419501D01*
X50315989Y51439979D01*
X50384511Y51479540D01*
X50440460Y51535489D01*
X50440463Y51535495D01*
X50441056Y51536266D01*
X50441631Y51536662D01*
X50445048Y51540078D01*
X50445681Y51539445D01*
X50452934Y51544431D01*
X50461408Y51556093D01*
X50477519Y51561328D01*
X50491480Y51570923D01*
X50519599Y51575000D01*
X50626954Y51575000D01*
X50685145Y51556093D01*
X50721109Y51506593D01*
X50722572Y51501651D01*
X50728498Y51479539D01*
X50729980Y51474007D01*
X50769538Y51405492D01*
X50769540Y51405489D01*
X50825489Y51349540D01*
X50825491Y51349539D01*
X50894007Y51309981D01*
X50894011Y51309979D01*
X50970435Y51289501D01*
X50970437Y51289500D01*
X50970438Y51289500D01*
X51049563Y51289500D01*
X51049563Y51289501D01*
X51125989Y51309979D01*
X51194511Y51349540D01*
X51250460Y51405489D01*
X51290021Y51474011D01*
X51297420Y51501626D01*
X51330743Y51552937D01*
X51387864Y51574864D01*
X51393046Y51575000D01*
X52125000Y51575000D01*
X52125000Y49500000D01*
X43025000Y49500000D01*
X42500000Y49500000D01*
X39849000Y49500000D01*
X39790809Y49518907D01*
X39754845Y49568407D01*
X39750000Y49599000D01*
X39750000Y56249999D01*
X39750000Y58085029D01*
X39790460Y58125489D01*
X39830021Y58194011D01*
X39850500Y58270438D01*
X39850500Y58349562D01*
X39850267Y58350432D01*
X39850267Y58350434D01*
X39845141Y58369565D01*
X40469500Y58369565D01*
X40469500Y58290436D01*
X40489978Y58214012D01*
X40489980Y58214008D01*
X40529538Y58145492D01*
X40529540Y58145489D01*
X40585489Y58089540D01*
X40585491Y58089539D01*
X40654007Y58049981D01*
X40654011Y58049979D01*
X40730435Y58029501D01*
X40730437Y58029500D01*
X40730438Y58029500D01*
X40809563Y58029500D01*
X40809563Y58029501D01*
X40885989Y58049979D01*
X40954511Y58089540D01*
X41010460Y58145489D01*
X41050021Y58214011D01*
X41070500Y58290438D01*
X41070500Y58369562D01*
X41050021Y58445989D01*
X41010460Y58514511D01*
X40954511Y58570460D01*
X40944952Y58575979D01*
X40885992Y58610020D01*
X40885988Y58610022D01*
X40809564Y58630500D01*
X40809562Y58630500D01*
X40730438Y58630500D01*
X40730435Y58630500D01*
X40654011Y58610022D01*
X40654007Y58610020D01*
X40585491Y58570462D01*
X40529538Y58514509D01*
X40489980Y58445993D01*
X40489978Y58445989D01*
X40469500Y58369565D01*
X39845141Y58369565D01*
X39830021Y58425989D01*
X39830019Y58425993D01*
X39790460Y58494512D01*
X39778994Y58505978D01*
X39751218Y58560495D01*
X39750000Y58575979D01*
X39750000Y63151000D01*
X39768907Y63209191D01*
X39818407Y63245155D01*
X39849000Y63250000D01*
X41195500Y63250000D01*
X41253691Y63231093D01*
G37*
%TD.AperFunction*%
%TD*%
%TA.AperFunction,Conductor*%
%TO.N,+5V*%
G36*
X64709191Y82231093D02*
G01*
X64745155Y82181593D01*
X64750000Y82151000D01*
X64750000Y56250000D01*
X63250000Y56250000D01*
X63250000Y82151000D01*
X63268907Y82209191D01*
X63318407Y82245155D01*
X63349000Y82250000D01*
X64651000Y82250000D01*
X64709191Y82231093D01*
G37*
%TD.AperFunction*%
%TD*%
%TA.AperFunction,Conductor*%
%TO.N,+5V*%
G36*
X44767183Y62981093D02*
G01*
X44778996Y62971004D01*
X52039568Y55710432D01*
X50588832Y54010351D01*
X50562498Y54018907D01*
X50551071Y54028613D01*
X50544879Y54034737D01*
X44008276Y60500000D01*
X42750001Y60500000D01*
X42750000Y60500000D01*
X42750000Y60499999D01*
X42750000Y59349000D01*
X42731093Y59290809D01*
X42681593Y59254845D01*
X42651000Y59250000D01*
X41599000Y59250000D01*
X41540809Y59268907D01*
X41504845Y59318407D01*
X41500000Y59349000D01*
X41500000Y62672765D01*
X41507536Y62710650D01*
X41509797Y62716110D01*
X41509797Y62716112D01*
X41509799Y62716114D01*
X41540500Y62830691D01*
X41540500Y62949309D01*
X41526917Y63000000D01*
X43480000Y63000000D01*
X43480001Y63000000D01*
X44708992Y63000000D01*
X44767183Y62981093D01*
G37*
%TD.AperFunction*%
%TD*%
%TA.AperFunction,Conductor*%
%TO.N,+5V*%
G36*
X8500000Y51249999D02*
G01*
X8500000Y35190297D01*
X8481093Y35132106D01*
X8431593Y35096142D01*
X8370407Y35096142D01*
X8320907Y35132106D01*
X8307587Y35160032D01*
X8307503Y35159997D01*
X8306837Y35161603D01*
X8305374Y35164672D01*
X8305020Y35165991D01*
X8305019Y35165993D01*
X8265461Y35234509D01*
X8265460Y35234511D01*
X8209511Y35290460D01*
X8209508Y35290462D01*
X8140992Y35330020D01*
X8140988Y35330022D01*
X8064564Y35350500D01*
X8064562Y35350500D01*
X7985438Y35350500D01*
X7985435Y35350500D01*
X7909011Y35330022D01*
X7909007Y35330020D01*
X7840491Y35290462D01*
X7784538Y35234509D01*
X7744980Y35165993D01*
X7744978Y35165989D01*
X7724500Y35089565D01*
X7724500Y35010436D01*
X7744978Y34934012D01*
X7744980Y34934008D01*
X7784538Y34865492D01*
X7784540Y34865489D01*
X7840489Y34809540D01*
X7840491Y34809539D01*
X7909007Y34769981D01*
X7909011Y34769979D01*
X7985435Y34749501D01*
X7985437Y34749500D01*
X7985438Y34749500D01*
X8064563Y34749500D01*
X8064563Y34749501D01*
X8140989Y34769979D01*
X8209511Y34809540D01*
X8265460Y34865489D01*
X8305021Y34934011D01*
X8305373Y34935327D01*
X8305905Y34936147D01*
X8307503Y34940003D01*
X8308217Y34939707D01*
X8338696Y34986640D01*
X8395817Y35008568D01*
X8454918Y34992733D01*
X8493424Y34945184D01*
X8500000Y34909704D01*
X8500000Y22750000D01*
X4849000Y22750000D01*
X4790809Y22768907D01*
X4754845Y22818407D01*
X4750000Y22849000D01*
X4750000Y64250000D01*
X8500000Y64250000D01*
X8500000Y51249999D01*
G37*
%TD.AperFunction*%
%TD*%
%TA.AperFunction,Conductor*%
%TO.N,-5V*%
G36*
X39218982Y58481093D02*
G01*
X39254946Y58431593D01*
X39256417Y58375375D01*
X39249500Y58349563D01*
X39249500Y58270436D01*
X39269978Y58194012D01*
X39269980Y58194008D01*
X39309538Y58125492D01*
X39309540Y58125489D01*
X39365489Y58069540D01*
X39365491Y58069539D01*
X39434007Y58029981D01*
X39434011Y58029979D01*
X39510435Y58009501D01*
X39510437Y58009500D01*
X39510438Y58009500D01*
X39589563Y58009500D01*
X39589563Y58009501D01*
X39665989Y58029979D01*
X39734511Y58069540D01*
X39750000Y58085029D01*
X39750000Y56250000D01*
X27349000Y56250000D01*
X27290809Y56268907D01*
X27254845Y56318407D01*
X27250000Y56349000D01*
X27250000Y58499999D01*
X27250000Y58500000D01*
X29500001Y58500000D01*
X39160791Y58500000D01*
X39218982Y58481093D01*
G37*
%TD.AperFunction*%
%TD*%
%TA.AperFunction,Conductor*%
%TO.N,+5V*%
G36*
X53459191Y40481093D02*
G01*
X53495155Y40431593D01*
X53500000Y40401000D01*
X53500000Y38349000D01*
X53481093Y38290809D01*
X53431593Y38254845D01*
X53401000Y38250000D01*
X52378765Y38250000D01*
X52320574Y38268907D01*
X52284610Y38318407D01*
X52283139Y38374624D01*
X52300499Y38439413D01*
X52300500Y38439415D01*
X52300500Y38518540D01*
X52300499Y38518542D01*
X52280022Y38594963D01*
X52280021Y38594964D01*
X52280021Y38594966D01*
X52278616Y38597399D01*
X52263263Y38623994D01*
X52250000Y38673492D01*
X52250000Y39249999D01*
X52250000Y39250000D01*
X52249999Y39250000D01*
X51750000Y39250000D01*
X51750000Y40500000D01*
X51750001Y40500000D01*
X53401000Y40500000D01*
X53459191Y40481093D01*
G37*
%TD.AperFunction*%
%TD*%
%TA.AperFunction,Conductor*%
%TO.N,+5V*%
G36*
X10459191Y53981093D02*
G01*
X10495155Y53931593D01*
X10500000Y53901000D01*
X10500000Y51349000D01*
X10481093Y51290809D01*
X10431593Y51254845D01*
X10401000Y51250000D01*
X8500000Y51250000D01*
X8500000Y54000000D01*
X8500001Y54000000D01*
X10401000Y54000000D01*
X10459191Y53981093D01*
G37*
%TD.AperFunction*%
%TD*%
%TA.AperFunction,Conductor*%
%TO.N,+5V*%
G36*
X43439191Y65981093D02*
G01*
X43475155Y65931593D01*
X43480000Y65901000D01*
X43480000Y63000000D01*
X41526917Y63000000D01*
X41509799Y63063886D01*
X41509798Y63063888D01*
X41507537Y63069346D01*
X41500000Y63107234D01*
X41500000Y64249999D01*
X41500000Y64250000D01*
X41499999Y64250000D01*
X35750001Y64250000D01*
X35750000Y64250000D01*
X34500000Y64250000D01*
X34499999Y64250000D01*
X16500001Y64250000D01*
X16500000Y64250000D01*
X15000000Y64250000D01*
X14999999Y64250000D01*
X8500001Y64250000D01*
X8500000Y64250000D01*
X4750000Y64250000D01*
X4750000Y65389565D01*
X17799500Y65389565D01*
X17799500Y65310436D01*
X17819978Y65234012D01*
X17819980Y65234008D01*
X17839362Y65200438D01*
X17859540Y65165489D01*
X17915489Y65109540D01*
X17915491Y65109539D01*
X17984007Y65069981D01*
X17984011Y65069979D01*
X18060435Y65049501D01*
X18060437Y65049500D01*
X18060438Y65049500D01*
X18139563Y65049500D01*
X18139563Y65049501D01*
X18215989Y65069979D01*
X18284511Y65109540D01*
X18340460Y65165489D01*
X18380021Y65234011D01*
X18392227Y65279565D01*
X40949500Y65279565D01*
X40949500Y65200436D01*
X40969978Y65124012D01*
X40969980Y65124008D01*
X40978334Y65109539D01*
X41009540Y65055489D01*
X41065489Y64999540D01*
X41065491Y64999539D01*
X41134007Y64959981D01*
X41134011Y64959979D01*
X41210435Y64939501D01*
X41210437Y64939500D01*
X41210438Y64939500D01*
X41289563Y64939500D01*
X41289563Y64939501D01*
X41365989Y64959979D01*
X41434511Y64999540D01*
X41490460Y65055489D01*
X41530021Y65124011D01*
X41550500Y65200438D01*
X41550500Y65279562D01*
X41530021Y65355989D01*
X41490460Y65424511D01*
X41434511Y65480460D01*
X41434508Y65480462D01*
X41365992Y65520020D01*
X41365988Y65520022D01*
X41289564Y65540500D01*
X41289562Y65540500D01*
X41210438Y65540500D01*
X41210435Y65540500D01*
X41134011Y65520022D01*
X41134007Y65520020D01*
X41065491Y65480462D01*
X41009538Y65424509D01*
X40969980Y65355993D01*
X40969978Y65355989D01*
X40949500Y65279565D01*
X18392227Y65279565D01*
X18400500Y65310438D01*
X18400500Y65389562D01*
X18380021Y65465989D01*
X18340460Y65534511D01*
X18284511Y65590460D01*
X18284508Y65590462D01*
X18215992Y65630020D01*
X18215988Y65630022D01*
X18139564Y65650500D01*
X18139562Y65650500D01*
X18060438Y65650500D01*
X18060435Y65650500D01*
X17984011Y65630022D01*
X17984007Y65630020D01*
X17915491Y65590462D01*
X17859538Y65534509D01*
X17819980Y65465993D01*
X17819978Y65465989D01*
X17799500Y65389565D01*
X4750000Y65389565D01*
X4750000Y65901000D01*
X4768907Y65959191D01*
X4818407Y65995155D01*
X4849000Y66000000D01*
X43381000Y66000000D01*
X43439191Y65981093D01*
G37*
%TD.AperFunction*%
%TD*%
%TA.AperFunction,Conductor*%
%TO.N,+5V*%
G36*
X53709191Y27981093D02*
G01*
X53745155Y27931593D01*
X53750000Y27901000D01*
X53750000Y26349000D01*
X53731093Y26290809D01*
X53681593Y26254845D01*
X53651000Y26250000D01*
X28750000Y26250000D01*
X28750000Y27000000D01*
X51500000Y27000000D01*
X51500000Y27901000D01*
X51518907Y27959191D01*
X51568407Y27995155D01*
X51599000Y28000000D01*
X53651000Y28000000D01*
X53709191Y27981093D01*
G37*
%TD.AperFunction*%
%TD*%
%TA.AperFunction,Conductor*%
%TO.N,+5V*%
G36*
X65209191Y56231093D02*
G01*
X65245155Y56181593D01*
X65250000Y56151000D01*
X65250000Y48250000D01*
X78151000Y48250000D01*
X78209191Y48231093D01*
X78245155Y48181593D01*
X78250000Y48151000D01*
X78250000Y44849000D01*
X78231093Y44790809D01*
X78181593Y44754845D01*
X78151000Y44750000D01*
X62099000Y44750000D01*
X62040809Y44768907D01*
X62004845Y44818407D01*
X62000000Y44849000D01*
X62000000Y53999999D01*
X62000000Y54000000D01*
X61999999Y54000000D01*
X52172576Y54000000D01*
X52114385Y54018907D01*
X52078421Y54068407D01*
X52078421Y54129593D01*
X52086840Y54148501D01*
X52090021Y54154011D01*
X52090021Y54154012D01*
X52110499Y54230436D01*
X52110500Y54230438D01*
X52110500Y54309563D01*
X52110499Y54309565D01*
X52090021Y54385989D01*
X52090019Y54385993D01*
X52050461Y54454509D01*
X52050460Y54454511D01*
X51994511Y54510460D01*
X51994508Y54510462D01*
X51925992Y54550020D01*
X51925988Y54550022D01*
X51849564Y54570500D01*
X51849562Y54570500D01*
X51770438Y54570500D01*
X51770435Y54570500D01*
X51694011Y54550022D01*
X51694007Y54550020D01*
X51625491Y54510462D01*
X51569538Y54454509D01*
X51529980Y54385993D01*
X51529978Y54385989D01*
X51509500Y54309565D01*
X51509500Y54230436D01*
X51529978Y54154012D01*
X51529978Y54154011D01*
X51533160Y54148501D01*
X51545882Y54088652D01*
X51520996Y54032757D01*
X51468008Y54002164D01*
X51447424Y54000000D01*
X50620689Y54000000D01*
X50613352Y54002384D01*
X50605738Y54001135D01*
X50588403Y54009849D01*
X52039568Y55710432D01*
X51500000Y56250000D01*
X64750000Y56250000D01*
X64750001Y56250000D01*
X65151000Y56250000D01*
X65209191Y56231093D01*
G37*
%TD.AperFunction*%
%TD*%
%TA.AperFunction,Conductor*%
%TO.N,-5V*%
G36*
X27250000Y58500000D02*
G01*
X26099000Y58500000D01*
X26040809Y58518907D01*
X26004845Y58568407D01*
X26000000Y58599000D01*
X26000000Y59651000D01*
X26018907Y59709191D01*
X26068407Y59745155D01*
X26099000Y59750000D01*
X27249999Y59750000D01*
X27250000Y59750000D01*
X27250000Y58500000D01*
G37*
%TD.AperFunction*%
%TD*%
%TA.AperFunction,Conductor*%
%TO.N,-5V*%
G36*
X56709191Y51981093D02*
G01*
X56745155Y51931593D01*
X56750000Y51901000D01*
X56750000Y41500000D01*
X56750001Y41500000D01*
X57435431Y41500000D01*
X57493622Y41481093D01*
X57529586Y41431593D01*
X57531058Y41375380D01*
X57529500Y41369568D01*
X57529500Y41290436D01*
X57549978Y41214012D01*
X57549980Y41214008D01*
X57581428Y41159539D01*
X57589540Y41145489D01*
X57645489Y41089540D01*
X57645491Y41089539D01*
X57714007Y41049981D01*
X57714011Y41049979D01*
X57790435Y41029501D01*
X57790437Y41029500D01*
X57790438Y41029500D01*
X57869563Y41029500D01*
X57869563Y41029501D01*
X57945989Y41049979D01*
X58014511Y41089540D01*
X58070460Y41145489D01*
X58110021Y41214011D01*
X58130500Y41290438D01*
X58130500Y41369562D01*
X58130500Y41369563D01*
X58130499Y41369568D01*
X58128942Y41375380D01*
X58132146Y41436481D01*
X58170652Y41484030D01*
X58224569Y41500000D01*
X79850500Y41500000D01*
X79908691Y41481093D01*
X79944655Y41431593D01*
X79949500Y41401000D01*
X79949500Y41360436D01*
X79969978Y41284012D01*
X79969980Y41284008D01*
X80009538Y41215492D01*
X80009540Y41215489D01*
X80065489Y41159540D01*
X80065491Y41159539D01*
X80134007Y41119981D01*
X80134011Y41119979D01*
X80210435Y41099501D01*
X80210437Y41099500D01*
X80210438Y41099500D01*
X80289563Y41099500D01*
X80289563Y41099501D01*
X80365989Y41119979D01*
X80434511Y41159540D01*
X80490460Y41215489D01*
X80530021Y41284011D01*
X80550500Y41360438D01*
X80550500Y41401000D01*
X80569407Y41459191D01*
X80618907Y41495155D01*
X80649500Y41500000D01*
X83999999Y41500000D01*
X84000000Y41500000D01*
X84000000Y42079565D01*
X85309500Y42079565D01*
X85309500Y42000436D01*
X85329978Y41924012D01*
X85329980Y41924008D01*
X85337815Y41910438D01*
X85369540Y41855489D01*
X85425489Y41799540D01*
X85425491Y41799539D01*
X85494007Y41759981D01*
X85494011Y41759979D01*
X85570435Y41739501D01*
X85570437Y41739500D01*
X85570438Y41739500D01*
X85649563Y41739500D01*
X85649563Y41739501D01*
X85725989Y41759979D01*
X85794511Y41799540D01*
X85850460Y41855489D01*
X85890021Y41924011D01*
X85910500Y42000438D01*
X85910500Y42079562D01*
X85890021Y42155989D01*
X85850460Y42224511D01*
X85794511Y42280460D01*
X85761533Y42299500D01*
X85725992Y42320020D01*
X85725988Y42320022D01*
X85649564Y42340500D01*
X85649562Y42340500D01*
X85570438Y42340500D01*
X85570435Y42340500D01*
X85494011Y42320022D01*
X85494007Y42320020D01*
X85425491Y42280462D01*
X85369538Y42224509D01*
X85329980Y42155993D01*
X85329978Y42155989D01*
X85309500Y42079565D01*
X84000000Y42079565D01*
X84000000Y45651000D01*
X84018907Y45709191D01*
X84068407Y45745155D01*
X84099000Y45750000D01*
X85848950Y45750000D01*
X85907141Y45731093D01*
X85943105Y45681593D01*
X85943105Y45620407D01*
X85907141Y45570907D01*
X85898450Y45565264D01*
X85855491Y45540462D01*
X85799538Y45484509D01*
X85759980Y45415993D01*
X85759978Y45415989D01*
X85739500Y45339565D01*
X85739500Y45260436D01*
X85759978Y45184012D01*
X85759980Y45184008D01*
X85799538Y45115492D01*
X85799540Y45115489D01*
X85855489Y45059540D01*
X85855491Y45059539D01*
X85924007Y45019981D01*
X85924011Y45019979D01*
X86000435Y44999501D01*
X86000437Y44999500D01*
X86000438Y44999500D01*
X86079563Y44999500D01*
X86079563Y44999501D01*
X86155989Y45019979D01*
X86224511Y45059540D01*
X86280460Y45115489D01*
X86320021Y45184011D01*
X86340500Y45260438D01*
X86340500Y45339562D01*
X86320021Y45415989D01*
X86280460Y45484511D01*
X86224511Y45540460D01*
X86224508Y45540462D01*
X86181550Y45565264D01*
X86140609Y45610734D01*
X86134213Y45671584D01*
X86164806Y45724572D01*
X86220702Y45749458D01*
X86231050Y45750000D01*
X86831630Y45750000D01*
X86889821Y45731093D01*
X86925785Y45681593D01*
X86925785Y45620407D01*
X86889821Y45570907D01*
X86881130Y45565264D01*
X86855491Y45550462D01*
X86799538Y45494509D01*
X86759980Y45425993D01*
X86759978Y45425989D01*
X86739500Y45349565D01*
X86739500Y45270436D01*
X86759978Y45194012D01*
X86759980Y45194008D01*
X86781262Y45157147D01*
X86799540Y45125489D01*
X86855489Y45069540D01*
X86855491Y45069539D01*
X86924007Y45029981D01*
X86924011Y45029979D01*
X87000435Y45009501D01*
X87000437Y45009500D01*
X87000438Y45009500D01*
X87079563Y45009500D01*
X87079563Y45009501D01*
X87155989Y45029979D01*
X87224511Y45069540D01*
X87280460Y45125489D01*
X87320021Y45194011D01*
X87340500Y45270438D01*
X87340500Y45349562D01*
X87320021Y45425989D01*
X87280460Y45494511D01*
X87224511Y45550460D01*
X87198870Y45565264D01*
X87157929Y45610733D01*
X87151533Y45671583D01*
X87182126Y45724571D01*
X87238022Y45749458D01*
X87248370Y45750000D01*
X87581000Y45750000D01*
X87639191Y45731093D01*
X87675155Y45681593D01*
X87680000Y45651000D01*
X87680000Y38600647D01*
X87661093Y38542456D01*
X87611593Y38506492D01*
X87581078Y38501647D01*
X86131606Y38500500D01*
X81534107Y38500500D01*
X81533037Y38500213D01*
X81507499Y38496842D01*
X78501532Y38494465D01*
X78475837Y38497837D01*
X78465899Y38500499D01*
X78465892Y38500500D01*
X67065892Y38500500D01*
X66934108Y38500500D01*
X66934104Y38500500D01*
X66889806Y38488631D01*
X66864264Y38485258D01*
X57149457Y38477572D01*
X57145949Y33348932D01*
X57127002Y33290754D01*
X57077477Y33254824D01*
X57046949Y33250000D01*
X50349000Y33250000D01*
X50290809Y33268907D01*
X50254845Y33318407D01*
X50250000Y33349000D01*
X50250000Y38901000D01*
X50268907Y38959191D01*
X50318407Y38995155D01*
X50349000Y39000000D01*
X51901000Y39000000D01*
X51915912Y38995155D01*
X51931593Y38995155D01*
X51944278Y38985939D01*
X51959191Y38981093D01*
X51968407Y38968408D01*
X51981093Y38959191D01*
X51985938Y38944279D01*
X51995155Y38931593D01*
X52000000Y38901000D01*
X52000000Y38866043D01*
X51981093Y38807852D01*
X51931593Y38771888D01*
X51926624Y38770417D01*
X51884011Y38758999D01*
X51884007Y38758997D01*
X51815491Y38719439D01*
X51759538Y38663486D01*
X51719980Y38594970D01*
X51719978Y38594966D01*
X51699500Y38518542D01*
X51699500Y38439413D01*
X51719978Y38362989D01*
X51719980Y38362985D01*
X51752122Y38307314D01*
X51759540Y38294466D01*
X51815489Y38238517D01*
X51815491Y38238516D01*
X51884007Y38198958D01*
X51884011Y38198956D01*
X51926624Y38187538D01*
X51977937Y38154215D01*
X51999864Y38097094D01*
X52000000Y38091912D01*
X52000000Y37000000D01*
X54999999Y37000000D01*
X55000000Y37000000D01*
X55000000Y40239565D01*
X79449500Y40239565D01*
X79449500Y40160436D01*
X79469978Y40084012D01*
X79469980Y40084008D01*
X79509538Y40015492D01*
X79509540Y40015489D01*
X79565489Y39959540D01*
X79565491Y39959539D01*
X79634007Y39919981D01*
X79634011Y39919979D01*
X79710435Y39899501D01*
X79710437Y39899500D01*
X79710438Y39899500D01*
X79789563Y39899500D01*
X79789563Y39899501D01*
X79865989Y39919979D01*
X79934511Y39959540D01*
X79990460Y40015489D01*
X80030021Y40084011D01*
X80050500Y40160438D01*
X80050500Y40239562D01*
X80050499Y40239565D01*
X80549500Y40239565D01*
X80549500Y40160436D01*
X80569978Y40084012D01*
X80569980Y40084008D01*
X80609538Y40015492D01*
X80609540Y40015489D01*
X80665489Y39959540D01*
X80665491Y39959539D01*
X80734007Y39919981D01*
X80734011Y39919979D01*
X80810435Y39899501D01*
X80810437Y39899500D01*
X80810438Y39899500D01*
X80889563Y39899500D01*
X80889563Y39899501D01*
X80965989Y39919979D01*
X81034511Y39959540D01*
X81090460Y40015489D01*
X81130021Y40084011D01*
X81150500Y40160438D01*
X81150500Y40239562D01*
X81130021Y40315989D01*
X81090460Y40384511D01*
X81034511Y40440460D01*
X81034508Y40440462D01*
X80965992Y40480020D01*
X80965988Y40480022D01*
X80889564Y40500500D01*
X80889562Y40500500D01*
X80810438Y40500500D01*
X80810435Y40500500D01*
X80734011Y40480022D01*
X80734007Y40480020D01*
X80665491Y40440462D01*
X80609538Y40384509D01*
X80569980Y40315993D01*
X80569978Y40315989D01*
X80549500Y40239565D01*
X80050499Y40239565D01*
X80030021Y40315989D01*
X79990460Y40384511D01*
X79934511Y40440460D01*
X79934508Y40440462D01*
X79865992Y40480020D01*
X79865988Y40480022D01*
X79789564Y40500500D01*
X79789562Y40500500D01*
X79710438Y40500500D01*
X79710435Y40500500D01*
X79634011Y40480022D01*
X79634007Y40480020D01*
X79565491Y40440462D01*
X79509538Y40384509D01*
X79469980Y40315993D01*
X79469978Y40315989D01*
X79449500Y40239565D01*
X55000000Y40239565D01*
X55000000Y48000000D01*
X54999999Y48000000D01*
X51599000Y48000000D01*
X51540809Y48018907D01*
X51504845Y48068407D01*
X51500000Y48099000D01*
X51500000Y49499999D01*
X51500000Y49500000D01*
X52125000Y49500000D01*
X52125000Y51314565D01*
X54174500Y51314565D01*
X54174500Y51235436D01*
X54194978Y51159012D01*
X54194980Y51159008D01*
X54234538Y51090492D01*
X54234540Y51090489D01*
X54290489Y51034540D01*
X54290491Y51034539D01*
X54359007Y50994981D01*
X54359011Y50994979D01*
X54435435Y50974501D01*
X54435437Y50974500D01*
X54435438Y50974500D01*
X54514563Y50974500D01*
X54514563Y50974501D01*
X54590989Y50994979D01*
X54659511Y51034540D01*
X54715460Y51090489D01*
X54755021Y51159011D01*
X54775500Y51235438D01*
X54775500Y51314562D01*
X54755021Y51390989D01*
X54746649Y51405489D01*
X54715461Y51459509D01*
X54715460Y51459511D01*
X54659511Y51515460D01*
X54624820Y51535489D01*
X54590992Y51555020D01*
X54590988Y51555022D01*
X54514564Y51575500D01*
X54514562Y51575500D01*
X54435438Y51575500D01*
X54435435Y51575500D01*
X54359011Y51555022D01*
X54359007Y51555020D01*
X54290491Y51515462D01*
X54234538Y51459509D01*
X54194980Y51390993D01*
X54194978Y51390989D01*
X54174500Y51314565D01*
X52125000Y51314565D01*
X52125000Y51575000D01*
X51500000Y51575000D01*
X51500000Y51901000D01*
X51518907Y51959191D01*
X51568407Y51995155D01*
X51599000Y52000000D01*
X56651000Y52000000D01*
X56709191Y51981093D01*
G37*
%TD.AperFunction*%
%TD*%
%TA.AperFunction,Conductor*%
%TO.N,+5V*%
G36*
X51709191Y47731093D02*
G01*
X51745155Y47681593D01*
X51750000Y47651000D01*
X51750000Y39250000D01*
X28750000Y39250000D01*
X28750000Y41000000D01*
X50250000Y41000000D01*
X50250000Y41714310D01*
X50268907Y41772501D01*
X50318407Y41808465D01*
X50379593Y41808465D01*
X50429093Y41772501D01*
X50434732Y41763817D01*
X50439540Y41755489D01*
X50495489Y41699540D01*
X50495491Y41699539D01*
X50564007Y41659981D01*
X50564011Y41659979D01*
X50640435Y41639501D01*
X50640437Y41639500D01*
X50640438Y41639500D01*
X50719563Y41639500D01*
X50719563Y41639501D01*
X50795989Y41659979D01*
X50864511Y41699540D01*
X50920460Y41755489D01*
X50960021Y41824011D01*
X50980500Y41900438D01*
X50980500Y41979562D01*
X50960021Y42055989D01*
X50920460Y42124511D01*
X50864511Y42180460D01*
X50864508Y42180462D01*
X50795992Y42220020D01*
X50795988Y42220022D01*
X50719564Y42240500D01*
X50719562Y42240500D01*
X50640438Y42240500D01*
X50640435Y42240500D01*
X50564011Y42220022D01*
X50564007Y42220020D01*
X50495491Y42180462D01*
X50439539Y42124510D01*
X50434736Y42116190D01*
X50389265Y42075249D01*
X50328415Y42068855D01*
X50275428Y42099448D01*
X50250542Y42155344D01*
X50250000Y42165691D01*
X50250000Y47651000D01*
X50268907Y47709191D01*
X50318407Y47745155D01*
X50349000Y47750000D01*
X51651000Y47750000D01*
X51709191Y47731093D01*
G37*
%TD.AperFunction*%
%TD*%
%TA.AperFunction,Conductor*%
%TO.N,-5V*%
G36*
X10459191Y50981093D02*
G01*
X10495155Y50931593D01*
X10500000Y50901000D01*
X10500000Y48750000D01*
X9000000Y48750000D01*
X9000000Y50901000D01*
X9018907Y50959191D01*
X9068407Y50995155D01*
X9099000Y51000000D01*
X10401000Y51000000D01*
X10459191Y50981093D01*
G37*
%TD.AperFunction*%
%TD*%
%TA.AperFunction,Conductor*%
%TO.N,+5V*%
G36*
X35750000Y64249999D02*
G01*
X35750000Y61099000D01*
X35731093Y61040809D01*
X35681593Y61004845D01*
X35651000Y61000000D01*
X34599000Y61000000D01*
X34540809Y61018907D01*
X34504845Y61068407D01*
X34500000Y61099000D01*
X34500000Y64249999D01*
X34500000Y64250000D01*
X35750000Y64250000D01*
X35750000Y64249999D01*
G37*
%TD.AperFunction*%
%TD*%
%TA.AperFunction,Conductor*%
%TO.N,+5V*%
G36*
X16500000Y64249999D02*
G01*
X16500000Y59439000D01*
X16481093Y59380809D01*
X16431593Y59344845D01*
X16401000Y59340000D01*
X15099000Y59340000D01*
X15040809Y59358907D01*
X15004845Y59408407D01*
X15000000Y59439000D01*
X15000000Y64249999D01*
X15000000Y64250000D01*
X16500000Y64250000D01*
X16500000Y64249999D01*
G37*
%TD.AperFunction*%
%TD*%
%TA.AperFunction,Conductor*%
%TO.N,+5V*%
G36*
X37459191Y51731093D02*
G01*
X37495155Y51681593D01*
X37500000Y51651000D01*
X37500000Y51349000D01*
X37481093Y51290809D01*
X37431593Y51254845D01*
X37401000Y51250000D01*
X28750000Y51250000D01*
X28750000Y26250000D01*
X28750000Y26249999D01*
X28750000Y22849000D01*
X28731093Y22790809D01*
X28681593Y22754845D01*
X28651000Y22750000D01*
X8500000Y22750000D01*
X8500000Y26000000D01*
X26000000Y26000000D01*
X26000000Y35750000D01*
X25999999Y35750000D01*
X19750001Y35750000D01*
X19750000Y35750000D01*
X19750000Y35749999D01*
X19750000Y32791008D01*
X19731093Y32732817D01*
X19721004Y32721004D01*
X17750000Y30750000D01*
X17750000Y29599000D01*
X17731093Y29540809D01*
X17681593Y29504845D01*
X17651000Y29500000D01*
X16099000Y29500000D01*
X16040809Y29518907D01*
X16004845Y29568407D01*
X16000000Y29599000D01*
X16000000Y30958993D01*
X16018907Y31017184D01*
X16028990Y31028991D01*
X18000000Y33000000D01*
X18000000Y34662935D01*
X18018907Y34721126D01*
X18068407Y34757090D01*
X18073348Y34758554D01*
X18115989Y34769979D01*
X18184511Y34809540D01*
X18240460Y34865489D01*
X18280021Y34934011D01*
X18300500Y35010438D01*
X18300500Y35089562D01*
X18280021Y35165989D01*
X18240460Y35234511D01*
X18184511Y35290460D01*
X18184508Y35290462D01*
X18115992Y35330020D01*
X18115988Y35330022D01*
X18073376Y35341440D01*
X18022062Y35374764D01*
X18000136Y35431886D01*
X18000000Y35437066D01*
X18000000Y38401000D01*
X18018907Y38459191D01*
X18068407Y38495155D01*
X18099000Y38500000D01*
X18553653Y38500000D01*
X18611844Y38481093D01*
X18647808Y38431593D01*
X18649272Y38426649D01*
X18649979Y38424011D01*
X18689540Y38355489D01*
X18745489Y38299540D01*
X18745491Y38299539D01*
X18814007Y38259981D01*
X18814011Y38259979D01*
X18890435Y38239501D01*
X18890437Y38239500D01*
X18890438Y38239500D01*
X18969563Y38239500D01*
X18969563Y38239501D01*
X19045989Y38259979D01*
X19114511Y38299540D01*
X19170460Y38355489D01*
X19210021Y38424011D01*
X19210720Y38426622D01*
X19211774Y38428246D01*
X19212503Y38430003D01*
X19212828Y38429869D01*
X19244041Y38477935D01*
X19301162Y38499864D01*
X19306347Y38500000D01*
X27499999Y38500000D01*
X27500000Y38500000D01*
X27500000Y40901000D01*
X27518907Y40959191D01*
X27568407Y40995155D01*
X27599000Y41000000D01*
X28249999Y41000000D01*
X28250000Y41000000D01*
X28250000Y51250000D01*
X28249999Y51250000D01*
X27599000Y51250000D01*
X27540809Y51268907D01*
X27504845Y51318407D01*
X27500000Y51349000D01*
X27500000Y51651000D01*
X27518907Y51709191D01*
X27568407Y51745155D01*
X27599000Y51750000D01*
X37401000Y51750000D01*
X37459191Y51731093D01*
G37*
%TD.AperFunction*%
%TD*%
M02*
