%TF.GenerationSoftware,KiCad,Pcbnew,9.0.2*%
%TF.CreationDate,2025-07-01T01:10:05-05:00*%
%TF.ProjectId,STEVEannouncer,53544556-4561-46e6-9e6f-756e6365722e,rev?*%
%TF.SameCoordinates,PX52f83c0PY90f5600*%
%TF.FileFunction,Copper,L1,Top*%
%TF.FilePolarity,Positive*%
%FSLAX46Y46*%
G04 Gerber Fmt 4.6, Leading zero omitted, Abs format (unit mm)*
G04 Created by KiCad (PCBNEW 9.0.2) date 2025-07-01 01:10:05*
%MOMM*%
%LPD*%
G01*
G04 APERTURE LIST*
G04 Aperture macros list*
%AMRoundRect*
0 Rectangle with rounded corners*
0 $1 Rounding radius*
0 $2 $3 $4 $5 $6 $7 $8 $9 X,Y pos of 4 corners*
0 Add a 4 corners polygon primitive as box body*
4,1,4,$2,$3,$4,$5,$6,$7,$8,$9,$2,$3,0*
0 Add four circle primitives for the rounded corners*
1,1,$1+$1,$2,$3*
1,1,$1+$1,$4,$5*
1,1,$1+$1,$6,$7*
1,1,$1+$1,$8,$9*
0 Add four rect primitives between the rounded corners*
20,1,$1+$1,$2,$3,$4,$5,0*
20,1,$1+$1,$4,$5,$6,$7,0*
20,1,$1+$1,$6,$7,$8,$9,0*
20,1,$1+$1,$8,$9,$2,$3,0*%
%AMFreePoly0*
4,1,9,3.862500,-0.866500,0.737500,-0.866500,0.737500,-0.450000,-0.737500,-0.450000,-0.737500,0.450000,0.737500,0.450000,0.737500,0.866500,3.862500,0.866500,3.862500,-0.866500,3.862500,-0.866500,$1*%
G04 Aperture macros list end*
%TA.AperFunction,ComponentPad*%
%ADD10C,2.200000*%
%TD*%
%TA.AperFunction,ComponentPad*%
%ADD11C,2.000000*%
%TD*%
%TA.AperFunction,SMDPad,CuDef*%
%ADD12RoundRect,0.135000X-0.185000X0.135000X-0.185000X-0.135000X0.185000X-0.135000X0.185000X0.135000X0*%
%TD*%
%TA.AperFunction,SMDPad,CuDef*%
%ADD13RoundRect,0.140000X0.140000X0.170000X-0.140000X0.170000X-0.140000X-0.170000X0.140000X-0.170000X0*%
%TD*%
%TA.AperFunction,SMDPad,CuDef*%
%ADD14RoundRect,0.250000X-0.250000X-2.500000X0.250000X-2.500000X0.250000X2.500000X-0.250000X2.500000X0*%
%TD*%
%TA.AperFunction,SMDPad,CuDef*%
%ADD15RoundRect,0.250000X-0.550000X-1.250000X0.550000X-1.250000X0.550000X1.250000X-0.550000X1.250000X0*%
%TD*%
%TA.AperFunction,SMDPad,CuDef*%
%ADD16RoundRect,0.135000X0.135000X0.185000X-0.135000X0.185000X-0.135000X-0.185000X0.135000X-0.185000X0*%
%TD*%
%TA.AperFunction,SMDPad,CuDef*%
%ADD17RoundRect,0.100000X0.712500X0.100000X-0.712500X0.100000X-0.712500X-0.100000X0.712500X-0.100000X0*%
%TD*%
%TA.AperFunction,ComponentPad*%
%ADD18C,3.400000*%
%TD*%
%TA.AperFunction,ComponentPad*%
%ADD19C,2.900000*%
%TD*%
%TA.AperFunction,SMDPad,CuDef*%
%ADD20RoundRect,0.140000X-0.140000X-0.170000X0.140000X-0.170000X0.140000X0.170000X-0.140000X0.170000X0*%
%TD*%
%TA.AperFunction,SMDPad,CuDef*%
%ADD21RoundRect,0.250000X-0.650000X0.325000X-0.650000X-0.325000X0.650000X-0.325000X0.650000X0.325000X0*%
%TD*%
%TA.AperFunction,ComponentPad*%
%ADD22C,3.600000*%
%TD*%
%TA.AperFunction,ConnectorPad*%
%ADD23C,6.400000*%
%TD*%
%TA.AperFunction,SMDPad,CuDef*%
%ADD24RoundRect,0.150000X0.725000X0.150000X-0.725000X0.150000X-0.725000X-0.150000X0.725000X-0.150000X0*%
%TD*%
%TA.AperFunction,SMDPad,CuDef*%
%ADD25RoundRect,0.250000X0.250000X2.500000X-0.250000X2.500000X-0.250000X-2.500000X0.250000X-2.500000X0*%
%TD*%
%TA.AperFunction,SMDPad,CuDef*%
%ADD26RoundRect,0.250000X0.550000X1.250000X-0.550000X1.250000X-0.550000X-1.250000X0.550000X-1.250000X0*%
%TD*%
%TA.AperFunction,SMDPad,CuDef*%
%ADD27RoundRect,0.135000X0.185000X-0.135000X0.185000X0.135000X-0.185000X0.135000X-0.185000X-0.135000X0*%
%TD*%
%TA.AperFunction,SMDPad,CuDef*%
%ADD28RoundRect,0.100000X0.155000X0.100000X-0.155000X0.100000X-0.155000X-0.100000X0.155000X-0.100000X0*%
%TD*%
%TA.AperFunction,SMDPad,CuDef*%
%ADD29RoundRect,0.150000X-0.200000X0.150000X-0.200000X-0.150000X0.200000X-0.150000X0.200000X0.150000X0*%
%TD*%
%TA.AperFunction,SMDPad,CuDef*%
%ADD30RoundRect,0.147500X0.172500X-0.147500X0.172500X0.147500X-0.172500X0.147500X-0.172500X-0.147500X0*%
%TD*%
%TA.AperFunction,SMDPad,CuDef*%
%ADD31RoundRect,0.250000X0.950000X0.500000X-0.950000X0.500000X-0.950000X-0.500000X0.950000X-0.500000X0*%
%TD*%
%TA.AperFunction,SMDPad,CuDef*%
%ADD32RoundRect,0.250000X0.275000X0.500000X-0.275000X0.500000X-0.275000X-0.500000X0.275000X-0.500000X0*%
%TD*%
%TA.AperFunction,SMDPad,CuDef*%
%ADD33RoundRect,0.140000X0.170000X-0.140000X0.170000X0.140000X-0.170000X0.140000X-0.170000X-0.140000X0*%
%TD*%
%TA.AperFunction,SMDPad,CuDef*%
%ADD34RoundRect,0.135000X-0.135000X-0.185000X0.135000X-0.185000X0.135000X0.185000X-0.135000X0.185000X0*%
%TD*%
%TA.AperFunction,SMDPad,CuDef*%
%ADD35RoundRect,0.225000X-0.250000X0.225000X-0.250000X-0.225000X0.250000X-0.225000X0.250000X0.225000X0*%
%TD*%
%TA.AperFunction,SMDPad,CuDef*%
%ADD36RoundRect,0.250000X0.550000X-1.500000X0.550000X1.500000X-0.550000X1.500000X-0.550000X-1.500000X0*%
%TD*%
%TA.AperFunction,SMDPad,CuDef*%
%ADD37RoundRect,0.050000X-0.075000X0.250000X-0.075000X-0.250000X0.075000X-0.250000X0.075000X0.250000X0*%
%TD*%
%TA.AperFunction,ComponentPad*%
%ADD38C,0.600000*%
%TD*%
%TA.AperFunction,SMDPad,CuDef*%
%ADD39R,1.050000X0.680000*%
%TD*%
%TA.AperFunction,SMDPad,CuDef*%
%ADD40RoundRect,0.050000X-0.300000X0.075000X-0.300000X-0.075000X0.300000X-0.075000X0.300000X0.075000X0*%
%TD*%
%TA.AperFunction,SMDPad,CuDef*%
%ADD41R,2.400000X1.650000*%
%TD*%
%TA.AperFunction,SMDPad,CuDef*%
%ADD42RoundRect,0.150000X0.150000X0.200000X-0.150000X0.200000X-0.150000X-0.200000X0.150000X-0.200000X0*%
%TD*%
%TA.AperFunction,SMDPad,CuDef*%
%ADD43RoundRect,0.225000X0.250000X-0.225000X0.250000X0.225000X-0.250000X0.225000X-0.250000X-0.225000X0*%
%TD*%
%TA.AperFunction,SMDPad,CuDef*%
%ADD44RoundRect,0.150000X-0.150000X-0.200000X0.150000X-0.200000X0.150000X0.200000X-0.150000X0.200000X0*%
%TD*%
%TA.AperFunction,SMDPad,CuDef*%
%ADD45C,1.000000*%
%TD*%
%TA.AperFunction,SMDPad,CuDef*%
%ADD46R,1.300000X3.500000*%
%TD*%
%TA.AperFunction,ComponentPad*%
%ADD47C,3.700000*%
%TD*%
%TA.AperFunction,SMDPad,CuDef*%
%ADD48RoundRect,0.250000X-0.950000X-0.500000X0.950000X-0.500000X0.950000X0.500000X-0.950000X0.500000X0*%
%TD*%
%TA.AperFunction,SMDPad,CuDef*%
%ADD49RoundRect,0.250000X-0.275000X-0.500000X0.275000X-0.500000X0.275000X0.500000X-0.275000X0.500000X0*%
%TD*%
%TA.AperFunction,SMDPad,CuDef*%
%ADD50RoundRect,0.147500X-0.147500X-0.172500X0.147500X-0.172500X0.147500X0.172500X-0.147500X0.172500X0*%
%TD*%
%TA.AperFunction,SMDPad,CuDef*%
%ADD51RoundRect,0.140000X-0.170000X0.140000X-0.170000X-0.140000X0.170000X-0.140000X0.170000X0.140000X0*%
%TD*%
%TA.AperFunction,SMDPad,CuDef*%
%ADD52RoundRect,0.250000X-0.625000X0.312500X-0.625000X-0.312500X0.625000X-0.312500X0.625000X0.312500X0*%
%TD*%
%TA.AperFunction,SMDPad,CuDef*%
%ADD53RoundRect,0.062500X0.287500X0.062500X-0.287500X0.062500X-0.287500X-0.062500X0.287500X-0.062500X0*%
%TD*%
%TA.AperFunction,HeatsinkPad*%
%ADD54C,0.500000*%
%TD*%
%TA.AperFunction,HeatsinkPad*%
%ADD55R,1.200000X2.000000*%
%TD*%
%TA.AperFunction,SMDPad,CuDef*%
%ADD56RoundRect,0.150000X-0.450000X-0.150000X0.450000X-0.150000X0.450000X0.150000X-0.450000X0.150000X0*%
%TD*%
%TA.AperFunction,SMDPad,CuDef*%
%ADD57RoundRect,0.218750X-0.218750X-0.256250X0.218750X-0.256250X0.218750X0.256250X-0.218750X0.256250X0*%
%TD*%
%TA.AperFunction,SMDPad,CuDef*%
%ADD58RoundRect,0.175000X-0.175000X-0.325000X0.175000X-0.325000X0.175000X0.325000X-0.175000X0.325000X0*%
%TD*%
%TA.AperFunction,SMDPad,CuDef*%
%ADD59RoundRect,0.150000X-0.200000X-0.150000X0.200000X-0.150000X0.200000X0.150000X-0.200000X0.150000X0*%
%TD*%
%TA.AperFunction,SMDPad,CuDef*%
%ADD60RoundRect,0.147500X-0.172500X0.147500X-0.172500X-0.147500X0.172500X-0.147500X0.172500X0.147500X0*%
%TD*%
%TA.AperFunction,ComponentPad*%
%ADD61C,3.000000*%
%TD*%
%TA.AperFunction,SMDPad,CuDef*%
%ADD62RoundRect,0.100000X-0.637500X-0.100000X0.637500X-0.100000X0.637500X0.100000X-0.637500X0.100000X0*%
%TD*%
%TA.AperFunction,SMDPad,CuDef*%
%ADD63RoundRect,0.250000X-0.325000X-0.650000X0.325000X-0.650000X0.325000X0.650000X-0.325000X0.650000X0*%
%TD*%
%TA.AperFunction,SMDPad,CuDef*%
%ADD64RoundRect,0.250000X0.500000X-0.950000X0.500000X0.950000X-0.500000X0.950000X-0.500000X-0.950000X0*%
%TD*%
%TA.AperFunction,SMDPad,CuDef*%
%ADD65RoundRect,0.250000X0.500000X-0.275000X0.500000X0.275000X-0.500000X0.275000X-0.500000X-0.275000X0*%
%TD*%
%TA.AperFunction,SMDPad,CuDef*%
%ADD66RoundRect,0.225000X0.225000X-0.425000X0.225000X0.425000X-0.225000X0.425000X-0.225000X-0.425000X0*%
%TD*%
%TA.AperFunction,SMDPad,CuDef*%
%ADD67FreePoly0,90.000000*%
%TD*%
%TA.AperFunction,SMDPad,CuDef*%
%ADD68RoundRect,0.175000X0.175000X0.325000X-0.175000X0.325000X-0.175000X-0.325000X0.175000X-0.325000X0*%
%TD*%
%TA.AperFunction,SMDPad,CuDef*%
%ADD69RoundRect,0.150000X0.200000X0.150000X-0.200000X0.150000X-0.200000X-0.150000X0.200000X-0.150000X0*%
%TD*%
%TA.AperFunction,SMDPad,CuDef*%
%ADD70RoundRect,0.150000X-0.725000X-0.150000X0.725000X-0.150000X0.725000X0.150000X-0.725000X0.150000X0*%
%TD*%
%TA.AperFunction,SMDPad,CuDef*%
%ADD71RoundRect,0.147500X0.147500X0.172500X-0.147500X0.172500X-0.147500X-0.172500X0.147500X-0.172500X0*%
%TD*%
%TA.AperFunction,SMDPad,CuDef*%
%ADD72RoundRect,0.249998X-4.550002X3.650002X-4.550002X-3.650002X4.550002X-3.650002X4.550002X3.650002X0*%
%TD*%
%TA.AperFunction,SMDPad,CuDef*%
%ADD73RoundRect,0.062500X-0.287500X-0.062500X0.287500X-0.062500X0.287500X0.062500X-0.287500X0.062500X0*%
%TD*%
%TA.AperFunction,ViaPad*%
%ADD74C,0.500000*%
%TD*%
%TA.AperFunction,Conductor*%
%ADD75C,0.400000*%
%TD*%
%TA.AperFunction,Conductor*%
%ADD76C,0.250000*%
%TD*%
%TA.AperFunction,Conductor*%
%ADD77C,0.750000*%
%TD*%
%TA.AperFunction,Conductor*%
%ADD78C,0.200000*%
%TD*%
%TA.AperFunction,Conductor*%
%ADD79C,0.500000*%
%TD*%
%TA.AperFunction,Conductor*%
%ADD80C,1.000000*%
%TD*%
%TA.AperFunction,Conductor*%
%ADD81C,1.500000*%
%TD*%
%TA.AperFunction,Conductor*%
%ADD82C,0.300000*%
%TD*%
%TA.AperFunction,Conductor*%
%ADD83C,0.600000*%
%TD*%
G04 APERTURE END LIST*
D10*
%TO.P,RV402,1,1*%
%TO.N,Net-(J404-Pin_1)*%
X95000000Y3800000D03*
%TO.P,RV402,2,2*%
%TO.N,Net-(J404-Pin_2)*%
X100000000Y3800000D03*
%TO.P,RV402,3,3*%
%TO.N,Net-(J404-Pin_3-Pad3)*%
X105000000Y3800000D03*
%TD*%
%TO.P,RV401,1,1*%
%TO.N,Net-(J402-Pin_1)*%
X75000000Y3800000D03*
%TO.P,RV401,2,2*%
%TO.N,Net-(J402-Pin_2)*%
X80000000Y3800000D03*
%TO.P,RV401,3,3*%
%TO.N,Net-(J402-Pin_3-Pad3)*%
X85000000Y3800000D03*
%TD*%
D11*
%TO.P,SW302,1,A*%
%TO.N,Net-(J305-Pin_2)*%
X95000000Y32800000D03*
%TO.P,SW302,2,B*%
%TO.N,Net-(J305-Pin_1)*%
X100000000Y34900000D03*
%TD*%
%TO.P,SW301,1,A*%
%TO.N,Net-(J302-Pin_2)*%
X75000000Y32800000D03*
%TO.P,SW301,2,B*%
%TO.N,Net-(J302-Pin_1)*%
X80000000Y34900000D03*
%TD*%
D12*
%TO.P,R402,1*%
%TO.N,Net-(C402-Pad2)*%
X47800000Y43620000D03*
%TO.P,R402,2*%
%TO.N,/IFB Path/VCA_INR*%
X47800000Y42600000D03*
%TD*%
D13*
%TO.P,C416,1*%
%TO.N,Net-(C416-Pad1)*%
X85480000Y65250000D03*
%TO.P,C416,2*%
%TO.N,GND*%
X84520000Y65250000D03*
%TD*%
D14*
%TO.P,J405,1,Pin_1*%
%TO.N,Net-(J405-Pin_1)*%
X52400000Y60400000D03*
%TO.P,J405,2,Pin_2*%
%TO.N,Net-(J405-Pin_2)*%
X54400000Y60400000D03*
%TO.P,J405,3,Pin_3*%
%TO.N,GND*%
X56400000Y60400000D03*
D15*
%TO.P,J405,MP,Pin_3*%
%TO.N,unconnected-(J405-Pin_3-PadMP)_1*%
X50000000Y62650000D03*
%TO.N,unconnected-(J405-Pin_3-PadMP)*%
X58800000Y62650000D03*
%TD*%
D16*
%TO.P,R203,1*%
%TO.N,Net-(D201-A)*%
X88410000Y56387500D03*
%TO.P,R203,2*%
%TO.N,Net-(Q201-C)*%
X87390000Y56387500D03*
%TD*%
D13*
%TO.P,C417,1*%
%TO.N,GND*%
X83500000Y65250000D03*
%TO.P,C417,2*%
%TO.N,Net-(C417-Pad2)*%
X82540000Y65250000D03*
%TD*%
D17*
%TO.P,U401,1,NC*%
%TO.N,unconnected-(U401C-NC-Pad1)*%
X54637500Y38777500D03*
%TO.P,U401,2,OUT*%
%TO.N,/IFB Path/VCA_OUTL*%
X54637500Y39412500D03*
%TO.P,U401,3,SYM*%
%TO.N,unconnected-(U401A-SYM-Pad3)*%
X54637500Y40047500D03*
%TO.P,U401,4,E-*%
%TO.N,/IFB Path/VCAL_E-*%
X54637500Y40682500D03*
%TO.P,U401,5,V-*%
%TO.N,-5V*%
X54637500Y41317500D03*
%TO.P,U401,6,E+*%
%TO.N,GND*%
X54637500Y41952500D03*
%TO.P,U401,7,IN*%
%TO.N,/IFB Path/VCA_INL*%
X54637500Y42587500D03*
%TO.P,U401,8,GND*%
%TO.N,GND*%
X54637500Y43222500D03*
%TO.P,U401,9,NC*%
%TO.N,unconnected-(U401C-NC-Pad9)*%
X49362500Y43222500D03*
%TO.P,U401,10,IN*%
%TO.N,/IFB Path/VCA_INR*%
X49362500Y42587500D03*
%TO.P,U401,11,E+*%
%TO.N,GND*%
X49362500Y41952500D03*
%TO.P,U401,12,V+*%
%TO.N,+5V*%
X49362500Y41317500D03*
%TO.P,U401,13,E-*%
%TO.N,/IFB Path/VCAR_E-*%
X49362500Y40682500D03*
%TO.P,U401,14,SYM*%
%TO.N,unconnected-(U401B-SYM-Pad14)*%
X49362500Y40047500D03*
%TO.P,U401,15,OUT*%
%TO.N,/IFB Path/VCA_OUTR*%
X49362500Y39412500D03*
%TO.P,U401,16,NC*%
%TO.N,unconnected-(U401C-NC-Pad16)*%
X49362500Y38777500D03*
%TD*%
D16*
%TO.P,R411,1*%
%TO.N,/IFB Path/VCA_OUTL*%
X53610000Y31655000D03*
%TO.P,R411,2*%
%TO.N,/IFB Path/HP_L*%
X52590000Y31655000D03*
%TD*%
D18*
%TO.P,J401,1*%
%TO.N,GND*%
X78190000Y73300000D03*
%TO.P,J401,2*%
%TO.N,Net-(C416-Pad1)*%
X85810000Y72665000D03*
D19*
%TO.P,J401,3*%
%TO.N,Net-(C417-Pad2)*%
X82000000Y68850000D03*
%TO.P,J401,G*%
%TO.N,GND*%
X73750000Y79020000D03*
%TD*%
D14*
%TO.P,J403,1,Pin_1*%
%TO.N,Net-(J403-Pin_1)*%
X64200000Y60400000D03*
%TO.P,J403,2,Pin_2*%
%TO.N,Net-(J403-Pin_2)*%
X66200000Y60400000D03*
%TO.P,J403,3,Pin_3*%
%TO.N,GND*%
X68200000Y60400000D03*
D15*
%TO.P,J403,MP,Pin_3*%
%TO.N,unconnected-(J403-Pin_3-PadMP)*%
X61800000Y62650000D03*
%TO.N,unconnected-(J403-Pin_3-PadMP)_1*%
X70600000Y62650000D03*
%TD*%
D20*
%TO.P,C322,1*%
%TO.N,+5V*%
X35040000Y60600000D03*
%TO.P,C322,2*%
%TO.N,GND*%
X36000000Y60600000D03*
%TD*%
%TO.P,C303,1*%
%TO.N,/Mic Path/Mic2*%
X15845000Y20600000D03*
%TO.P,C303,2*%
%TO.N,Net-(C302-Pad2)*%
X16805000Y20600000D03*
%TD*%
D18*
%TO.P,J306,1*%
%TO.N,GND*%
X46810000Y68220000D03*
%TO.P,J306,2*%
%TO.N,/Mic Path/TB_OUT2*%
X39190000Y68220000D03*
D19*
%TO.P,J306,3*%
%TO.N,/Mic Path/TB_OUT3*%
X43000000Y68220000D03*
%TO.P,J306,G*%
%TO.N,GND*%
X43000000Y73300000D03*
%TD*%
D21*
%TO.P,C207,1*%
%TO.N,+5V*%
X77050000Y46215000D03*
%TO.P,C207,2*%
%TO.N,GND*%
X77050000Y43265000D03*
%TD*%
D22*
%TO.P,H103,1,1*%
%TO.N,GND*%
X106000000Y42000000D03*
D23*
X106000000Y42000000D03*
%TD*%
D13*
%TO.P,C301,1*%
%TO.N,-5V*%
X26455000Y59925000D03*
%TO.P,C301,2*%
%TO.N,GND*%
X25495000Y59925000D03*
%TD*%
D24*
%TO.P,U304,1,OUT-*%
%TO.N,/Mic Path/MicOut-*%
X21875000Y56845000D03*
%TO.P,U304,2,SNS-*%
%TO.N,Net-(U304-SNS-)*%
X21875000Y58115000D03*
%TO.P,U304,3,GND*%
%TO.N,GND*%
X21875000Y59385000D03*
%TO.P,U304,4,IN*%
%TO.N,/Mic Path/MicOut*%
X21875000Y60655000D03*
%TO.P,U304,5,V-*%
%TO.N,-5V*%
X16725000Y60655000D03*
%TO.P,U304,6,V+*%
%TO.N,+5V*%
X16725000Y59385000D03*
%TO.P,U304,7,SNS+*%
%TO.N,Net-(U304-SNS+)*%
X16725000Y58115000D03*
%TO.P,U304,8,OUT+*%
%TO.N,/Mic Path/MicOut+*%
X16725000Y56845000D03*
%TD*%
D25*
%TO.P,J304,1,Pin_1*%
%TO.N,Net-(J304-Pin_1)*%
X26000000Y46500000D03*
%TO.P,J304,2,Pin_2*%
%TO.N,/Mic Path/MuteSel*%
X24000000Y46500000D03*
D26*
%TO.P,J304,MP,MP*%
%TO.N,unconnected-(J304-PadMP)_1*%
X28400000Y44250000D03*
%TO.N,unconnected-(J304-PadMP)*%
X21600000Y44250000D03*
%TD*%
D27*
%TO.P,R405,1*%
%TO.N,Net-(J405-Pin_2)*%
X55800000Y49600000D03*
%TO.P,R405,2*%
%TO.N,Net-(R405-Pad2)*%
X55800000Y50620000D03*
%TD*%
D28*
%TO.P,Q201,1,B*%
%TO.N,Net-(Q201-B)*%
X85355000Y54187500D03*
%TO.P,Q201,2,E*%
%TO.N,Net-(D202-A)*%
X85355000Y53187500D03*
%TO.P,Q201,3,C*%
%TO.N,Net-(Q201-C)*%
X86645000Y53687500D03*
%TD*%
D21*
%TO.P,C208,1*%
%TO.N,GND*%
X86550000Y46235000D03*
%TO.P,C208,2*%
%TO.N,-5V*%
X86550000Y43285000D03*
%TD*%
D29*
%TO.P,D203,1,K*%
%TO.N,/Power/vbulk*%
X107400000Y68500000D03*
%TO.P,D203,2,A*%
%TO.N,Net-(D203-A)*%
X107400000Y69900000D03*
%TD*%
D30*
%TO.P,FB302,1*%
%TO.N,/Mic Path/MicOut-*%
X20400000Y64365000D03*
%TO.P,FB302,2*%
%TO.N,/Mic Path/MicOut3*%
X20400000Y65335000D03*
%TD*%
D13*
%TO.P,C201,1*%
%TO.N,Net-(Q201-C)*%
X86480000Y52087500D03*
%TO.P,C201,2*%
%TO.N,Net-(D202-A)*%
X85520000Y52087500D03*
%TD*%
D31*
%TO.P,D302,1,K*%
%TO.N,+5V*%
X11415000Y52580000D03*
D32*
%TO.P,D302,2,A*%
%TO.N,GND*%
X13790000Y52580000D03*
%TD*%
D27*
%TO.P,R320,1*%
%TO.N,Net-(R317-Pad1)*%
X42630000Y59020000D03*
%TO.P,R320,2*%
%TO.N,Net-(D308-Pad3)*%
X42630000Y60040000D03*
%TD*%
D20*
%TO.P,C314,1*%
%TO.N,GND*%
X14170000Y59450000D03*
%TO.P,C314,2*%
%TO.N,+5V*%
X15130000Y59450000D03*
%TD*%
D33*
%TO.P,C409,1*%
%TO.N,GND*%
X50741552Y28326172D03*
%TO.P,C409,2*%
%TO.N,Net-(D405-A)*%
X50741552Y29286172D03*
%TD*%
D34*
%TO.P,R309,1*%
%TO.N,/Mic Path/MuteSel*%
X25990000Y51500000D03*
%TO.P,R309,2*%
%TO.N,+5V*%
X27010000Y51500000D03*
%TD*%
D33*
%TO.P,C406,1*%
%TO.N,Net-(J403-Pin_2)*%
X49690000Y50130000D03*
%TO.P,C406,2*%
%TO.N,GND*%
X49690000Y51090000D03*
%TD*%
D35*
%TO.P,C203,1*%
%TO.N,/Power/vbulk*%
X83050000Y41875000D03*
%TO.P,C203,2*%
%TO.N,GND*%
X83050000Y40325000D03*
%TD*%
D13*
%TO.P,C323,1*%
%TO.N,GND*%
X36480000Y52500000D03*
%TO.P,C323,2*%
%TO.N,/Mic Path/TBSel*%
X35520000Y52500000D03*
%TD*%
D34*
%TO.P,R311,1*%
%TO.N,/Mic Path/TBOut*%
X36630000Y56270000D03*
%TO.P,R311,2*%
%TO.N,Net-(U302A-+)*%
X37650000Y56270000D03*
%TD*%
D36*
%TO.P,C306,1*%
%TO.N,/Mic Path/Mic3*%
X20900000Y22625000D03*
%TO.P,C306,2*%
%TO.N,Net-(C306-Pad2)*%
X20900000Y28025000D03*
%TD*%
D37*
%TO.P,U403,1,+*%
%TO.N,GND*%
X53000000Y36630000D03*
%TO.P,U403,2,V+*%
%TO.N,+5V*%
X52500000Y36630000D03*
%TO.P,U403,3,GND*%
%TO.N,GND*%
X52000000Y36630000D03*
%TO.P,U403,4,V-*%
%TO.N,-5V*%
X51500000Y36630000D03*
%TO.P,U403,5,+*%
%TO.N,GND*%
X51000000Y36630000D03*
%TO.P,U403,6,-*%
%TO.N,/IFB Path/VCA_OUTR*%
X51000000Y33830000D03*
%TO.P,U403,7*%
%TO.N,/IFB Path/HP_R*%
X51500000Y33830000D03*
%TO.P,U403,8,EN*%
%TO.N,Net-(D405-A)*%
X52000000Y33830000D03*
%TO.P,U403,9*%
%TO.N,/IFB Path/HP_L*%
X52500000Y33830000D03*
%TO.P,U403,10,-*%
%TO.N,/IFB Path/VCA_OUTL*%
X53000000Y33830000D03*
D38*
%TO.P,U403,11,V-*%
%TO.N,-5V*%
X52750000Y35730000D03*
X51250000Y35730000D03*
D39*
X52635000Y35680000D03*
X51365000Y35680000D03*
D40*
X53350000Y35480000D03*
X50650000Y35480000D03*
D38*
X52000000Y35230000D03*
D41*
X52000000Y35230000D03*
D40*
X53350000Y34980000D03*
X50650000Y34980000D03*
D39*
X52635000Y34780000D03*
X51365000Y34780000D03*
D38*
X52750000Y34730000D03*
X51250000Y34730000D03*
%TD*%
D22*
%TO.P,H101,1,1*%
%TO.N,GND*%
X4000000Y4000000D03*
D23*
X4000000Y4000000D03*
%TD*%
D18*
%TO.P,J301,1*%
%TO.N,GND*%
X23810000Y12700000D03*
%TO.P,J301,2*%
%TO.N,/Mic Path/Mic2*%
X16190000Y13335000D03*
D19*
%TO.P,J301,3*%
%TO.N,/Mic Path/Mic3*%
X20000000Y17150000D03*
%TO.P,J301,G*%
%TO.N,GND*%
X28250000Y6980000D03*
%TD*%
D42*
%TO.P,D403,1,K*%
%TO.N,/IFB Path/VCA_INL*%
X57300000Y43800000D03*
%TO.P,D403,2,A*%
%TO.N,GND*%
X58700000Y43800000D03*
%TD*%
D43*
%TO.P,C204,1*%
%TO.N,/Power/vbulk*%
X92530000Y42000000D03*
%TO.P,C204,2*%
%TO.N,GND*%
X92530000Y43550000D03*
%TD*%
D27*
%TO.P,R209,1*%
%TO.N,+5V*%
X64000000Y82490000D03*
%TO.P,R209,2*%
%TO.N,Net-(D204-A)*%
X64000000Y83510000D03*
%TD*%
D36*
%TO.P,C305,1*%
%TO.N,/Mic Path/Mic2*%
X13650000Y22625000D03*
%TO.P,C305,2*%
%TO.N,Net-(C305-Pad2)*%
X13650000Y28025000D03*
%TD*%
D20*
%TO.P,C308,1*%
%TO.N,GND*%
X40770000Y59060000D03*
%TO.P,C308,2*%
%TO.N,+5V*%
X41730000Y59060000D03*
%TD*%
D13*
%TO.P,C404,1*%
%TO.N,Net-(C404-Pad1)*%
X45000000Y42600000D03*
%TO.P,C404,2*%
%TO.N,GND*%
X44040000Y42600000D03*
%TD*%
D14*
%TO.P,J404,1,Pin_1*%
%TO.N,Net-(J404-Pin_1)*%
X98000000Y10500000D03*
%TO.P,J404,2,Pin_2*%
%TO.N,Net-(J404-Pin_2)*%
X100000000Y10500000D03*
%TO.P,J404,3,Pin_3*%
%TO.N,Net-(J404-Pin_3-Pad3)*%
X102000000Y10500000D03*
D15*
%TO.P,J404,MP,Pin_3*%
%TO.N,unconnected-(J404-Pin_3-PadMP)*%
X95600000Y12750000D03*
%TO.N,unconnected-(J404-Pin_3-PadMP)_1*%
X104400000Y12750000D03*
%TD*%
D33*
%TO.P,C310,1*%
%TO.N,+5V*%
X18160000Y37590000D03*
%TO.P,C310,2*%
%TO.N,GND*%
X18160000Y38550000D03*
%TD*%
D34*
%TO.P,R201,1*%
%TO.N,IFB_PIN2*%
X85490000Y56387500D03*
%TO.P,R201,2*%
%TO.N,Net-(Q201-C)*%
X86510000Y56387500D03*
%TD*%
D25*
%TO.P,J303,1,Pin_1*%
%TO.N,Net-(J303-Pin_1)*%
X35500000Y46500000D03*
%TO.P,J303,2,Pin_2*%
%TO.N,/Mic Path/TBSel*%
X33500000Y46500000D03*
D26*
%TO.P,J303,MP,MP*%
%TO.N,unconnected-(J303-PadMP)_1*%
X37900000Y44250000D03*
%TO.N,unconnected-(J303-PadMP)*%
X31100000Y44250000D03*
%TD*%
D20*
%TO.P,C414,1*%
%TO.N,GND*%
X50460000Y37840000D03*
%TO.P,C414,2*%
%TO.N,-5V*%
X51420000Y37840000D03*
%TD*%
D27*
%TO.P,R303,1*%
%TO.N,/Mic Path/Micpre+*%
X15175000Y30990000D03*
%TO.P,R303,2*%
%TO.N,Net-(R303-Pad2)*%
X15175000Y32010000D03*
%TD*%
D16*
%TO.P,R319,1*%
%TO.N,Net-(R316-Pad1)*%
X37746000Y59068500D03*
%TO.P,R319,2*%
%TO.N,Net-(D308-Pad2)*%
X36726000Y59068500D03*
%TD*%
D44*
%TO.P,D306,1,K*%
%TO.N,/Mic Path/TBSel*%
X31200000Y51500000D03*
%TO.P,D306,2,A*%
%TO.N,/Mic Path/MuteSel*%
X29800000Y51500000D03*
%TD*%
D45*
%TO.P,FID103,*%
%TO.N,*%
X106000000Y75000000D03*
%TD*%
D46*
%TO.P,L202,1,1*%
%TO.N,Net-(U202-SW)*%
X90850000Y46620000D03*
%TO.P,L202,2,2*%
%TO.N,GND*%
X88650000Y46620000D03*
%TD*%
D47*
%TO.P,J201,1*%
%TO.N,Net-(D203-A)*%
X102300000Y72060000D03*
%TO.P,J201,2*%
%TO.N,GND*%
X99000000Y77650000D03*
%TO.P,J201,3*%
X95700000Y72060000D03*
%TD*%
D48*
%TO.P,D303,1,K*%
%TO.N,GND*%
X13125000Y49950000D03*
D49*
%TO.P,D303,2,A*%
%TO.N,-5V*%
X10750000Y49950000D03*
%TD*%
D29*
%TO.P,D405,1,K*%
%TO.N,+5V*%
X51991552Y28416068D03*
%TO.P,D405,2,A*%
%TO.N,Net-(D405-A)*%
X51991552Y29816068D03*
%TD*%
D27*
%TO.P,R205,1*%
%TO.N,Net-(U201-FB)*%
X77730000Y41000000D03*
%TO.P,R205,2*%
%TO.N,GND*%
X77730000Y42020000D03*
%TD*%
D42*
%TO.P,D402,1,K*%
%TO.N,GND*%
X45300000Y43800000D03*
%TO.P,D402,2,A*%
%TO.N,/IFB Path/VCA_INR*%
X46700000Y43800000D03*
%TD*%
D20*
%TO.P,C413,1*%
%TO.N,GND*%
X51800000Y51590000D03*
%TO.P,C413,2*%
%TO.N,-5V*%
X52760000Y51590000D03*
%TD*%
D13*
%TO.P,C410,1*%
%TO.N,GND*%
X57090000Y41320000D03*
%TO.P,C410,2*%
%TO.N,-5V*%
X56130000Y41320000D03*
%TD*%
D50*
%TO.P,FB303,1*%
%TO.N,Net-(D308-Pad2)*%
X38870000Y64315000D03*
%TO.P,FB303,2*%
%TO.N,/Mic Path/TB_OUT2*%
X39840000Y64315000D03*
%TD*%
D20*
%TO.P,C315,1*%
%TO.N,GND*%
X14170000Y60650000D03*
%TO.P,C315,2*%
%TO.N,-5V*%
X15130000Y60650000D03*
%TD*%
D51*
%TO.P,C402,1*%
%TO.N,/IFB Path/IFB_Pin3*%
X47800000Y45460000D03*
%TO.P,C402,2*%
%TO.N,Net-(C402-Pad2)*%
X47800000Y44500000D03*
%TD*%
D30*
%TO.P,FB301,1*%
%TO.N,/Mic Path/MicOut+*%
X15800000Y64415000D03*
%TO.P,FB301,2*%
%TO.N,/Mic Path/MicOut2*%
X15800000Y65385000D03*
%TD*%
D52*
%TO.P,R301,1*%
%TO.N,/Mic Path/Micpre+*%
X8900000Y26787500D03*
%TO.P,R301,2*%
%TO.N,Net-(C305-Pad2)*%
X8900000Y23862500D03*
%TD*%
D20*
%TO.P,C403,1*%
%TO.N,Net-(C403-Pad1)*%
X59020000Y42600000D03*
%TO.P,C403,2*%
%TO.N,GND*%
X59980000Y42600000D03*
%TD*%
D53*
%TO.P,U402,1*%
%TO.N,/IFB Path/VCAL_E-*%
X53630000Y48630000D03*
%TO.P,U402,2,-*%
X53630000Y49130000D03*
%TO.P,U402,3,+*%
%TO.N,Net-(J405-Pin_2)*%
X53630000Y49630000D03*
%TO.P,U402,4,V-*%
%TO.N,-5V*%
X53630000Y50130000D03*
%TO.P,U402,5,+*%
%TO.N,Net-(J403-Pin_2)*%
X50930000Y50130000D03*
%TO.P,U402,6,-*%
%TO.N,/IFB Path/VCAR_E-*%
X50930000Y49630000D03*
%TO.P,U402,7*%
X50930000Y49130000D03*
%TO.P,U402,8,V+*%
%TO.N,+5V*%
X50930000Y48630000D03*
D54*
%TO.P,U402,9,Pad*%
%TO.N,-5V*%
X52630000Y48630000D03*
X52630000Y49380000D03*
X52630000Y50130000D03*
D55*
X52280000Y49380000D03*
D54*
X51930000Y48630000D03*
X51930000Y49380000D03*
X51930000Y50130000D03*
%TD*%
D12*
%TO.P,R413,1*%
%TO.N,Net-(D405-A)*%
X53241552Y29316172D03*
%TO.P,R413,2*%
%TO.N,+5V*%
X53241552Y28296172D03*
%TD*%
D56*
%TO.P,U202,1,Boot*%
%TO.N,Net-(U202-Boot)*%
X88450000Y42950000D03*
%TO.P,U202,2,GND*%
%TO.N,-5V*%
X88450000Y42000000D03*
%TO.P,U202,3,FB*%
%TO.N,Net-(U202-FB)*%
X88450000Y41050000D03*
%TO.P,U202,4,EN*%
%TO.N,/Power/vbulk*%
X91050000Y41050000D03*
%TO.P,U202,5,VIN*%
X91050000Y42000000D03*
%TO.P,U202,6,SW*%
%TO.N,Net-(U202-SW)*%
X91050000Y42950000D03*
%TD*%
D25*
%TO.P,J305,1,Pin_1*%
%TO.N,Net-(J305-Pin_1)*%
X100000000Y23250000D03*
%TO.P,J305,2,Pin_2*%
%TO.N,Net-(J305-Pin_2)*%
X98000000Y23250000D03*
D26*
%TO.P,J305,MP,MP*%
%TO.N,unconnected-(J305-PadMP)*%
X102400000Y21000000D03*
%TO.N,unconnected-(J305-PadMP)_1*%
X95600000Y21000000D03*
%TD*%
D12*
%TO.P,R409,1*%
%TO.N,+5V*%
X52750000Y53490000D03*
%TO.P,R409,2*%
%TO.N,Net-(R405-Pad2)*%
X52750000Y52470000D03*
%TD*%
D29*
%TO.P,D304,1,K*%
%TO.N,/Mic Path/Micpre+*%
X9500000Y37585000D03*
%TO.P,D304,2,A*%
%TO.N,/Mic Path/RG1*%
X9500000Y38985000D03*
%TD*%
D57*
%TO.P,D204,1,K*%
%TO.N,GND*%
X62000000Y85000000D03*
%TO.P,D204,2,A*%
%TO.N,Net-(D204-A)*%
X63575000Y85000000D03*
%TD*%
D58*
%TO.P,D308,1,-*%
%TO.N,-5V*%
X40250000Y62902500D03*
D59*
%TO.P,D308,2*%
%TO.N,Net-(D308-Pad2)*%
X40250000Y61202500D03*
%TO.P,D308,3*%
%TO.N,Net-(D308-Pad3)*%
X42250000Y61202500D03*
%TO.P,D308,4,+*%
%TO.N,+5V*%
X42250000Y63102500D03*
%TD*%
D60*
%TO.P,FB402,1*%
%TO.N,Net-(C417-Pad2)*%
X81500000Y65235000D03*
%TO.P,FB402,2*%
%TO.N,/IFB Path/IFB_Pin3*%
X81500000Y64265000D03*
%TD*%
D44*
%TO.P,D401,1,K*%
%TO.N,GND*%
X58700000Y45200000D03*
%TO.P,D401,2,A*%
%TO.N,/IFB Path/VCA_INL*%
X57300000Y45200000D03*
%TD*%
D20*
%TO.P,C206,1*%
%TO.N,Net-(U202-Boot)*%
X89270000Y44160000D03*
%TO.P,C206,2*%
%TO.N,Net-(U202-SW)*%
X90230000Y44160000D03*
%TD*%
D33*
%TO.P,C405,1*%
%TO.N,Net-(J405-Pin_2)*%
X54870000Y49630000D03*
%TO.P,C405,2*%
%TO.N,GND*%
X54870000Y50590000D03*
%TD*%
D61*
%TO.P,J407,R*%
%TO.N,unconnected-(J407-PadR)*%
X64430000Y10600000D03*
%TO.P,J407,RN*%
%TO.N,unconnected-(J407-PadRN)*%
X53000000Y10600000D03*
%TO.P,J407,S*%
%TO.N,GND*%
X64430000Y4250000D03*
%TO.P,J407,SN*%
X53000000Y4250000D03*
%TO.P,J407,T*%
%TO.N,/IFB Path/HP_L*%
X64430000Y16950000D03*
%TO.P,J407,TN*%
%TO.N,unconnected-(J407-PadTN)*%
X53000000Y16950000D03*
%TD*%
D22*
%TO.P,H102,1,1*%
%TO.N,GND*%
X4000000Y82000000D03*
D23*
X4000000Y82000000D03*
%TD*%
D12*
%TO.P,R401,1*%
%TO.N,Net-(C401-Pad2)*%
X56200000Y43610000D03*
%TO.P,R401,2*%
%TO.N,/IFB Path/VCA_INL*%
X56200000Y42590000D03*
%TD*%
D62*
%TO.P,U301,1,SEL*%
%TO.N,/Mic Path/MuteSel*%
X27887500Y62525000D03*
%TO.P,U301,2,SA*%
%TO.N,/Mic Path/MicpreOut*%
X27887500Y61875000D03*
%TO.P,U301,3,D*%
%TO.N,/Mic Path/MicOut*%
X27887500Y61225000D03*
%TO.P,U301,4,SB*%
%TO.N,GND*%
X27887500Y60575000D03*
%TO.P,U301,5,VSS*%
%TO.N,-5V*%
X27887500Y59925000D03*
%TO.P,U301,6,GND*%
%TO.N,GND*%
X27887500Y59275000D03*
%TO.P,U301,7,NC*%
%TO.N,unconnected-(U301C-NC-Pad7)*%
X27887500Y58625000D03*
%TO.P,U301,8,NC*%
%TO.N,unconnected-(U301C-NC-Pad8)*%
X27887500Y57975000D03*
%TO.P,U301,9,SEL*%
%TO.N,/Mic Path/TBSel*%
X33612500Y57975000D03*
%TO.P,U301,10,SA*%
%TO.N,GND*%
X33612500Y58625000D03*
%TO.P,U301,11,D*%
%TO.N,/Mic Path/TBOut*%
X33612500Y59275000D03*
%TO.P,U301,12,SB*%
%TO.N,/Mic Path/MicpreOut*%
X33612500Y59925000D03*
%TO.P,U301,13,VCC*%
%TO.N,+5V*%
X33612500Y60575000D03*
%TO.P,U301,14,EN*%
X33612500Y61225000D03*
%TO.P,U301,15,NC*%
%TO.N,unconnected-(U301C-NC-Pad15)*%
X33612500Y61875000D03*
%TO.P,U301,16,NC*%
%TO.N,unconnected-(U301C-NC-Pad16)*%
X33612500Y62525000D03*
%TD*%
D61*
%TO.P,J406,R*%
%TO.N,/IFB Path/HP_R*%
X47430000Y10600000D03*
%TO.P,J406,RN*%
%TO.N,unconnected-(J406-PadRN)*%
X36000000Y10600000D03*
%TO.P,J406,S*%
%TO.N,GND*%
X47430000Y4250000D03*
%TO.P,J406,SN*%
X36000000Y4250000D03*
%TO.P,J406,T*%
%TO.N,/IFB Path/HP_L*%
X47430000Y16950000D03*
%TO.P,J406,TN*%
%TO.N,unconnected-(J406-PadTN)*%
X36000000Y16950000D03*
%TD*%
D34*
%TO.P,R307,1*%
%TO.N,Net-(J303-Pin_1)*%
X35490000Y50500000D03*
%TO.P,R307,2*%
%TO.N,GND*%
X36510000Y50500000D03*
%TD*%
D27*
%TO.P,R208,1*%
%TO.N,Net-(U202-FB)*%
X86290000Y41020000D03*
%TO.P,R208,2*%
%TO.N,GND*%
X86290000Y42040000D03*
%TD*%
D16*
%TO.P,R404,1*%
%TO.N,/IFB Path/VCA_INR*%
X46910000Y42600000D03*
%TO.P,R404,2*%
%TO.N,Net-(C404-Pad1)*%
X45890000Y42600000D03*
%TD*%
D52*
%TO.P,R302,1*%
%TO.N,/Mic Path/Micpre-*%
X25675000Y26787500D03*
%TO.P,R302,2*%
%TO.N,Net-(C306-Pad2)*%
X25675000Y23862500D03*
%TD*%
D18*
%TO.P,J307,1*%
%TO.N,GND*%
X23810000Y68220000D03*
%TO.P,J307,2*%
%TO.N,/Mic Path/MicOut2*%
X16190000Y68220000D03*
D19*
%TO.P,J307,3*%
%TO.N,/Mic Path/MicOut3*%
X20000000Y68220000D03*
%TO.P,J307,G*%
%TO.N,GND*%
X20000000Y73300000D03*
%TD*%
D34*
%TO.P,R403,1*%
%TO.N,/IFB Path/VCA_INL*%
X57100000Y42600000D03*
%TO.P,R403,2*%
%TO.N,Net-(C403-Pad1)*%
X58120000Y42600000D03*
%TD*%
D13*
%TO.P,C324,1*%
%TO.N,GND*%
X26980000Y52500000D03*
%TO.P,C324,2*%
%TO.N,/Mic Path/MuteSel*%
X26020000Y52500000D03*
%TD*%
D45*
%TO.P,FID102,*%
%TO.N,*%
X4000000Y75000000D03*
%TD*%
D34*
%TO.P,R308,1*%
%TO.N,Net-(J304-Pin_1)*%
X26000000Y50500000D03*
%TO.P,R308,2*%
%TO.N,GND*%
X27020000Y50500000D03*
%TD*%
D22*
%TO.P,H104,1,1*%
%TO.N,GND*%
X106000000Y82000000D03*
D23*
X106000000Y82000000D03*
%TD*%
D29*
%TO.P,D202,1,K*%
%TO.N,/Power/vbulk*%
X84300000Y50287500D03*
%TO.P,D202,2,A*%
%TO.N,Net-(D202-A)*%
X84300000Y51687500D03*
%TD*%
D12*
%TO.P,R304,1*%
%TO.N,Net-(R303-Pad2)*%
X19400000Y32010000D03*
%TO.P,R304,2*%
%TO.N,/Mic Path/Micpre-*%
X19400000Y30990000D03*
%TD*%
D20*
%TO.P,C304,1*%
%TO.N,Net-(C302-Pad2)*%
X17745000Y20600000D03*
%TO.P,C304,2*%
%TO.N,/Mic Path/Mic3*%
X18705000Y20600000D03*
%TD*%
D27*
%TO.P,R206,1*%
%TO.N,Net-(U202-FB)*%
X87230000Y41020000D03*
%TO.P,R206,2*%
%TO.N,-5V*%
X87230000Y42040000D03*
%TD*%
D16*
%TO.P,R312,1*%
%TO.N,/Mic Path/TBOut*%
X45760000Y56790000D03*
%TO.P,R312,2*%
%TO.N,Net-(U302B--)*%
X44740000Y56790000D03*
%TD*%
D14*
%TO.P,J402,1,Pin_1*%
%TO.N,Net-(J402-Pin_1)*%
X78000000Y10500000D03*
%TO.P,J402,2,Pin_2*%
%TO.N,Net-(J402-Pin_2)*%
X80000000Y10500000D03*
%TO.P,J402,3,Pin_3*%
%TO.N,Net-(J402-Pin_3-Pad3)*%
X82000000Y10500000D03*
D15*
%TO.P,J402,MP,Pin_3*%
%TO.N,unconnected-(J402-Pin_3-PadMP)_1*%
X75600000Y12750000D03*
%TO.N,unconnected-(J402-Pin_3-PadMP)*%
X84400000Y12750000D03*
%TD*%
D20*
%TO.P,C302,1*%
%TO.N,GND*%
X16795000Y21600000D03*
%TO.P,C302,2*%
%TO.N,Net-(C302-Pad2)*%
X17755000Y21600000D03*
%TD*%
D34*
%TO.P,R310,1*%
%TO.N,/Mic Path/TBSel*%
X35490000Y51500000D03*
%TO.P,R310,2*%
%TO.N,+5V*%
X36510000Y51500000D03*
%TD*%
D20*
%TO.P,C412,1*%
%TO.N,+5V*%
X51800000Y47170000D03*
%TO.P,C412,2*%
%TO.N,GND*%
X52760000Y47170000D03*
%TD*%
D13*
%TO.P,C312,1*%
%TO.N,GND*%
X39556000Y59058500D03*
%TO.P,C312,2*%
%TO.N,Net-(C312-Pad2)*%
X38596000Y59058500D03*
%TD*%
D27*
%TO.P,R207,1*%
%TO.N,Net-(U201-FB)*%
X76790000Y41000000D03*
%TO.P,R207,2*%
%TO.N,+5V*%
X76790000Y42020000D03*
%TD*%
D20*
%TO.P,C318,1*%
%TO.N,/Mic Path/MicOut2*%
X16700000Y65350000D03*
%TO.P,C318,2*%
%TO.N,GND*%
X17660000Y65350000D03*
%TD*%
D63*
%TO.P,C307,1*%
%TO.N,Net-(C307-Pad1)*%
X13025000Y40950000D03*
%TO.P,C307,2*%
%TO.N,/Mic Path/RG2*%
X15975000Y40950000D03*
%TD*%
D51*
%TO.P,C401,1*%
%TO.N,IFB_PIN2*%
X56200000Y45480000D03*
%TO.P,C401,2*%
%TO.N,Net-(C401-Pad2)*%
X56200000Y44520000D03*
%TD*%
D26*
%TO.P,J302,MP,MP*%
%TO.N,unconnected-(J302-PadMP)_1*%
X75600000Y21000000D03*
%TO.N,unconnected-(J302-PadMP)*%
X82400000Y21000000D03*
D25*
%TO.P,J302,2,Pin_2*%
%TO.N,Net-(J302-Pin_2)*%
X78000000Y23250000D03*
%TO.P,J302,1,Pin_1*%
%TO.N,Net-(J302-Pin_1)*%
X80000000Y23250000D03*
%TD*%
D20*
%TO.P,C205,1*%
%TO.N,Net-(U201-Boot)*%
X79770000Y44160000D03*
%TO.P,C205,2*%
%TO.N,Net-(U201-SW)*%
X80730000Y44160000D03*
%TD*%
%TO.P,C320,1*%
%TO.N,/Mic Path/TB_OUT2*%
X39840000Y65240000D03*
%TO.P,C320,2*%
%TO.N,GND*%
X40800000Y65240000D03*
%TD*%
D12*
%TO.P,R410,1*%
%TO.N,GND*%
X51810000Y53490000D03*
%TO.P,R410,2*%
%TO.N,Net-(R405-Pad2)*%
X51810000Y52470000D03*
%TD*%
D27*
%TO.P,R408,1*%
%TO.N,+5V*%
X50850000Y55340000D03*
%TO.P,R408,2*%
%TO.N,Net-(J405-Pin_1)*%
X50850000Y56360000D03*
%TD*%
D34*
%TO.P,R305,1*%
%TO.N,Net-(R303-Pad2)*%
X18440000Y32950000D03*
%TO.P,R305,2*%
%TO.N,GND*%
X19460000Y32950000D03*
%TD*%
D27*
%TO.P,R318,1*%
%TO.N,Net-(D308-Pad3)*%
X44790000Y54880000D03*
%TO.P,R318,2*%
%TO.N,Net-(U302B-+)*%
X44790000Y55900000D03*
%TD*%
D64*
%TO.P,D201,1,K*%
%TO.N,IFB_PIN2*%
X89900000Y60225000D03*
D65*
%TO.P,D201,2,A*%
%TO.N,Net-(D201-A)*%
X89900000Y57850000D03*
%TD*%
D60*
%TO.P,FB401,1*%
%TO.N,Net-(C416-Pad1)*%
X86500000Y65235000D03*
%TO.P,FB401,2*%
%TO.N,IFB_PIN2*%
X86500000Y64265000D03*
%TD*%
D13*
%TO.P,C309,1*%
%TO.N,GND*%
X41730000Y54640000D03*
%TO.P,C309,2*%
%TO.N,-5V*%
X40770000Y54640000D03*
%TD*%
D20*
%TO.P,C408,1*%
%TO.N,/IFB Path/VCA_OUTR*%
X50425620Y32605000D03*
%TO.P,C408,2*%
%TO.N,/IFB Path/HP_R*%
X51385620Y32605000D03*
%TD*%
D66*
%TO.P,Q202,1,E*%
%TO.N,Net-(Q201-B)*%
X84500000Y57800000D03*
D67*
%TO.P,Q202,2,C*%
%TO.N,IFB_PIN2*%
X86000000Y57887500D03*
D66*
%TO.P,Q202,3,B*%
%TO.N,Net-(Q201-C)*%
X87500000Y57800000D03*
%TD*%
D20*
%TO.P,C415,1*%
%TO.N,+5V*%
X52580000Y37840000D03*
%TO.P,C415,2*%
%TO.N,GND*%
X53540000Y37840000D03*
%TD*%
%TO.P,C313,1*%
%TO.N,GND*%
X42870000Y54000000D03*
%TO.P,C313,2*%
%TO.N,Net-(C313-Pad2)*%
X43830000Y54000000D03*
%TD*%
D56*
%TO.P,U201,1,Boot*%
%TO.N,Net-(U201-Boot)*%
X78950000Y42950000D03*
%TO.P,U201,2,GND*%
%TO.N,GND*%
X78950000Y42000000D03*
%TO.P,U201,3,FB*%
%TO.N,Net-(U201-FB)*%
X78950000Y41050000D03*
%TO.P,U201,4,EN*%
%TO.N,/Power/vbulk*%
X81550000Y41050000D03*
%TO.P,U201,5,VIN*%
X81550000Y42000000D03*
%TO.P,U201,6,SW*%
%TO.N,Net-(U201-SW)*%
X81550000Y42950000D03*
%TD*%
D20*
%TO.P,C319,1*%
%TO.N,GND*%
X18520000Y65350000D03*
%TO.P,C319,2*%
%TO.N,/Mic Path/MicOut3*%
X19480000Y65350000D03*
%TD*%
D34*
%TO.P,R412,1*%
%TO.N,/IFB Path/VCA_OUTR*%
X50395620Y31655000D03*
%TO.P,R412,2*%
%TO.N,/IFB Path/HP_R*%
X51415620Y31655000D03*
%TD*%
D44*
%TO.P,D404,1,K*%
%TO.N,/IFB Path/VCA_INR*%
X46700000Y45200000D03*
%TO.P,D404,2,A*%
%TO.N,GND*%
X45300000Y45200000D03*
%TD*%
D13*
%TO.P,C407,1*%
%TO.N,/IFB Path/VCA_OUTL*%
X53580000Y32605000D03*
%TO.P,C407,2*%
%TO.N,/IFB Path/HP_L*%
X52620000Y32605000D03*
%TD*%
D12*
%TO.P,R306,1*%
%TO.N,Net-(C307-Pad1)*%
X11600000Y41260000D03*
%TO.P,R306,2*%
%TO.N,/Mic Path/RG1*%
X11600000Y40240000D03*
%TD*%
D52*
%TO.P,R204,1*%
%TO.N,Net-(Q201-B)*%
X83600000Y56050000D03*
%TO.P,R204,2*%
%TO.N,Net-(D202-A)*%
X83600000Y53125000D03*
%TD*%
D68*
%TO.P,D301,1,-*%
%TO.N,-5V*%
X18275000Y29975000D03*
D69*
%TO.P,D301,2*%
%TO.N,/Mic Path/Micpre-*%
X18275000Y31675000D03*
%TO.P,D301,3*%
%TO.N,/Mic Path/Micpre+*%
X16275000Y31675000D03*
%TO.P,D301,4,+*%
%TO.N,+5V*%
X16275000Y29775000D03*
%TD*%
D35*
%TO.P,C316,1*%
%TO.N,Net-(U304-SNS+)*%
X14850000Y58275000D03*
%TO.P,C316,2*%
%TO.N,/Mic Path/MicOut+*%
X14850000Y56725000D03*
%TD*%
D46*
%TO.P,L201,1,1*%
%TO.N,Net-(U201-SW)*%
X81387500Y46620000D03*
%TO.P,L201,2,2*%
%TO.N,+5V*%
X79187500Y46620000D03*
%TD*%
D20*
%TO.P,C321,1*%
%TO.N,GND*%
X41700000Y65240000D03*
%TO.P,C321,2*%
%TO.N,/Mic Path/TB_OUT3*%
X42660000Y65240000D03*
%TD*%
D42*
%TO.P,D305,1,K*%
%TO.N,/Mic Path/Micpre-*%
X15300000Y42850000D03*
%TO.P,D305,2,A*%
%TO.N,/Mic Path/RG2*%
X16700000Y42850000D03*
%TD*%
D68*
%TO.P,D307,1,-*%
%TO.N,-5V*%
X19100000Y62437500D03*
D69*
%TO.P,D307,2*%
%TO.N,/Mic Path/MicOut-*%
X19100000Y64137500D03*
%TO.P,D307,3*%
%TO.N,/Mic Path/MicOut+*%
X17100000Y64137500D03*
%TO.P,D307,4,+*%
%TO.N,+5V*%
X17100000Y62237500D03*
%TD*%
D13*
%TO.P,C411,1*%
%TO.N,+5V*%
X47870000Y41320000D03*
%TO.P,C411,2*%
%TO.N,GND*%
X46910000Y41320000D03*
%TD*%
D12*
%TO.P,R313,1*%
%TO.N,Net-(C312-Pad2)*%
X38636000Y58178500D03*
%TO.P,R313,2*%
%TO.N,Net-(U302A--)*%
X38636000Y57158500D03*
%TD*%
D27*
%TO.P,R314,1*%
%TO.N,Net-(C313-Pad2)*%
X43850000Y54880000D03*
%TO.P,R314,2*%
%TO.N,Net-(U302B-+)*%
X43850000Y55900000D03*
%TD*%
D70*
%TO.P,U303,1,Rg1*%
%TO.N,/Mic Path/RG1*%
X11425000Y38855000D03*
%TO.P,U303,2,-In*%
%TO.N,/Mic Path/Micpre-*%
X11425000Y37585000D03*
%TO.P,U303,3,+In*%
%TO.N,/Mic Path/Micpre+*%
X11425000Y36315000D03*
%TO.P,U303,4,V-*%
%TO.N,-5V*%
X11425000Y35045000D03*
%TO.P,U303,5,Ref*%
%TO.N,GND*%
X16575000Y35045000D03*
%TO.P,U303,6,Out*%
%TO.N,/Mic Path/MicpreOut*%
X16575000Y36315000D03*
%TO.P,U303,7,V+*%
%TO.N,+5V*%
X16575000Y37585000D03*
%TO.P,U303,8,Rg2*%
%TO.N,/Mic Path/RG2*%
X16575000Y38855000D03*
%TD*%
D20*
%TO.P,C209,1*%
%TO.N,-5V*%
X89760000Y39840000D03*
%TO.P,C209,2*%
%TO.N,/Power/vbulk*%
X90720000Y39840000D03*
%TD*%
D27*
%TO.P,R407,1*%
%TO.N,+5V*%
X62700000Y55340000D03*
%TO.P,R407,2*%
%TO.N,Net-(J403-Pin_1)*%
X62700000Y56360000D03*
%TD*%
D12*
%TO.P,R317,1*%
%TO.N,Net-(R317-Pad1)*%
X43850000Y57760000D03*
%TO.P,R317,2*%
%TO.N,Net-(U302B--)*%
X43850000Y56740000D03*
%TD*%
D71*
%TO.P,FB304,1*%
%TO.N,Net-(D308-Pad3)*%
X43630000Y64315000D03*
%TO.P,FB304,2*%
%TO.N,/Mic Path/TB_OUT3*%
X42660000Y64315000D03*
%TD*%
D72*
%TO.P,C202,1*%
%TO.N,/Power/vbulk*%
X100800000Y63250000D03*
%TO.P,C202,2*%
%TO.N,GND*%
X100800000Y50750000D03*
%TD*%
D16*
%TO.P,R202,1*%
%TO.N,Net-(Q201-C)*%
X86510000Y55287500D03*
%TO.P,R202,2*%
%TO.N,Net-(D202-A)*%
X85490000Y55287500D03*
%TD*%
D13*
%TO.P,C311,1*%
%TO.N,-5V*%
X9780000Y35045000D03*
%TO.P,C311,2*%
%TO.N,GND*%
X8820000Y35045000D03*
%TD*%
D12*
%TO.P,R316,1*%
%TO.N,Net-(R316-Pad1)*%
X37696000Y58178500D03*
%TO.P,R316,2*%
%TO.N,Net-(U302A--)*%
X37696000Y57158500D03*
%TD*%
D73*
%TO.P,U302,1*%
%TO.N,Net-(R316-Pad1)*%
X39900000Y57600000D03*
%TO.P,U302,2,-*%
%TO.N,Net-(U302A--)*%
X39900000Y57100000D03*
%TO.P,U302,3,+*%
%TO.N,Net-(U302A-+)*%
X39900000Y56600000D03*
%TO.P,U302,4,V-*%
%TO.N,-5V*%
X39900000Y56100000D03*
%TO.P,U302,5,+*%
%TO.N,Net-(U302B-+)*%
X42600000Y56100000D03*
%TO.P,U302,6,-*%
%TO.N,Net-(U302B--)*%
X42600000Y56600000D03*
%TO.P,U302,7*%
%TO.N,Net-(R317-Pad1)*%
X42600000Y57100000D03*
%TO.P,U302,8,V+*%
%TO.N,+5V*%
X42600000Y57600000D03*
D54*
%TO.P,U302,9,Pad*%
%TO.N,-5V*%
X40900000Y57600000D03*
X40900000Y56850000D03*
X40900000Y56100000D03*
D55*
X41250000Y56850000D03*
D54*
X41600000Y57600000D03*
X41600000Y56850000D03*
X41600000Y56100000D03*
%TD*%
D45*
%TO.P,FID101,*%
%TO.N,*%
X4000000Y10000000D03*
%TD*%
D12*
%TO.P,R315,1*%
%TO.N,Net-(D308-Pad2)*%
X36756000Y58178500D03*
%TO.P,R315,2*%
%TO.N,Net-(U302A-+)*%
X36756000Y57158500D03*
%TD*%
D35*
%TO.P,C317,1*%
%TO.N,Net-(U304-SNS-)*%
X23750000Y58275000D03*
%TO.P,C317,2*%
%TO.N,/Mic Path/MicOut-*%
X23750000Y56725000D03*
%TD*%
D12*
%TO.P,R406,1*%
%TO.N,Net-(R405-Pad2)*%
X48760000Y51120000D03*
%TO.P,R406,2*%
%TO.N,Net-(J403-Pin_2)*%
X48760000Y50100000D03*
%TD*%
D74*
%TO.N,GND*%
X29830646Y60570000D03*
X32250000Y59000000D03*
%TO.N,+5V*%
X52000000Y27690000D03*
X77600000Y47200000D03*
X53250000Y27610000D03*
X75750000Y46700000D03*
X64000000Y81700000D03*
X76900000Y47200000D03*
X52760000Y54250000D03*
X53000000Y38540000D03*
%TO.N,GND*%
X37300000Y50490000D03*
%TO.N,+5V*%
X75750000Y46100000D03*
X18980000Y37580000D03*
X41720000Y59840000D03*
X47850000Y40510000D03*
X51680000Y55340000D03*
X35040000Y61430000D03*
X9740000Y52160000D03*
X16210000Y62250000D03*
X15635606Y59955000D03*
X42250000Y62320000D03*
X17130000Y29760000D03*
%TO.N,GND*%
X27790000Y50490000D03*
%TO.N,+5V*%
X63520000Y55340000D03*
X9740000Y53020000D03*
X51010000Y47130000D03*
X76200000Y47200000D03*
%TO.N,-5V*%
X85200000Y44300000D03*
X41090000Y62890000D03*
X87100000Y44300000D03*
X18430000Y63160000D03*
X9800000Y49520000D03*
X26440000Y59140000D03*
X9800000Y50380000D03*
X40230000Y54090000D03*
X19130000Y29960000D03*
X85200000Y43700000D03*
X9770000Y34220000D03*
X86100000Y44300000D03*
X51090000Y38550000D03*
X53500000Y51600000D03*
X18100000Y60650000D03*
X56120000Y40490000D03*
X85200000Y43100000D03*
%TO.N,GND*%
X105000000Y46357500D03*
X49640000Y37810000D03*
X61000000Y85000000D03*
X18000000Y35050000D03*
X29750000Y59250000D03*
X77540000Y44380000D03*
X18930000Y38540000D03*
X60760000Y42600000D03*
X42160000Y53980000D03*
X43270000Y42590000D03*
X23300000Y59400000D03*
X86040000Y48000000D03*
X13954467Y58836792D03*
X79750000Y40200000D03*
X85610000Y42040000D03*
X92530000Y44490000D03*
%TO.N,+5V*%
X37290000Y51500000D03*
%TO.N,GND*%
X54475000Y51275000D03*
X8025000Y35050000D03*
X56400000Y63750000D03*
X50680000Y41940000D03*
X80250000Y41400000D03*
%TO.N,+5V*%
X27780000Y51490000D03*
%TO.N,GND*%
X36740000Y60600000D03*
X14175000Y61450000D03*
X52000000Y38478977D03*
X57830000Y41330000D03*
X100800000Y46357500D03*
X25480000Y59160000D03*
X18100000Y65350000D03*
X51810000Y54270000D03*
X51010000Y51590000D03*
X68200000Y63600000D03*
X96600000Y46357500D03*
X14710000Y49500000D03*
X50750000Y27575000D03*
X54310000Y37840000D03*
X14700000Y53000000D03*
X14710000Y50360000D03*
X87040000Y45310000D03*
X44500000Y43780000D03*
X86040000Y45300000D03*
X20250000Y32950000D03*
X42470000Y54640000D03*
X87060000Y47290000D03*
X80850000Y40200000D03*
X59510000Y43790000D03*
X40770000Y58330000D03*
X53350000Y43225000D03*
X84000000Y65250000D03*
X50200000Y51720000D03*
X46120000Y41310000D03*
X44490000Y45210000D03*
X16200000Y21600000D03*
X37270000Y52500000D03*
X53465000Y47150000D03*
X59500000Y45210000D03*
X41250000Y65240000D03*
X39550000Y58310000D03*
X87050000Y47990000D03*
X86040000Y47290000D03*
X80250000Y42600000D03*
X53330000Y41950000D03*
X27760000Y52500000D03*
X76530000Y44380000D03*
X14700000Y52140000D03*
%TO.N,Net-(D308-Pad3)*%
X44800000Y54150000D03*
X43400000Y60025000D03*
%TO.N,/Mic Path/MuteSel*%
X25480000Y61305000D03*
X24000000Y50500000D03*
%TO.N,/IFB Path/VCAR_E-*%
X49250000Y44500000D03*
X49750000Y48500000D03*
%TO.N,/IFB Path/VCAL_E-*%
X54300025Y47389975D03*
X54200000Y44760000D03*
%TD*%
D75*
%TO.N,Net-(J305-Pin_2)*%
X95000000Y26250000D02*
X95000000Y32800000D01*
X98000000Y23250000D02*
X95000000Y26250000D01*
%TO.N,Net-(J305-Pin_1)*%
X103750000Y31150000D02*
X100000000Y34900000D01*
X103750000Y27000000D02*
X103750000Y31150000D01*
X100000000Y23250000D02*
X103750000Y27000000D01*
%TO.N,Net-(J302-Pin_2)*%
X78000000Y23250000D02*
X75000000Y26250000D01*
X75000000Y26250000D02*
X75000000Y32800000D01*
%TO.N,Net-(J302-Pin_1)*%
X84000000Y27250000D02*
X84000000Y30900000D01*
X80000000Y23250000D02*
X84000000Y27250000D01*
X84000000Y30900000D02*
X80000000Y34900000D01*
%TO.N,GND*%
X29825646Y60575000D02*
X29830646Y60570000D01*
X27887500Y60575000D02*
X29825646Y60575000D01*
%TO.N,/Mic Path/MicpreOut*%
X30530646Y61219354D02*
X30530646Y60030646D01*
X29875000Y61875000D02*
X30530646Y61219354D01*
X27887500Y61875000D02*
X29875000Y61875000D01*
%TO.N,GND*%
X32625000Y58625000D02*
X32250000Y59000000D01*
X33612500Y58625000D02*
X32625000Y58625000D01*
%TO.N,/Mic Path/MicpreOut*%
X30750000Y59811292D02*
X30530646Y60030646D01*
X27200000Y54500000D02*
X30750000Y58050000D01*
X30750000Y58050000D02*
X30750000Y59811292D01*
X24000000Y54500000D02*
X27200000Y54500000D01*
X19970000Y50470000D02*
X24000000Y54500000D01*
X18855000Y36315000D02*
X19970000Y37430000D01*
X19970000Y37430000D02*
X19970000Y50470000D01*
X16575000Y36315000D02*
X18855000Y36315000D01*
X30636292Y59925000D02*
X30530646Y60030646D01*
X33612500Y59925000D02*
X30636292Y59925000D01*
D76*
%TO.N,GND*%
X29750000Y59250000D02*
X29065000Y59275000D01*
X29065000Y59275000D02*
X27887500Y59275000D01*
%TO.N,Net-(D202-A)*%
X85936000Y53768500D02*
X85355000Y53187500D01*
X85520000Y52087500D02*
X85520000Y53022500D01*
X85520000Y53022500D02*
X85355000Y53187500D01*
X85490000Y55287500D02*
X85936000Y54841500D01*
D77*
X84300000Y51687500D02*
X84300000Y52425000D01*
D76*
X85355000Y53187500D02*
X83662500Y53187500D01*
D77*
X84300000Y52425000D02*
X83600000Y53125000D01*
D76*
X85936000Y54841500D02*
X85936000Y53768500D01*
%TO.N,+5V*%
X50892500Y48077500D02*
X51800000Y47170000D01*
X51800000Y47170000D02*
X51050000Y47170000D01*
X15130606Y59450000D02*
X15635606Y59955000D01*
%TO.N,GND*%
X27020000Y50500000D02*
X27780000Y50500000D01*
%TO.N,+5V*%
X16275000Y29775000D02*
X17115000Y29775000D01*
%TO.N,GND*%
X27780000Y50500000D02*
X27790000Y50490000D01*
%TO.N,+5V*%
X16222500Y62237500D02*
X16210000Y62250000D01*
%TO.N,GND*%
X36510000Y50500000D02*
X37290000Y50500000D01*
D78*
%TO.N,+5V*%
X52500000Y37700000D02*
X52500000Y36630000D01*
D75*
X33612500Y60575000D02*
X35015000Y60575000D01*
D76*
X76790000Y42020000D02*
X76498486Y42020000D01*
X53241552Y27618448D02*
X53250000Y27610000D01*
X75824000Y42694486D02*
X75824000Y44989000D01*
X50850000Y55340000D02*
X51680000Y55340000D01*
X18970000Y37590000D02*
X18980000Y37580000D01*
D78*
X64000000Y82490000D02*
X64000000Y81700000D01*
D76*
X47870000Y41320000D02*
X47870000Y40530000D01*
X41730000Y58507500D02*
X42637500Y57600000D01*
X52580000Y38120000D02*
X53000000Y38540000D01*
D79*
X15195000Y59385000D02*
X15130000Y59450000D01*
D76*
X51050000Y47170000D02*
X51010000Y47130000D01*
D75*
X16575000Y37585000D02*
X18220000Y37585000D01*
D79*
X16725000Y59385000D02*
X15195000Y59385000D01*
D76*
X52580000Y37840000D02*
X52580000Y38120000D01*
X41730000Y59060000D02*
X41730000Y58507500D01*
X42250000Y63102500D02*
X42250000Y62320000D01*
D80*
X78782500Y46215000D02*
X79187500Y46620000D01*
D76*
X52760000Y54250000D02*
X52760000Y53500000D01*
D75*
X49362500Y41317500D02*
X47872500Y41317500D01*
D80*
X77050000Y46215000D02*
X78782500Y46215000D01*
D76*
X17100000Y62237500D02*
X16222500Y62237500D01*
X51991552Y28416068D02*
X51991552Y27698448D01*
X18160000Y37590000D02*
X18970000Y37590000D01*
X75824000Y44989000D02*
X77050000Y46215000D01*
X51991552Y27698448D02*
X52000000Y27690000D01*
X50892500Y48630000D02*
X50892500Y48077500D01*
X62700000Y55340000D02*
X63520000Y55340000D01*
X76498486Y42020000D02*
X75824000Y42694486D01*
D75*
X35040000Y60600000D02*
X35040000Y61430000D01*
D76*
X17115000Y29775000D02*
X17130000Y29760000D01*
X41730000Y59060000D02*
X41730000Y59830000D01*
D75*
X33612500Y60575000D02*
X33612500Y61225000D01*
D76*
X53241552Y28296172D02*
X53241552Y27618448D01*
X47870000Y40530000D02*
X47850000Y40510000D01*
%TO.N,GND*%
X37290000Y50500000D02*
X37300000Y50490000D01*
%TO.N,+5V*%
X41730000Y59830000D02*
X41720000Y59840000D01*
D79*
%TO.N,-5V*%
X89760000Y41514999D02*
X89760000Y39840000D01*
D76*
X53490000Y51590000D02*
X53500000Y51600000D01*
X56130000Y40500000D02*
X56120000Y40490000D01*
D78*
X51500000Y35980000D02*
X51250000Y35730000D01*
D76*
X39862500Y55547500D02*
X40770000Y54640000D01*
X40250000Y62902500D02*
X41077500Y62902500D01*
X40770000Y54630000D02*
X40230000Y54090000D01*
D79*
X16725000Y60655000D02*
X18095000Y60655000D01*
X88612500Y42000000D02*
X89274999Y42000000D01*
D76*
X51420000Y37840000D02*
X51420000Y38220000D01*
D78*
X51500000Y36705000D02*
X51500000Y37000000D01*
D76*
X53667500Y50130000D02*
X52630000Y50130000D01*
X56130000Y41320000D02*
X56130000Y40500000D01*
D75*
X26455000Y59155000D02*
X26440000Y59140000D01*
D78*
X51500000Y36705000D02*
X51500000Y35980000D01*
D76*
X39862500Y56100000D02*
X39862500Y55547500D01*
X19115000Y29975000D02*
X19130000Y29960000D01*
D78*
X51500000Y37000000D02*
X51500000Y37700000D01*
D75*
X9780000Y35045000D02*
X11425000Y35045000D01*
D76*
X19100000Y62490000D02*
X18430000Y63160000D01*
D75*
X54637500Y41317500D02*
X56127500Y41317500D01*
D76*
X51420000Y38220000D02*
X51090000Y38550000D01*
X26455000Y59925000D02*
X26455000Y59155000D01*
D79*
X89274999Y42000000D02*
X89760000Y41514999D01*
D76*
X52760000Y51590000D02*
X53667500Y50682500D01*
X41077500Y62902500D02*
X41090000Y62890000D01*
D75*
X9780000Y34230000D02*
X9770000Y34220000D01*
D79*
X87230000Y42040000D02*
X88572500Y42040000D01*
D76*
X39862500Y56100000D02*
X40900000Y56100000D01*
X53667500Y50682500D02*
X53667500Y50130000D01*
X52760000Y51590000D02*
X53490000Y51590000D01*
D78*
X51500000Y37000000D02*
X51500000Y36630000D01*
D79*
X18095000Y60655000D02*
X18100000Y60650000D01*
D76*
X18275000Y29975000D02*
X19115000Y29975000D01*
D75*
X9780000Y35045000D02*
X9780000Y34230000D01*
X27887500Y59925000D02*
X26455000Y59925000D01*
D79*
X87230000Y42605000D02*
X86550000Y43285000D01*
X16725000Y60655000D02*
X15135000Y60655000D01*
X87230000Y42040000D02*
X87230000Y42605000D01*
D76*
%TO.N,Net-(Q201-C)*%
X86510000Y56387500D02*
X87390000Y56387500D01*
X86480000Y52087500D02*
X86480000Y53522500D01*
X86510000Y55287500D02*
X86510000Y56387500D01*
X87390000Y56387500D02*
X87390000Y57690000D01*
X86645000Y53687500D02*
X86645000Y55152500D01*
X86480000Y53522500D02*
X86645000Y53687500D01*
%TO.N,Net-(U201-Boot)*%
X79770000Y44160000D02*
X79770000Y43607500D01*
X79770000Y43607500D02*
X79112500Y42950000D01*
%TO.N,Net-(U202-Boot)*%
X88612500Y43502500D02*
X89270000Y44160000D01*
X88612500Y42950000D02*
X88612500Y43502500D01*
%TO.N,GND*%
X25495000Y59175000D02*
X25480000Y59160000D01*
X42180000Y54000000D02*
X42160000Y53980000D01*
X45300000Y45200000D02*
X44500000Y45200000D01*
X51000000Y36990000D02*
X50460000Y37530000D01*
X39556000Y58316000D02*
X39550000Y58310000D01*
X26980000Y52500000D02*
X27760000Y52500000D01*
X25495000Y59925000D02*
X25495000Y59175000D01*
D79*
X83500000Y65250000D02*
X84000000Y65250000D01*
X92530000Y43550000D02*
X92530000Y44490000D01*
D76*
X53332500Y41952500D02*
X53330000Y41950000D01*
D79*
X21875000Y59385000D02*
X23285000Y59385000D01*
D78*
X52000000Y38478977D02*
X51999917Y38478894D01*
D76*
X59490000Y45200000D02*
X59500000Y45210000D01*
X42870000Y54000000D02*
X42180000Y54000000D01*
X44500000Y45200000D02*
X44490000Y45210000D01*
D79*
X77730000Y42020000D02*
X79092500Y42020000D01*
X18520000Y65350000D02*
X18100000Y65350000D01*
D75*
X18920000Y38550000D02*
X18930000Y38540000D01*
D79*
X18100000Y65350000D02*
X17660000Y65350000D01*
D76*
X58700000Y45200000D02*
X59490000Y45200000D01*
X39556000Y59058500D02*
X39556000Y58316000D01*
D79*
X16795000Y21600000D02*
X16200000Y21600000D01*
X41250000Y65240000D02*
X41700000Y65240000D01*
D78*
X62000000Y85000000D02*
X61000000Y85000000D01*
D79*
X77730000Y42585000D02*
X77050000Y43265000D01*
D76*
X59980000Y42600000D02*
X60760000Y42600000D01*
X41730000Y54640000D02*
X42470000Y54640000D01*
X40770000Y59060000D02*
X40770000Y58330000D01*
X50460000Y37840000D02*
X49670000Y37840000D01*
X59500000Y43800000D02*
X59510000Y43790000D01*
%TO.N,+5V*%
X27770000Y51500000D02*
X27780000Y51490000D01*
D78*
%TO.N,GND*%
X53352500Y43222500D02*
X53350000Y43225000D01*
D76*
X44520000Y43800000D02*
X44500000Y43780000D01*
D78*
X54637500Y43222500D02*
X53352500Y43222500D01*
X57090000Y41320000D02*
X57820000Y41320000D01*
D76*
X43280000Y42600000D02*
X43270000Y42590000D01*
X53000000Y36990000D02*
X53540000Y37530000D01*
D80*
X86550000Y46235000D02*
X88265000Y46235000D01*
X88265000Y46235000D02*
X88650000Y46620000D01*
D76*
X58700000Y43800000D02*
X59500000Y43800000D01*
X54637500Y41952500D02*
X53332500Y41952500D01*
D78*
X49690000Y51210000D02*
X50200000Y51720000D01*
D76*
X46130000Y41320000D02*
X46120000Y41310000D01*
X50460000Y37530000D02*
X50460000Y37840000D01*
X53540000Y37840000D02*
X54310000Y37840000D01*
D75*
X14170000Y61445000D02*
X14175000Y61450000D01*
D76*
%TO.N,+5V*%
X36510000Y51500000D02*
X37290000Y51500000D01*
D78*
%TO.N,GND*%
X50741552Y28326172D02*
X50741552Y27583448D01*
D75*
X17995000Y35045000D02*
X18000000Y35050000D01*
D76*
X52760000Y47170000D02*
X53445000Y47170000D01*
%TO.N,+5V*%
X27010000Y51500000D02*
X27770000Y51500000D01*
D78*
%TO.N,GND*%
X50741552Y27583448D02*
X50750000Y27575000D01*
D76*
X50667500Y41952500D02*
X50680000Y41940000D01*
D75*
X18160000Y38550000D02*
X18920000Y38550000D01*
D76*
X45300000Y43800000D02*
X44520000Y43800000D01*
X46910000Y41320000D02*
X46130000Y41320000D01*
X86290000Y42040000D02*
X85610000Y42040000D01*
X51000000Y36990000D02*
X51000000Y36630000D01*
D79*
X84000000Y65250000D02*
X84520000Y65250000D01*
D78*
X52000000Y38478365D02*
X52000000Y36630000D01*
D76*
X49362500Y41952500D02*
X50667500Y41952500D01*
X54870000Y50880000D02*
X54475000Y51275000D01*
X36000000Y60600000D02*
X36740000Y60600000D01*
X53445000Y47170000D02*
X53465000Y47150000D01*
D78*
X51999471Y38478894D02*
X52000000Y38478365D01*
D75*
X8820000Y35045000D02*
X8030000Y35045000D01*
D76*
X51810000Y53490000D02*
X51810000Y54270000D01*
X49670000Y37840000D02*
X49640000Y37810000D01*
X36480000Y52500000D02*
X37270000Y52500000D01*
X44040000Y42600000D02*
X43280000Y42600000D01*
D75*
X68200000Y60400000D02*
X68200000Y63600000D01*
D76*
X53540000Y37530000D02*
X53540000Y37840000D01*
D75*
X16575000Y35045000D02*
X17995000Y35045000D01*
D79*
X56400000Y60400000D02*
X56400000Y63750000D01*
X40800000Y65240000D02*
X41250000Y65240000D01*
X23285000Y59385000D02*
X23300000Y59400000D01*
D78*
X51800000Y51590000D02*
X51010000Y51590000D01*
X51999917Y38478894D02*
X51999471Y38478894D01*
X57820000Y41320000D02*
X57830000Y41330000D01*
D75*
X19460000Y32950000D02*
X20250000Y32950000D01*
D79*
X77730000Y42020000D02*
X77730000Y42585000D01*
D75*
X14170000Y59052325D02*
X13954467Y58836792D01*
D76*
X54870000Y50590000D02*
X54870000Y50880000D01*
D75*
X14170000Y59450000D02*
X14170000Y59052325D01*
X8030000Y35045000D02*
X8025000Y35050000D01*
D76*
X53000000Y36990000D02*
X53000000Y36630000D01*
D75*
X14170000Y60650000D02*
X14170000Y61445000D01*
D79*
%TO.N,Net-(C302-Pad2)*%
X16805000Y20600000D02*
X17745000Y20600000D01*
X17745000Y20600000D02*
X17745000Y21590000D01*
D81*
%TO.N,/Mic Path/Mic2*%
X16190000Y13320000D02*
X16190000Y18810000D01*
X16190000Y18810000D02*
X13650000Y21350000D01*
X13650000Y21350000D02*
X13650000Y22625000D01*
%TO.N,/Mic Path/Mic3*%
X19137500Y17997500D02*
X20000000Y17135000D01*
X19137500Y20862500D02*
X19137500Y17997500D01*
X20900000Y22625000D02*
X19137500Y20862500D01*
D76*
%TO.N,IFB_PIN2*%
X85490000Y56387500D02*
X86000000Y56897500D01*
D79*
X65404496Y46999000D02*
X57719000Y46999000D01*
X82670496Y64265000D02*
X65404496Y46999000D01*
X86000000Y63765000D02*
X86000000Y57887500D01*
D82*
X89900000Y60225000D02*
X86037500Y60225000D01*
D79*
X86500000Y64265000D02*
X86000000Y63765000D01*
X86500000Y64265000D02*
X82670496Y64265000D01*
D76*
X86000000Y56897500D02*
X86000000Y57887500D01*
D79*
X57719000Y46999000D02*
X56200000Y45480000D01*
D80*
%TO.N,Net-(C305-Pad2)*%
X8900000Y23862500D02*
X9487500Y23862500D01*
X9487500Y23862500D02*
X13650000Y28025000D01*
%TO.N,Net-(C306-Pad2)*%
X20900000Y28025000D02*
X25062500Y23862500D01*
X25062500Y23862500D02*
X25675000Y23862500D01*
D75*
%TO.N,/Mic Path/RG2*%
X16700000Y41675000D02*
X15975000Y40950000D01*
X16575000Y38855000D02*
X16575000Y40350000D01*
X16700000Y42850000D02*
X16700000Y41675000D01*
X16575000Y40350000D02*
X15975000Y40950000D01*
D79*
%TO.N,Net-(U304-SNS+)*%
X16725000Y58115000D02*
X15010000Y58115000D01*
%TO.N,Net-(U304-SNS-)*%
X21875000Y58115000D02*
X23590000Y58115000D01*
D75*
%TO.N,Net-(C401-Pad2)*%
X56200000Y44520000D02*
X56200000Y43610000D01*
%TO.N,Net-(C402-Pad2)*%
X47800000Y44500000D02*
X47800000Y43620000D01*
%TO.N,Net-(C403-Pad1)*%
X58120000Y42600000D02*
X59020000Y42600000D01*
D79*
%TO.N,Net-(C404-Pad1)*%
X45000000Y42600000D02*
X45890000Y42600000D01*
%TO.N,Net-(J403-Pin_2)*%
X61950000Y54050000D02*
X54200000Y46300000D01*
X66200000Y60400000D02*
X66200000Y56150000D01*
D82*
X50892500Y50130000D02*
X49690000Y50130000D01*
D79*
X50750000Y46300000D02*
X48760000Y48290000D01*
X54200000Y46300000D02*
X50750000Y46300000D01*
X66200000Y56150000D02*
X64100000Y54050000D01*
X48760000Y48290000D02*
X48760000Y50100000D01*
D82*
X49690000Y50130000D02*
X48790000Y50130000D01*
D79*
X64100000Y54050000D02*
X61950000Y54050000D01*
%TO.N,Net-(J404-Pin_2)*%
X100000000Y3800000D02*
X100000000Y10500000D01*
D75*
%TO.N,Net-(C307-Pad1)*%
X11600000Y41260000D02*
X12715000Y41260000D01*
D76*
%TO.N,Net-(C312-Pad2)*%
X38636000Y58178500D02*
X38636000Y59018500D01*
%TO.N,Net-(D201-A)*%
X89872500Y57850000D02*
X88410000Y56387500D01*
D80*
%TO.N,Net-(D203-A)*%
X103542500Y69900000D02*
X107400000Y69900000D01*
X102300000Y71142500D02*
X103542500Y69900000D01*
D76*
%TO.N,Net-(C313-Pad2)*%
X43850000Y54880000D02*
X43850000Y54020000D01*
%TO.N,Net-(J303-Pin_1)*%
X35500000Y46500000D02*
X35500000Y50490000D01*
D78*
%TO.N,Net-(J304-Pin_1)*%
X26000000Y50500000D02*
X26000000Y46500000D01*
D79*
%TO.N,Net-(J402-Pin_1)*%
X78000000Y10500000D02*
X78000000Y6800000D01*
X78000000Y6800000D02*
X75000000Y3800000D01*
%TO.N,Net-(J402-Pin_2)*%
X80000000Y10500000D02*
X80000000Y3800000D01*
%TO.N,Net-(J403-Pin_1)*%
X62700000Y56360000D02*
X64200000Y57860000D01*
X64200000Y57860000D02*
X64200000Y60400000D01*
%TO.N,Net-(J404-Pin_1)*%
X98000000Y6800000D02*
X95000000Y3800000D01*
X98000000Y10500000D02*
X98000000Y6800000D01*
%TO.N,Net-(J405-Pin_1)*%
X52400000Y57910000D02*
X50850000Y56360000D01*
D76*
%TO.N,Net-(D405-A)*%
X52731656Y29826068D02*
X53241552Y29316172D01*
X50741552Y29286172D02*
X51281448Y29826068D01*
X51281448Y29826068D02*
X52731656Y29826068D01*
D78*
X52000000Y29824516D02*
X52000000Y33830000D01*
D79*
%TO.N,Net-(J405-Pin_2)*%
X56300000Y49600000D02*
X55800000Y49600000D01*
X56900000Y51900000D02*
X56900000Y50200000D01*
X54400000Y60400000D02*
X54400000Y54400000D01*
D76*
X53667500Y49630000D02*
X54870000Y49630000D01*
D79*
X54400000Y54400000D02*
X56900000Y51900000D01*
D76*
X54870000Y49630000D02*
X55770000Y49630000D01*
D79*
X56900000Y50200000D02*
X56300000Y49600000D01*
D76*
%TO.N,Net-(Q201-B)*%
X83600000Y55942500D02*
X85355000Y54187500D01*
D77*
X84500000Y57800000D02*
X83600000Y56900000D01*
X83600000Y56900000D02*
X83600000Y56050000D01*
D76*
%TO.N,Net-(U201-FB)*%
X76790000Y41000000D02*
X77730000Y41000000D01*
X77730000Y41000000D02*
X79062500Y41000000D01*
%TO.N,Net-(U202-FB)*%
X88612500Y41050000D02*
X87260000Y41050000D01*
X87230000Y41020000D02*
X86290000Y41020000D01*
D79*
%TO.N,Net-(R303-Pad2)*%
X16115000Y32950000D02*
X18440000Y32950000D01*
X18465000Y32925000D02*
X18465000Y32792528D01*
X19247528Y32010000D02*
X19400000Y32010000D01*
X18465000Y32792528D02*
X19247528Y32010000D01*
X15175000Y32010000D02*
X16115000Y32950000D01*
D76*
%TO.N,Net-(R316-Pad1)*%
X40162000Y59425404D02*
X39892904Y59694500D01*
X40162000Y57899500D02*
X40162000Y59425404D01*
X37746000Y59068500D02*
X37746000Y58228500D01*
X38259096Y59694500D02*
X37746000Y59181404D01*
X39862500Y57600000D02*
X40162000Y57899500D01*
X39892904Y59694500D02*
X38259096Y59694500D01*
D79*
%TO.N,/Mic Path/Micpre+*%
X15590000Y30990000D02*
X16275000Y31675000D01*
X8900000Y26787500D02*
X13102500Y30990000D01*
X13102500Y30990000D02*
X13102500Y35512499D01*
X13102500Y35512499D02*
X12299999Y36315000D01*
X13102500Y30990000D02*
X15175000Y30990000D01*
X12299999Y36315000D02*
X11425000Y36315000D01*
D75*
X9500000Y37585000D02*
X10770000Y36315000D01*
D79*
X15175000Y30990000D02*
X15590000Y30990000D01*
%TO.N,/Mic Path/Micpre-*%
X18960000Y30990000D02*
X18275000Y31675000D01*
D75*
X12299999Y37585000D02*
X15884999Y34000000D01*
X14574999Y40346611D02*
X11813388Y37585000D01*
X11425000Y37585000D02*
X12299999Y37585000D01*
X15884999Y34000000D02*
X20191364Y34000000D01*
D79*
X21472500Y30990000D02*
X19400000Y30990000D01*
X19400000Y30990000D02*
X18960000Y30990000D01*
D75*
X20191364Y34000000D02*
X21472500Y32718864D01*
X15300000Y42850000D02*
X14574999Y42124999D01*
X21472500Y32718864D02*
X21472500Y30990000D01*
D79*
X25675000Y26787500D02*
X21472500Y30990000D01*
D75*
X14574999Y42124999D02*
X14574999Y40346611D01*
%TO.N,/Mic Path/RG1*%
X11425000Y38855000D02*
X11425000Y40065000D01*
X9500000Y38985000D02*
X11295000Y38985000D01*
X11425000Y40065000D02*
X11600000Y40240000D01*
X11295000Y38985000D02*
X11425000Y38855000D01*
D76*
%TO.N,Net-(D308-Pad2)*%
X36726000Y59068500D02*
X36726000Y58208500D01*
X38860000Y61202500D02*
X40250000Y61202500D01*
D79*
X38870000Y64315000D02*
X38870000Y62582500D01*
D76*
X36726000Y59068500D02*
X38860000Y61202500D01*
D79*
X38870000Y62582500D02*
X40250000Y61202500D01*
D76*
%TO.N,Net-(D308-Pad3)*%
X44790000Y54880000D02*
X44790000Y54160000D01*
X43385000Y60040000D02*
X43400000Y60025000D01*
D79*
X43630000Y64315000D02*
X43630000Y62582500D01*
D76*
X42630000Y60040000D02*
X43385000Y60040000D01*
D79*
X42250000Y61202500D02*
X42250000Y60420000D01*
X43630000Y62582500D02*
X42250000Y61202500D01*
X42250000Y60420000D02*
X42630000Y60040000D01*
D76*
X44790000Y54160000D02*
X44800000Y54150000D01*
D79*
%TO.N,Net-(J402-Pin_3-Pad3)*%
X82000000Y6800000D02*
X85000000Y3800000D01*
X82000000Y10500000D02*
X82000000Y6800000D01*
%TO.N,Net-(J404-Pin_3-Pad3)*%
X102000000Y10500000D02*
X102000000Y6800000D01*
X102000000Y6800000D02*
X105000000Y3800000D01*
D76*
%TO.N,Net-(U302A-+)*%
X39250000Y56600000D02*
X39862500Y56600000D01*
X39201000Y56551000D02*
X39250000Y56600000D01*
X37327806Y56551000D02*
X39201000Y56551000D01*
X36756000Y57122806D02*
X37327806Y56551000D01*
%TO.N,Net-(U302B--)*%
X43850000Y56740000D02*
X44740000Y56740000D01*
X42637500Y56600000D02*
X43710000Y56600000D01*
%TO.N,Net-(U302A--)*%
X38710000Y57100000D02*
X39862500Y57100000D01*
X37710000Y57160000D02*
X38650000Y57160000D01*
%TO.N,Net-(U302B-+)*%
X43850000Y55900000D02*
X44790000Y55900000D01*
X42637500Y56100000D02*
X43650000Y56100000D01*
X43650000Y56100000D02*
X43850000Y55900000D01*
%TO.N,Net-(R317-Pad1)*%
X42630000Y58980000D02*
X43850000Y57760000D01*
X42637500Y57100000D02*
X43190000Y57100000D01*
X43190000Y57100000D02*
X43850000Y57760000D01*
%TO.N,Net-(R405-Pad2)*%
X55800000Y50889999D02*
X55800000Y50620000D01*
X49840001Y52470000D02*
X51810000Y52470000D01*
X54219999Y52470000D02*
X55800000Y50889999D01*
X48760000Y51120000D02*
X48760000Y51389999D01*
X51810000Y52470000D02*
X54219999Y52470000D01*
X51810000Y52470000D02*
X52750000Y52470000D01*
X48760000Y51389999D02*
X49840001Y52470000D01*
D79*
%TO.N,/Mic Path/MicOut+*%
X13200000Y61815000D02*
X13200000Y58375000D01*
X16725000Y56845000D02*
X14970000Y56845000D01*
X15800000Y64415000D02*
X16822500Y64415000D01*
X15800000Y64415000D02*
X13200000Y61815000D01*
X16822500Y64415000D02*
X17100000Y64137500D01*
X13200000Y58375000D02*
X14850000Y56725000D01*
%TO.N,/Mic Path/MicOut-*%
X20400000Y64365000D02*
X19327500Y64365000D01*
X20400000Y57860900D02*
X21415900Y56845000D01*
X21875000Y56845000D02*
X23630000Y56845000D01*
X19327500Y64365000D02*
X19100000Y64137500D01*
X20400000Y64365000D02*
X20400000Y57860900D01*
%TO.N,/Mic Path/MicOut2*%
X16700000Y65350000D02*
X16700000Y67710000D01*
X16700000Y65350000D02*
X15835000Y65350000D01*
%TO.N,/Mic Path/MicOut3*%
X19480000Y65350000D02*
X20385000Y65350000D01*
X19480000Y67700000D02*
X19480000Y65350000D01*
D75*
%TO.N,/Mic Path/MicOut*%
X27887500Y61225000D02*
X26975000Y61225000D01*
X26405000Y60655000D02*
X21875000Y60655000D01*
X26975000Y61225000D02*
X26405000Y60655000D01*
D80*
%TO.N,/Power/vbulk*%
X94000000Y49000000D02*
X94000000Y42700000D01*
X106050000Y68500000D02*
X100800000Y63250000D01*
D79*
X90887500Y41050000D02*
X90887500Y42000000D01*
D82*
X81387500Y41050000D02*
X81387500Y42000000D01*
D80*
X87837500Y50287500D02*
X100800000Y63250000D01*
D79*
X90887500Y42000000D02*
X92530000Y42000000D01*
D80*
X92712500Y50287500D02*
X94000000Y49000000D01*
X93300000Y42000000D02*
X92530000Y42000000D01*
X83500000Y49487500D02*
X83500000Y42325000D01*
X107400000Y68500000D02*
X106050000Y68500000D01*
X83500000Y42325000D02*
X83050000Y41875000D01*
X87837500Y50287500D02*
X92712500Y50287500D01*
X84300000Y50287500D02*
X83500000Y49487500D01*
D83*
X81387500Y42000000D02*
X82925000Y42000000D01*
D80*
X84300000Y50287500D02*
X87837500Y50287500D01*
X94000000Y42700000D02*
X93300000Y42000000D01*
D79*
X90720000Y39840000D02*
X90720000Y40882500D01*
D75*
%TO.N,/Mic Path/TBOut*%
X33612500Y59275000D02*
X34577740Y59275000D01*
X35600000Y57232740D02*
X36562740Y56270000D01*
D76*
X39536000Y53364000D02*
X44914000Y53364000D01*
X36630000Y56270000D02*
X39536000Y53364000D01*
D75*
X35600000Y58252740D02*
X35600000Y57232740D01*
D76*
X45760000Y54210000D02*
X45760000Y56790000D01*
X44914000Y53364000D02*
X45760000Y54210000D01*
D75*
X34577740Y59275000D02*
X35600000Y58252740D01*
D76*
%TO.N,/Mic Path/MuteSel*%
X25680000Y61305000D02*
X26895000Y62520000D01*
X25480000Y61305000D02*
X25680000Y61305000D01*
X26020000Y52512904D02*
X26643096Y53136000D01*
X26643096Y53136000D02*
X28164000Y53136000D01*
X25990000Y51500000D02*
X25990000Y52470000D01*
X24000000Y46500000D02*
X24000000Y50500000D01*
X25990000Y51500000D02*
X25000000Y51500000D01*
X26895000Y62520000D02*
X27882500Y62520000D01*
X25000000Y51500000D02*
X24000000Y50500000D01*
X28164000Y53136000D02*
X29800000Y51500000D01*
D82*
%TO.N,/Mic Path/TBSel*%
X35520000Y52500000D02*
X35520000Y51530000D01*
D76*
X35490000Y51500000D02*
X33500000Y51500000D01*
X33500000Y51500000D02*
X33500000Y57862500D01*
X33500000Y51500000D02*
X31200000Y51500000D01*
X33500000Y57862500D02*
X33612500Y57975000D01*
X33500000Y51500000D02*
X33500000Y46500000D01*
D79*
%TO.N,/Mic Path/TB_OUT2*%
X39840000Y65240000D02*
X39840000Y64315000D01*
X39190000Y68220000D02*
X39190000Y65890000D01*
X39190000Y65890000D02*
X39840000Y65240000D01*
%TO.N,/Mic Path/TB_OUT3*%
X42660000Y65240000D02*
X42660000Y64315000D01*
X43000000Y68220000D02*
X43000000Y65580000D01*
X43000000Y65580000D02*
X42660000Y65240000D01*
%TO.N,/IFB Path/IFB_Pin3*%
X56591364Y47700000D02*
X54351364Y45460000D01*
X81500000Y64265000D02*
X64935000Y47700000D01*
X54351364Y45460000D02*
X47800000Y45460000D01*
X64935000Y47700000D02*
X56591364Y47700000D01*
D78*
%TO.N,/IFB Path/HP_L*%
X52620000Y32605000D02*
X52620000Y31685000D01*
D79*
X54500000Y29500000D02*
X54500000Y26000000D01*
X50340000Y14090000D02*
X55860000Y14090000D01*
X54500000Y26000000D02*
X47430000Y18930000D01*
X58770000Y17000000D02*
X64430000Y17000000D01*
X47430000Y17000000D02*
X50340000Y14090000D01*
X52590000Y31655000D02*
X52590000Y31410000D01*
X55860000Y14090000D02*
X58770000Y17000000D01*
D78*
X52500000Y32725000D02*
X52500000Y33830000D01*
D79*
X52590000Y31410000D02*
X54500000Y29500000D01*
X47430000Y18930000D02*
X47430000Y17000000D01*
%TO.N,/IFB Path/HP_R*%
X51399000Y31655000D02*
X51399000Y31093302D01*
X49500000Y29194302D02*
X49500000Y23500000D01*
X49500000Y23500000D02*
X42000000Y16000000D01*
X42000000Y12000000D02*
X43350000Y10650000D01*
X43350000Y10650000D02*
X47430000Y10650000D01*
D78*
X51385620Y32605000D02*
X51385620Y31685000D01*
X51500000Y32719380D02*
X51500000Y33830000D01*
D79*
X42000000Y16000000D02*
X42000000Y12000000D01*
X51399000Y31093302D02*
X49500000Y29194302D01*
D75*
%TO.N,/IFB Path/VCA_INL*%
X54637500Y42587500D02*
X56197500Y42587500D01*
D79*
X57300000Y45200000D02*
X57300000Y42800000D01*
D75*
X56200000Y42590000D02*
X57090000Y42590000D01*
D79*
X57300000Y45200000D02*
X57300000Y43800000D01*
X57300000Y42800000D02*
X57100000Y42600000D01*
%TO.N,/IFB Path/VCA_INR*%
X46910000Y42600000D02*
X46700000Y42810000D01*
X46700000Y42810000D02*
X46700000Y43800000D01*
X46700000Y45200000D02*
X46700000Y43800000D01*
X46910000Y42600000D02*
X47800000Y42600000D01*
D75*
X49362500Y42587500D02*
X47812500Y42587500D01*
D76*
%TO.N,/IFB Path/VCA_OUTL*%
X55420226Y39412500D02*
X55776000Y39056726D01*
X55776000Y36064000D02*
X53467000Y33755000D01*
X55776000Y39056726D02*
X55776000Y36064000D01*
D78*
X53580000Y32605000D02*
X53000000Y33185000D01*
X53610000Y31655000D02*
X53610000Y32575000D01*
D76*
X54637500Y39412500D02*
X55420226Y39412500D01*
D78*
X53000000Y33185000D02*
X53000000Y33830000D01*
D76*
X53467000Y33755000D02*
X53000000Y33755000D01*
%TO.N,/IFB Path/VCA_OUTR*%
X50533000Y33755000D02*
X51000000Y33755000D01*
X49362500Y39412500D02*
X48579774Y39412500D01*
X48224000Y36064000D02*
X50533000Y33755000D01*
X48579774Y39412500D02*
X48224000Y39056726D01*
D78*
X51000000Y33500000D02*
X51000000Y33830000D01*
X51000000Y33755000D02*
X51000000Y33500000D01*
X51000000Y33500000D02*
X51000000Y33179380D01*
D76*
X48224000Y39056726D02*
X48224000Y36064000D01*
D78*
X51000000Y33179380D02*
X50425620Y32605000D01*
X50425620Y32605000D02*
X50425620Y31685000D01*
D76*
%TO.N,/IFB Path/VCAR_E-*%
X49750000Y48500000D02*
X49750000Y48526154D01*
X50353846Y49130000D02*
X50892500Y49130000D01*
X51256000Y41701412D02*
X50234588Y40680000D01*
X50270000Y44500000D02*
X51256000Y43514000D01*
X51256000Y43514000D02*
X51256000Y41701412D01*
X50892500Y49130000D02*
X50892500Y49630000D01*
X49250000Y44500000D02*
X50270000Y44500000D01*
X49750000Y48526154D02*
X50353846Y49130000D01*
X50234588Y40680000D02*
X49365000Y40680000D01*
%TO.N,/IFB Path/VCAL_E-*%
X53960000Y44760000D02*
X52754000Y43554000D01*
X54300025Y47399975D02*
X53667500Y48032500D01*
X52754000Y43554000D02*
X52754000Y41711412D01*
X54200000Y44760000D02*
X53960000Y44760000D01*
X53667500Y48032500D02*
X53667500Y48630000D01*
X54300025Y47389975D02*
X54300025Y47399975D01*
X52754000Y41711412D02*
X53785412Y40680000D01*
X53667500Y48630000D02*
X53667500Y49130000D01*
X53785412Y40680000D02*
X54635000Y40680000D01*
D79*
%TO.N,Net-(C416-Pad1)*%
X86500000Y71975000D02*
X86500000Y65235000D01*
X86500000Y65235000D02*
X85495000Y65235000D01*
%TO.N,Net-(C417-Pad2)*%
X81500000Y68350000D02*
X81500000Y65235000D01*
X82540000Y65250000D02*
X81515000Y65250000D01*
D78*
%TO.N,Net-(D204-A)*%
X63575000Y85000000D02*
X64000000Y84575000D01*
X64000000Y84575000D02*
X64000000Y83510000D01*
%TD*%
%TA.AperFunction,Conductor*%
%TO.N,+5V*%
G36*
X77893039Y47500315D02*
G01*
X77938794Y47447511D01*
X77950000Y47396000D01*
X77950000Y45764488D01*
X77930315Y45697449D01*
X77877511Y45651694D01*
X77825514Y45640489D01*
X75523514Y45649516D01*
X75456552Y45669463D01*
X75411005Y45722446D01*
X75400000Y45773515D01*
X75400000Y47396000D01*
X75419685Y47463039D01*
X75472489Y47508794D01*
X75524000Y47520000D01*
X77826000Y47520000D01*
X77893039Y47500315D01*
G37*
%TD.AperFunction*%
%TD*%
%TA.AperFunction,Conductor*%
%TO.N,GND*%
G36*
X89259191Y48351093D02*
G01*
X89295155Y48301593D01*
X89300000Y48271000D01*
X89300000Y44970228D01*
X89281093Y44912037D01*
X89231593Y44876073D01*
X89199780Y44871236D01*
X87970466Y44886392D01*
X87942947Y44890647D01*
X87923162Y44896649D01*
X87923157Y44896651D01*
X87923154Y44896651D01*
X87923149Y44896652D01*
X87923148Y44896652D01*
X87863501Y44905500D01*
X86900000Y44905500D01*
X86421127Y44905500D01*
X86419907Y44905508D01*
X86408917Y44905644D01*
X85747779Y44913795D01*
X85689826Y44933418D01*
X85654475Y44983357D01*
X85650000Y45012787D01*
X85650000Y48271000D01*
X85668907Y48329191D01*
X85718407Y48365155D01*
X85749000Y48370000D01*
X89201000Y48370000D01*
X89259191Y48351093D01*
G37*
%TD.AperFunction*%
%TD*%
%TA.AperFunction,Conductor*%
%TO.N,Net-(U201-SW)*%
G36*
X82174313Y48510315D02*
G01*
X82220068Y48457511D01*
X82231274Y48406218D01*
X82241189Y42774218D01*
X82221622Y42707144D01*
X82168899Y42661296D01*
X82117189Y42650000D01*
X81014454Y42650000D01*
X80947415Y42669685D01*
X80901660Y42722489D01*
X80890457Y42774927D01*
X80890507Y42781634D01*
X80896239Y43548225D01*
X80893834Y43581149D01*
X80888991Y43612484D01*
X80888099Y43617794D01*
X80888098Y43617797D01*
X80888097Y43617800D01*
X80872267Y43654833D01*
X80852152Y43701890D01*
X80848755Y43706565D01*
X80816187Y43751390D01*
X80791950Y43779130D01*
X80784459Y43785384D01*
X80786890Y43788297D01*
X80752143Y43825906D01*
X80739241Y43880761D01*
X80731275Y48405782D01*
X80750842Y48472856D01*
X80803565Y48518704D01*
X80855275Y48530000D01*
X82107274Y48530000D01*
X82174313Y48510315D01*
G37*
%TD.AperFunction*%
%TD*%
%TA.AperFunction,Conductor*%
%TO.N,+5V*%
G36*
X10983039Y53310315D02*
G01*
X11028794Y53257511D01*
X11040000Y53206000D01*
X11040000Y51954000D01*
X11020315Y51886961D01*
X10967511Y51841206D01*
X10916000Y51830000D01*
X9514000Y51830000D01*
X9446961Y51849685D01*
X9401206Y51902489D01*
X9390000Y51954000D01*
X9390000Y53206000D01*
X9409685Y53273039D01*
X9462489Y53318794D01*
X9514000Y53330000D01*
X10916000Y53330000D01*
X10983039Y53310315D01*
G37*
%TD.AperFunction*%
%TD*%
%TA.AperFunction,Conductor*%
%TO.N,/Power/vbulk*%
G36*
X84143039Y48600315D02*
G01*
X84188794Y48547511D01*
X84200000Y48496000D01*
X84200000Y40824000D01*
X84180315Y40756961D01*
X84127511Y40711206D01*
X84076000Y40700000D01*
X83777108Y40700000D01*
X83710069Y40719685D01*
X83666624Y40767703D01*
X83648528Y40803220D01*
X83648526Y40803222D01*
X83648523Y40803226D01*
X83553225Y40898524D01*
X83553221Y40898527D01*
X83553220Y40898528D01*
X83433126Y40959719D01*
X83433124Y40959720D01*
X83433121Y40959721D01*
X83333493Y40975500D01*
X83333488Y40975500D01*
X82766512Y40975500D01*
X82766507Y40975500D01*
X82666878Y40959721D01*
X82546778Y40898527D01*
X82546774Y40898524D01*
X82451476Y40803226D01*
X82451473Y40803222D01*
X82451472Y40803220D01*
X82433375Y40767704D01*
X82385403Y40716909D01*
X82322892Y40700000D01*
X80924000Y40700000D01*
X80856961Y40719685D01*
X80811206Y40772489D01*
X80800000Y40824000D01*
X80800000Y42176000D01*
X80819685Y42243039D01*
X80872489Y42288794D01*
X80924000Y42300000D01*
X82799999Y42300000D01*
X82800000Y42300000D01*
X82787746Y48495755D01*
X82807298Y48562833D01*
X82860012Y48608692D01*
X82911746Y48620000D01*
X84076000Y48620000D01*
X84143039Y48600315D01*
G37*
%TD.AperFunction*%
%TD*%
%TA.AperFunction,Conductor*%
%TO.N,GND*%
G36*
X14993039Y53310315D02*
G01*
X15038794Y53257511D01*
X15050000Y53206000D01*
X15050000Y51954000D01*
X15030315Y51886961D01*
X14977511Y51841206D01*
X14926000Y51830000D01*
X13524000Y51830000D01*
X13456961Y51849685D01*
X13411206Y51902489D01*
X13400000Y51954000D01*
X13400000Y53206000D01*
X13419685Y53273039D01*
X13472489Y53318794D01*
X13524000Y53330000D01*
X14926000Y53330000D01*
X14993039Y53310315D01*
G37*
%TD.AperFunction*%
%TD*%
%TA.AperFunction,Conductor*%
%TO.N,Net-(U202-SW)*%
G36*
X91735335Y48520299D02*
G01*
X91781090Y48467495D01*
X91792296Y48416202D01*
X91796087Y46262504D01*
X91798728Y44762509D01*
X91798728Y44762508D01*
X91798883Y44673796D01*
X91796501Y44649388D01*
X91779500Y44563916D01*
X91779500Y44351874D01*
X91759815Y44284835D01*
X91743181Y44264193D01*
X91707032Y44228045D01*
X91707029Y44228041D01*
X91618001Y44083706D01*
X91617996Y44083695D01*
X91564651Y43922710D01*
X91554500Y43823353D01*
X91554500Y43276663D01*
X91554501Y43276645D01*
X91564650Y43177293D01*
X91564651Y43177289D01*
X91592586Y43092988D01*
X91594988Y43023159D01*
X91559256Y42963117D01*
X91496735Y42931925D01*
X91474880Y42929984D01*
X90899205Y42929984D01*
X90832166Y42949669D01*
X90786411Y43002473D01*
X90776467Y43071631D01*
X90788346Y43109538D01*
X90825150Y43182983D01*
X90825151Y43182985D01*
X90825152Y43182987D01*
X90844500Y43241033D01*
X90848868Y43254788D01*
X90870424Y43397044D01*
X90871554Y43545913D01*
X90865641Y43626939D01*
X90860798Y43658283D01*
X90860795Y43658295D01*
X90860793Y43658305D01*
X90837324Y43750980D01*
X90837323Y43750983D01*
X90828668Y43767384D01*
X90828667Y43767386D01*
X90824303Y43775655D01*
X90820040Y43787899D01*
X90774995Y43869097D01*
X90772724Y43873401D01*
X90770171Y43878241D01*
X90769562Y43879218D01*
X90766384Y43884619D01*
X90750244Y43913714D01*
X90750243Y43913716D01*
X90734372Y43929376D01*
X90723264Y43941927D01*
X90716589Y43950584D01*
X90716582Y43950591D01*
X90665128Y43997815D01*
X90665128Y43997814D01*
X90663474Y43999332D01*
X90647826Y44014772D01*
X90641817Y44019208D01*
X90636943Y44023681D01*
X90636942Y44023683D01*
X90610586Y44047871D01*
X90610585Y44047872D01*
X90593931Y44056060D01*
X90577876Y44065515D01*
X90574898Y44067585D01*
X90491937Y44106237D01*
X90491935Y44106238D01*
X90490741Y44106795D01*
X90481466Y44111354D01*
X90479777Y44111903D01*
X90474674Y44114281D01*
X90474652Y44114290D01*
X90444477Y44128348D01*
X90424207Y44131420D01*
X90414288Y44133690D01*
X90414236Y44133457D01*
X90409493Y44134525D01*
X90305944Y44149412D01*
X90242388Y44178437D01*
X90204614Y44237215D01*
X90199591Y44271928D01*
X90192297Y48415766D01*
X90211864Y48482840D01*
X90264587Y48528688D01*
X90316297Y48539984D01*
X91668296Y48539984D01*
X91735335Y48520299D01*
G37*
%TD.AperFunction*%
%TD*%
%TA.AperFunction,Conductor*%
%TO.N,GND*%
G36*
X77900000Y44799995D02*
G01*
X77900000Y43265000D01*
X76299000Y43265000D01*
X76240809Y43283907D01*
X76204845Y43333407D01*
X76200000Y43364000D01*
X76200000Y44701000D01*
X76218907Y44759191D01*
X76268407Y44795155D01*
X76299000Y44800000D01*
X77899286Y44800000D01*
X77900000Y44799995D01*
G37*
%TD.AperFunction*%
%TD*%
%TA.AperFunction,Conductor*%
%TO.N,-5V*%
G36*
X11043039Y50670315D02*
G01*
X11088794Y50617511D01*
X11100000Y50566000D01*
X11100000Y49314000D01*
X11080315Y49246961D01*
X11027511Y49201206D01*
X10976000Y49190000D01*
X9574000Y49190000D01*
X9506961Y49209685D01*
X9461206Y49262489D01*
X9450000Y49314000D01*
X9450000Y50566000D01*
X9469685Y50633039D01*
X9522489Y50678794D01*
X9574000Y50690000D01*
X10976000Y50690000D01*
X11043039Y50670315D01*
G37*
%TD.AperFunction*%
%TD*%
%TA.AperFunction,Conductor*%
%TO.N,-5V*%
G36*
X86900000Y43060000D02*
G01*
X86898676Y43058677D01*
X86898675Y43058677D01*
X86576319Y42736319D01*
X86514996Y42702834D01*
X86488638Y42700000D01*
X84924000Y42700000D01*
X84856961Y42719685D01*
X84811206Y42772489D01*
X84800000Y42824000D01*
X84800000Y44576000D01*
X84819685Y44643039D01*
X84872489Y44688794D01*
X84924000Y44700000D01*
X86900000Y44700000D01*
X86900000Y43060000D01*
G37*
%TD.AperFunction*%
%TD*%
%TA.AperFunction,Conductor*%
%TO.N,GND*%
G36*
X105559191Y48138593D02*
G01*
X105595155Y48089093D01*
X105600000Y48058500D01*
X105600000Y45856500D01*
X105581093Y45798309D01*
X105531593Y45762345D01*
X105501000Y45757500D01*
X96099000Y45757500D01*
X96040809Y45776407D01*
X96004845Y45825907D01*
X96000000Y45856500D01*
X96000000Y48058500D01*
X96018907Y48116691D01*
X96068407Y48152655D01*
X96099000Y48157500D01*
X105501000Y48157500D01*
X105559191Y48138593D01*
G37*
%TD.AperFunction*%
%TD*%
%TA.AperFunction,Conductor*%
%TO.N,GND*%
G36*
X77900699Y44799991D02*
G01*
X78295400Y44794352D01*
X78353313Y44774615D01*
X78376298Y44750366D01*
X78392948Y44725448D01*
X78459269Y44681133D01*
X78503731Y44672289D01*
X78517741Y44669502D01*
X78517746Y44669502D01*
X78517752Y44669500D01*
X79257212Y44669500D01*
X79315403Y44650593D01*
X79351367Y44601093D01*
X79351367Y44539907D01*
X79346937Y44528661D01*
X79346776Y44528317D01*
X79346776Y44528316D01*
X79296028Y44419487D01*
X79290000Y44373695D01*
X79289500Y44369900D01*
X79289500Y43950104D01*
X79289501Y43950093D01*
X79296027Y43900514D01*
X79296027Y43900512D01*
X79346774Y43791687D01*
X79346775Y43791686D01*
X79346776Y43791684D01*
X79350314Y43788146D01*
X79378090Y43733631D01*
X79368519Y43673199D01*
X79350313Y43648141D01*
X79181670Y43479497D01*
X79127153Y43451719D01*
X79111666Y43450500D01*
X78466740Y43450500D01*
X78432673Y43445537D01*
X78398604Y43440573D01*
X78293518Y43389199D01*
X78210801Y43306482D01*
X78159427Y43201396D01*
X78159427Y43201393D01*
X78149500Y43133260D01*
X78149500Y42766740D01*
X78156118Y42721318D01*
X78159427Y42698605D01*
X78210801Y42593519D01*
X78210802Y42593517D01*
X78293517Y42510802D01*
X78336893Y42489597D01*
X78398604Y42459428D01*
X78398605Y42459428D01*
X78398607Y42459427D01*
X78466740Y42449500D01*
X78466743Y42449500D01*
X79433257Y42449500D01*
X79433260Y42449500D01*
X79501393Y42459427D01*
X79606483Y42510802D01*
X79689198Y42593517D01*
X79740573Y42698607D01*
X79750500Y42766740D01*
X79750500Y43086666D01*
X79769407Y43144857D01*
X79779490Y43156664D01*
X80030465Y43407638D01*
X80073317Y43481861D01*
X80073318Y43481862D01*
X80095500Y43564647D01*
X80095500Y43652953D01*
X80097968Y43660551D01*
X80096719Y43668440D01*
X80107243Y43689096D01*
X80114407Y43711144D01*
X80124490Y43722951D01*
X80179998Y43778459D01*
X80234513Y43806234D01*
X80294945Y43796663D01*
X80320000Y43778460D01*
X80391684Y43706776D01*
X80500513Y43656028D01*
X80550099Y43649500D01*
X80591748Y43649501D01*
X80649937Y43630595D01*
X80685902Y43581096D01*
X80690745Y43549761D01*
X80682396Y42433071D01*
X80669800Y42385481D01*
X80622511Y42300942D01*
X80622509Y42300938D01*
X80602826Y42233905D01*
X80602824Y42233896D01*
X80594500Y42176000D01*
X80594500Y40824000D01*
X80597231Y40798605D01*
X80599197Y40780315D01*
X80610404Y40728801D01*
X80612889Y40718629D01*
X80612889Y40718628D01*
X80612890Y40718627D01*
X80655900Y40637915D01*
X80668861Y40622957D01*
X80668504Y40575000D01*
X80711562Y40575000D01*
X80719246Y40567157D01*
X80799063Y40522510D01*
X80799062Y40522510D01*
X80866095Y40502827D01*
X80866102Y40502825D01*
X80924000Y40494500D01*
X80924001Y40494500D01*
X82322888Y40494500D01*
X82322892Y40494500D01*
X82376551Y40501629D01*
X82439062Y40518538D01*
X82458789Y40524959D01*
X82508609Y40558287D01*
X82563654Y40575000D01*
X83416000Y40575000D01*
X83474191Y40556093D01*
X83510155Y40506593D01*
X83515000Y40476000D01*
X83515000Y38874000D01*
X83496093Y38815809D01*
X83446593Y38779845D01*
X83416000Y38775000D01*
X78014394Y38775000D01*
X77956203Y38793907D01*
X77920239Y38843407D01*
X77915396Y38873420D01*
X77906238Y40435770D01*
X77924804Y40494070D01*
X77974092Y40530324D01*
X77992310Y40534502D01*
X78003173Y40535932D01*
X78110404Y40585935D01*
X78144391Y40619923D01*
X78198905Y40647699D01*
X78259337Y40638128D01*
X78284394Y40619924D01*
X78293514Y40610805D01*
X78293517Y40610802D01*
X78312228Y40601655D01*
X78398604Y40559428D01*
X78398605Y40559428D01*
X78398607Y40559427D01*
X78466740Y40549500D01*
X78466743Y40549500D01*
X79433257Y40549500D01*
X79433260Y40549500D01*
X79501393Y40559427D01*
X79606483Y40610802D01*
X79689198Y40693517D01*
X79740573Y40798607D01*
X79750500Y40866740D01*
X79750500Y41233260D01*
X79740573Y41301393D01*
X79726390Y41330404D01*
X79715483Y41352715D01*
X79689198Y41406483D01*
X79606483Y41489198D01*
X79599397Y41492662D01*
X79501395Y41540573D01*
X79474139Y41544544D01*
X79433260Y41550500D01*
X78466740Y41550500D01*
X78432673Y41545537D01*
X78398604Y41540573D01*
X78293518Y41489199D01*
X78293515Y41489197D01*
X78232653Y41428335D01*
X78178136Y41400558D01*
X78125557Y41406551D01*
X78112737Y41411732D01*
X78110404Y41414065D01*
X78003173Y41464068D01*
X77973590Y41467963D01*
X77961907Y41472684D01*
X77947650Y41484649D01*
X77930851Y41492662D01*
X77924782Y41503839D01*
X77915039Y41512016D01*
X77910537Y41530078D01*
X77901657Y41546434D01*
X77900000Y41564472D01*
X77900000Y43264999D01*
X77900000Y43265000D01*
X77900000Y44799995D01*
X77900699Y44799991D01*
G37*
%TD.AperFunction*%
%TD*%
%TA.AperFunction,Conductor*%
%TO.N,/Power/vbulk*%
G36*
X94643039Y48601317D02*
G01*
X94688794Y48548513D01*
X94700000Y48497002D01*
X94700000Y40825002D01*
X94680315Y40757963D01*
X94627511Y40712208D01*
X94576000Y40701002D01*
X90424000Y40701002D01*
X90356961Y40720687D01*
X90311206Y40773491D01*
X90300000Y40825002D01*
X90300000Y42177002D01*
X90319685Y42244041D01*
X90372489Y42289796D01*
X90424000Y42301002D01*
X93190100Y42301002D01*
X93188374Y43173385D01*
X93189901Y43193020D01*
X93205500Y43291507D01*
X93205500Y43808494D01*
X93188393Y43916500D01*
X93186866Y43935642D01*
X93177846Y48496757D01*
X93197398Y48563835D01*
X93250112Y48609694D01*
X93301846Y48621002D01*
X94576000Y48621002D01*
X94643039Y48601317D01*
G37*
%TD.AperFunction*%
%TD*%
%TA.AperFunction,Conductor*%
%TO.N,GND*%
G36*
X15003039Y50670315D02*
G01*
X15048794Y50617511D01*
X15060000Y50566000D01*
X15060000Y49314000D01*
X15040315Y49246961D01*
X14987511Y49201206D01*
X14936000Y49190000D01*
X13534000Y49190000D01*
X13466961Y49209685D01*
X13421206Y49262489D01*
X13410000Y49314000D01*
X13410000Y50566000D01*
X13429685Y50633039D01*
X13482489Y50678794D01*
X13534000Y50690000D01*
X14936000Y50690000D01*
X15003039Y50670315D01*
G37*
%TD.AperFunction*%
%TD*%
%TA.AperFunction,Conductor*%
%TO.N,-5V*%
G36*
X87918501Y44683316D02*
G01*
X87921764Y44681136D01*
X87921765Y44681136D01*
X87921769Y44681133D01*
X87966231Y44672289D01*
X87980241Y44669502D01*
X87980246Y44669502D01*
X87980252Y44669500D01*
X88757212Y44669500D01*
X88815403Y44650593D01*
X88851367Y44601093D01*
X88851367Y44539907D01*
X88846937Y44528661D01*
X88846776Y44528317D01*
X88846776Y44528316D01*
X88796028Y44419487D01*
X88790000Y44373695D01*
X88789500Y44369900D01*
X88789500Y44180835D01*
X88770593Y44122644D01*
X88760504Y44110832D01*
X88352035Y43702363D01*
X88352031Y43702358D01*
X88309182Y43628140D01*
X88309181Y43628140D01*
X88309182Y43628139D01*
X88287000Y43545353D01*
X88286153Y43538919D01*
X88283668Y43539247D01*
X88268093Y43491309D01*
X88218593Y43455345D01*
X88188000Y43450500D01*
X87966740Y43450500D01*
X87932673Y43445537D01*
X87898604Y43440573D01*
X87793518Y43389199D01*
X87710801Y43306482D01*
X87659427Y43201396D01*
X87655287Y43172978D01*
X87649500Y43133260D01*
X87649500Y42766740D01*
X87656118Y42721318D01*
X87659427Y42698605D01*
X87710801Y42593519D01*
X87710802Y42593517D01*
X87793517Y42510802D01*
X87847285Y42484517D01*
X87898604Y42459428D01*
X87898605Y42459428D01*
X87898607Y42459427D01*
X87966740Y42449500D01*
X87966743Y42449500D01*
X88933257Y42449500D01*
X88933260Y42449500D01*
X89001393Y42459427D01*
X89106483Y42510802D01*
X89189198Y42593517D01*
X89240573Y42698607D01*
X89250500Y42766740D01*
X89250500Y43133260D01*
X89240573Y43201393D01*
X89236877Y43208953D01*
X89189198Y43306482D01*
X89189198Y43306483D01*
X89106483Y43389198D01*
X89106481Y43389199D01*
X89103007Y43392673D01*
X89095888Y43406645D01*
X89084801Y43417732D01*
X89082348Y43433220D01*
X89075230Y43447190D01*
X89077682Y43462677D01*
X89075230Y43478164D01*
X89082348Y43492135D01*
X89084801Y43507622D01*
X89103007Y43532681D01*
X89190831Y43620505D01*
X89245348Y43648282D01*
X89260835Y43649501D01*
X89449897Y43649501D01*
X89449900Y43649501D01*
X89499487Y43656028D01*
X89499488Y43656028D01*
X89558137Y43683378D01*
X89608316Y43706776D01*
X89679998Y43778459D01*
X89734513Y43806234D01*
X89794945Y43796663D01*
X89820000Y43778460D01*
X89891684Y43706776D01*
X90000513Y43656028D01*
X90050099Y43649500D01*
X90267073Y43649501D01*
X90282332Y43644543D01*
X90298378Y43644421D01*
X90310698Y43635326D01*
X90325262Y43630594D01*
X90334693Y43617613D01*
X90347604Y43608082D01*
X90352225Y43593482D01*
X90361226Y43581094D01*
X90366069Y43549750D01*
X90364939Y43400881D01*
X90345591Y43342835D01*
X90335948Y43331631D01*
X90310802Y43306484D01*
X90259427Y43201396D01*
X90255287Y43172978D01*
X90249500Y43133260D01*
X90249500Y42766740D01*
X90257441Y42712234D01*
X90259427Y42698606D01*
X90283692Y42648970D01*
X90310802Y42593517D01*
X90310803Y42593516D01*
X90311310Y42592479D01*
X90319881Y42531896D01*
X90291206Y42477847D01*
X90268928Y42461630D01*
X90237919Y42445106D01*
X90237916Y42445104D01*
X90185113Y42399349D01*
X90185098Y42399335D01*
X90167155Y42381755D01*
X90167153Y42381753D01*
X90122511Y42301944D01*
X90122509Y42301940D01*
X90102826Y42234907D01*
X90102824Y42234898D01*
X90099865Y42214316D01*
X90094500Y42177002D01*
X90094500Y40825002D01*
X90098526Y40787559D01*
X90099197Y40781317D01*
X90110404Y40729803D01*
X90112889Y40719631D01*
X90112889Y40719630D01*
X90112890Y40719629D01*
X90155900Y40638917D01*
X90201655Y40586113D01*
X90219246Y40568159D01*
X90219250Y40568157D01*
X90224870Y40563859D01*
X90224033Y40562766D01*
X90260382Y40523491D01*
X90269500Y40481991D01*
X90269500Y40171772D01*
X90260224Y40129933D01*
X90246029Y40099494D01*
X90246028Y40099491D01*
X90239500Y40049900D01*
X90239500Y39630104D01*
X90239501Y39630093D01*
X90246027Y39580514D01*
X90246027Y39580512D01*
X90296774Y39471687D01*
X90296775Y39471686D01*
X90296776Y39471684D01*
X90381684Y39386776D01*
X90490513Y39336028D01*
X90540099Y39329500D01*
X90816000Y39329501D01*
X90874190Y39310594D01*
X90910154Y39261094D01*
X90915000Y39230501D01*
X90915000Y38874000D01*
X90896093Y38815809D01*
X90846593Y38779845D01*
X90816000Y38775000D01*
X87002730Y38775000D01*
X86944539Y38793907D01*
X86908575Y38843407D01*
X86903730Y38873880D01*
X86902876Y39580514D01*
X86901825Y40450490D01*
X86920662Y40508701D01*
X86970119Y40544725D01*
X87002443Y40548776D01*
X87002443Y40549500D01*
X87454314Y40549500D01*
X87454316Y40549500D01*
X87503173Y40555932D01*
X87610404Y40605935D01*
X87634392Y40629924D01*
X87688907Y40657699D01*
X87749339Y40648128D01*
X87774394Y40629925D01*
X87793517Y40610802D01*
X87844013Y40586116D01*
X87898604Y40559428D01*
X87898605Y40559428D01*
X87898607Y40559427D01*
X87966740Y40549500D01*
X87966743Y40549500D01*
X88933257Y40549500D01*
X88933260Y40549500D01*
X89001393Y40559427D01*
X89106483Y40610802D01*
X89189198Y40693517D01*
X89240573Y40798607D01*
X89250500Y40866740D01*
X89250500Y41233260D01*
X89240573Y41301393D01*
X89189198Y41406483D01*
X89106483Y41489198D01*
X89101981Y41491399D01*
X89001395Y41540573D01*
X88974139Y41544544D01*
X88933260Y41550500D01*
X87966740Y41550500D01*
X87932673Y41545537D01*
X87898604Y41540573D01*
X87793518Y41489199D01*
X87793515Y41489197D01*
X87744397Y41440079D01*
X87689880Y41412302D01*
X87629448Y41421874D01*
X87618157Y41430038D01*
X87617499Y41429097D01*
X87610401Y41434067D01*
X87503175Y41484068D01*
X87464198Y41489199D01*
X87454316Y41490500D01*
X87005684Y41490500D01*
X87002443Y41490500D01*
X87002443Y41491399D01*
X86946617Y41505580D01*
X86907496Y41552624D01*
X86900451Y41589179D01*
X86898676Y43058677D01*
X86900000Y43060000D01*
X86900000Y44700000D01*
X87863501Y44700000D01*
X87918501Y44683316D01*
G37*
%TD.AperFunction*%
%TD*%
M02*
